<?xml version="1.0" encoding="UTF-8"?>
<svg id="Layer_2" data-name="Layer 2" xmlns="http://www.w3.org/2000/svg" viewBox="0 0 57.88 119.59">
  <defs>
    <style>
      .cls-1 {
        fill: #6f8946;
      }
    </style>
  </defs>
  <g id="Layer_1" data-name="Layer 1">
    <path class="cls-1" d="M56.76,102.52c.11-3.33.01-7.05.05-10.36l-.11-.18c-8.34,8.8-17.38,17.14-26.01,25.66-.26.11-1.53,1.94-1.9,1.49-.95-.98-2.84-2.91-3.77-3.89-4.41-4.32-9.67-9.81-14-14.18-2.47-2.26-5.55-5.13-7.93-7.49.03.16-2.3-2.7-2.14-1.72.03,1.87.23,6.79.24,8.72.09,4.12.23,9.14.27,13.26.04,1.42-.15,3.92.08,5.33,2.55.33,5.28.32,7.84.27,3.62.36,7.19-.02,10.96-.01,3.06.1,6.93.26,10,.13,8.74-.45,17.83.13,26.58-.06,0-4.23-.09-12.74-.17-16.96ZM12.92,103.26c.63.77,1.06,1.62,1.19,2.63-.22-.07-.57,0-.66-.23-.98.19-.65-.52-1.38-1.57-.83-1.17-1.97-2.11-3.45-2.28-.11-.14-.16-.36-.18-.6-.08-.11-.14-.26-.11-.4-.04-.09-.05-.21-.02-.38,2.39.33,3.17,1.09,4.6,2.83ZM1.34,98.16c-.04-2.15,2.64-2.53,4.16-1.58,2.53,1.44,2.46,5.07,3.26,7.27,1.71,3.63,11.06.2,10.87,9.96h-.85s0-.03,0-.03c-.25-.02-.6-.14-.86-.16.84-7.26-9.73-8.24-11-1.33,0,.59-.26.59-.79.46,0-.02,0-.05.01-.07-.04,0-.07,0-.11,0,0,0,0,0,0,0-.14.03-.43-.06-.59-.2.28-2.13.75-4.41,2.42-5.9-2.94-2.01-.78-5.31-2.42-8.17-.41-.67-1.11-1.02-1.84-1.21-.86-.39-1.8,1.25-.94,1.92-.72-1.61.74-2.43,1.73-1.31.96,2.23-3.21,2.69-3.07.34ZM25.97,118.02c-.17,1.45-2.31,1.75-2.95.54-.68-.98.23-2.6,1.43-1.9.97.65.27,1.77-.81,1.64,2.28.64,1.36-2.82-.3-3.01-3.95-.96-7.69,2.29-10.77-2.51-1.66,2.25-4.48,2.55-7.05,2.07-1-.16-1.62-.96-1.54-.43.22,1.11-.22,2.35-.55,3.4.98-.51,2.33-.64,3.35-.57-.08-.4-.4-.31-.66-.92l-.46-1.11c3.44-.02,1.48,2.06,6.35.88,1.62-.38,2.81,2.48.97,2.82-1.55.43-2.02-2.09-.27-1.89-2.43-.54-1.1,3.31.96,1.67.55-.78,1.61-.9,2.34-1.47,1.84-1.6.93-1.39,3.16-1.54-2.53,6.15-9.26,2.96-14.12,3.04-.96.17-2.41.46-3.4.36,1.44-3.28.45-5.68,0-8.98-.11-4.37-1.08-7.97,4.2-9.68.08.28.11.55.05.81.37,1.22-1.26.64-2.54,3.34,3.55.89-.07,4.27.71,6.54.76,3.16,5.28,2.06,7.15.53,2.42-1.85,1.34-4.02,2.18-3.69.07-.02.15-.01.21,0h0s.66.15.66.15c.01,10.75,11.31,2.04,11.72,9.94ZM46.92,102.37c1.45-1.15,4.46-2.06,3.88-.61h0c-.03.18-.06.39-.12.55-2.66-.12-3.78,1.61-5,3.56,0,0-1.2.09-1.2.09.62-1.73,1.19-2.47,2.45-3.59ZM37.45,111.49s-.07.05-.11.08c.04-.03.1-.07.11-.08ZM37.47,111.62s-.01.09-.02.11c.01-.03.02-.07.02-.11ZM56.54,119.33l-1-.13c-3.17-2.44-5.52-.12-8.61.06-3.42-.07-6.27.7-8.24-2.85.58.1,1.44-.09,1.99.1,1.06.75,2.11,1.4,3.36,1.75,0-.01.01-.05.02-.07-.34-3.32,4.36.47,5.77-2.78.28-.54.41-.45,1-.53,0,0,0,0,0,0,.13,0,.62-.15.75-.2-.93,2.95-.95,1.25,2.23,2.22.21.04.4,0,.3-.27-.46-1.36-.16-1.98-.14-3.34-2.7,1.58-6.58,2.25-9.18-.02-.63,2.89-3.78,3.26-6.31,2.8-1.23-.2-2.66-.69-3.88-.36-1.68.41-1.28,3.67.27,2.23-1.2.86-1.83-1.22-.65-1.61,1.77-.19,1.71,2.46.22,2.86-1.09.36-2.15-.54-2.19-1.63.44-5.27,8.05-.98,10.18-5.24,1.39-2.08.75-4.41,1.46-4.47.15,0,.48-.06.63-.05h0c.06,0,.57.02.65.02-.66,4.18,6.78,7.6,8.42,3.18.22-1.03-.19-2.36-.47-3.35-.25-1.13.67-2.39,1.93-2.08-.38-1.34-1.04-1.94-2.22-2.66l-.03-.8s0,0,.01,0c0-.04-.01-.09-.01-.13,0,0-.02-.01-.02-.02v-.67c7.47,3.42,1.27,12.23,3.93,17.9l-.17.14ZM56.3,98.89c-1.03,1.56-3.88.35-2.8-1.47.93-1.01,2.59-.03,1.76,1.26,1.39-1.71-1.68-2.76-2.41-.46-1,2.72.57,6.79-1.97,8.89,1.54,1.12,1.03,3.69,1.11,5.31-.13.22-.52.24-.76.3h0s-.69.05-.69.05c.06-7.75-11.7-6.79-11.37,1.34l-1.7.1c-.24-3.36,2.26-5.47,4.68-7.21,2.32-1.31,5.59-.4,7.62-2.29,2.22-2.2.49-5.56,2.59-8.01,1.49-2.26,5.69-.28,3.93,2.18ZM57.59,65.69c-.01-1.77,0-4.84,0-6.62-10.74.09-21.72.25-32.45.38-4.31-.15-9.33-.06-13.67.03-3.23-.06-7.27-.01-10.5.16-.08,4.25.16,9.23-.08,13.48.12,4.91.2,10.61.11,15.52,4.11-3.61,7.79-7.85,11.8-11.58,5.33-5.36,11.25-10.98,16.09-16.8,9.51,8.83,18.87,18.45,28.48,27.19.14-7.11.34-14.67.22-21.75ZM5.3,84.42c-3.12,3.27-6.19-3.1-1.7-3.09,1.59.33,1.46,3.01-.29,2.77-.93-.08-1.11-1.53-.16-1.73-.6-.21-.91.72-.71,1.17,1.15,2.01,3.38-.56,3.03-2.15-.35-3.83-1.17-6.87,1.54-9.73-2.1-2.46.12-6.01,1-8.6-1.96.27-3.11-.13-4.9-.79.67,1.48,1.27,2.34,1.38,4,.79-.45,1.49-.73,2.34-.89-1.02,3.19-.5,1.09-2,3.26-.83,1.56-.21,2.82-.38,3.52-.23.92-1.22,1.7-2.21,1.43.3,1.48,1.34,2.61,2.56,3.42.03.47.12,1.66.17,2.11-7.63-2.3-1.53-10.23-3.13-15.87-.25-.9-.89-2.4-.71-3.34.07-.08.34-.07.43-.04,3.44,1.49,7.12,1.05,10.18-.16,4.55-.11,7.05-1.05,9.15,4.03-.57.04-1.04,0-1.6-.1-.59-1.42-2.08-2.87-3.66-2.94.34.62.28,1.18-.13,1.65-1.14,1.31-2.92.05-4.86.66-2.21,1.08-2.55,4.32-1.74,6.42.53,1.33,2.3,1.87,3.6,2.13.38.1.1,1.05.13,1.3-.05.57-1.68-.24-3.58,1.39-3.54,2.48-.84,7.41-3.75,10.16ZM20.04,69.51c-1.31,1.74-3.07,2.94-5.26,3.25-.03-.3-.02-.48,0-.65.02,0,.03,0,.05-.01-.02-.06-.02-.12-.02-.19,0,0,0,0,0,0-.06-.2.11-.39.33-.45,2.9-.49,4.17-3.02,4.8-5.56.2,0,1.29-.31,1.46-.14.24,1.33-.54,2.72-1.36,3.76ZM25.94,62.95c-1.19,2.03-3.55,2.34-5.71,2.58-3.96.28-5.85,4.1-5.88,7.68-.38,3.59-3.62,6.05-7.15,6.02l-.02-.53h.05c0-.05,0-.1.01-.14-.07-.12-.03-.46.09-.58,6.26-.48,7.92-9.41,1.43-11.2l.32-1.65c.84-.67,3.96.21,4.69,1.1,1.76-4.02,6.91-1.29,9.96-2.51,2.52-1.37.78-3.5-.2-2.55,1.64-.55,1.77,1.89.48,2.02-1.15.08-1.61-1.33-1.21-2.21,1.36-2.64,4.71-.38,3.13,1.97ZM51.69,78.39c-3.34.35-6.68-1.75-7.27-5.18.28,0,.51,0,.76.04h0c.06,0,.13.02.18.04.27-.04.52-.03.77.04.82,2.75,4.26,3.22,5.27,3.22.11.17.41,1.41.28,1.83ZM57.01,82.02c-.41,2.35-3.71,2.24-4.64.29-1.16-2.38.59-5.68-1.55-7.84-.56-.72-1.67-1.46-2.64-1.46-2.65.1-5.87,0-7.82-2.08-.6-.64-1.7-1.6-2-2.45-.42-1.02-.83-3.05-.09-3.89.55,0,1.04.09,1.55.26-1.61,8.08,11.86,9.03,11.14.77h.67s0,0,0,.01c.04,0,.08,0,.11,0h0c.31.04.62.12.87.24.4,1.9-.03,4.11-1.22,5.63,3.03,1.75,2.58,5.75,1.6,8.59-1.1,2.99,3.91,3.27,2.57.64.53,1-.39,1.92-1.38,1.66-1.26-.34-.82-2.16.2-2.49,1.29-.56,2.8.71,2.6,2.09ZM57.36,73.16c.13,1.35-3.06,5.08-3.41,4.29.08-.54.07-1.43.07-1.98,1.04-.73,1.54-1.9,1.85-3.09-.82-.2-1.68-.31-1.69-1.42.17-1.89.63-4.14-1.29-5.2-3.71-1.62-7.23,1.58-7.1,5.39l-.83.09v-.07c-1.68.27.33-3.29-3.45-5.78-2.28-2.07-5.41-.25-7.97-1.33-1.6-.7-1.86-3.35-.35-4.29,1.68-1.01,3.77,1.29,2.23,2.69-.54.46-1.74.47-1.86-.39-.28-.85.55-1.74,1.4-1.3.21-.08.09-.14-.05-.18-1.54-.52-1.91,1.48-.98,2.37,1.53,1.6,4.68-1.18,8.66.01,2.22.67,2.33,2.4,2.78,2.12,2.54-1.78,6.69-1.58,9.47-.29-.06-1.38.2-2.69.56-4.01-4.05,2.45-4.95-.55-3.39,2.9l-1.72-.11c-2.56-3.65-5.65.91-6.5-2.91-.93.32-2.01.89-2.6,1.67-.24.11-1.79.12-2.08.17,1.9-3.43,4.34-3.16,7.7-3.13,1.28.24,6.09,1.49,8.48.11.37-.36,1.69-.21,2.15-.23-.75,2.89-1.15,5.73-.41,8.63.59,1.68.5,3.51.36,5.27ZM7.85,40.9c2.53-3.31,2.44-3.33,3.31-7.46.11,1.72-.49,1.98.04,3.93.53,2.21,2.81,3.26,2.11,5.65-.56.82-.93,2.1-2.15,2.08,3.34-1.13.32-3.82-.83-5.42-.78,1.24-2.86,2.77-2,4.4-1.04-.64-1.02-2.32-.47-3.19ZM57.36,27.93c-2.95-11.79-12.25-20.9-23.26-25.5-.39-.2-4.56-2.37-4.88-2.42,0,0-1.63.85-1.63.85-4.3,1.97-9.83,4.09-13.45,7.17C5.94,14.37-.54,23.88.04,34.64c.19,3.6.14,10.25.11,13.93.16,1.4-.31,5.96.64,6.61,2.57-.02,6.35.09,8.93.27,2.17-.02,5.13-.11,7.28-.05,12.51.05,25.39.14,37.9-.04.11-.1,2.79.14,2.66-.35,0,0,.06-7.78.06-7.78-.07-2.97.08-8.94.24-11.88-.16-3.13.39-4.24-.49-7.43ZM55.76,32.06c.05.5-.79.48-1.09.59-1.34-3.72-6.22-2.48-9.28-2.48,4.64-4.67-4.76,3.63-10.61-5.41,3.88,1.75,7.71,1.43,11.77.81.77.02-1.43-1.64-1.28-2.19,4.9.09,10.12,3.46,10.48,8.69ZM55.72,38.67c-1.45,3.35-2.59,6.47-6.75,6.86-.67.52,1.55-.08,1.85-.17,1.42-.69,3.4-.45,4.05,1.15.27.54-.04.59-.04.97-.01.02-.12.03-.14,0-.06.08-.16.09-.25.12,0,0,.01.01.02.02-1.41.14-1.85-.47-3.54-.66-1.73-.17-4.65-.91-4.21-3.2.2-.52.63-.44,1.06-.31.01,0,.03-.01.04-.02.06-.15-.03-.24-.2-.27-1.48-.25-1.37,1.99-.51,2.64-1.36.13-2.09-.8-2.58-1.04-1.79-.62-4.31-1.18-4.89-3.58-.1-.32-.6-2.32-.03-1.94,1.92,1.12,3.12,2.07,3.66,4.34,0,0-.01,0-.02,0,.02.05.03.1.04.15.12.06.23.11.35.17-1.21-3.62-2.8-4.52-.71-8.63,2.81,4.58.31,3.64.88,7.06.16-2.19,1-4.34,3.13-5.24.27.49.43,1.44.93,2.26-1.08,1.25-2.25,1.14-3.01,2.78-.15.31-.69,1.39-.31,1.49.47.11.26-.77,1.23-1.4.33-.18,1.32-.97,1.73-.95.91,1.17,2.04,3.93-.6,3.31,1.4,1.08,3-.99,2.47-2.64-.59-1.85-1.36-2.29-1.98-4.33-.59-1.88.53-3.75,1.89-4.98-.12,5,5.03,6.88.31,11.69.81-.43,1.37-1.35,1.85-2.13.54-2.1,1.69-3.69,4.28-3.49ZM49.38,53.89c-1.51-.71-1.89-2.09-2.35-3.58l.51-.52c3.02,2.75,7.36,2.37,7.84-2.2,1.88,4.24-1.68,8.3-6,6.3ZM39.39,49.34c-.15-.83-.9-1.74-1.38-2.41-1.9-2.39-.47-5.32.94-7.55-1.07,4.62,1.23,6.79,1.7,8.65.16,1.36.37,2.68,1.07,3.89-1.2-.35-2.04-1.44-2.32-2.59ZM23.59,42.66c-.76-1.68-.9-3.75-.31-5.53l.1-.3s.73,1.16,1.28,1.56c-1.35,4.71,4.01,8.1,7.64,4.97.96.01,2.2-.4,3.11-.69-2.05,4.46-9.83,4.61-11.82-.02ZM19.67,51.48c-.33-.22.58-1.06.64-1.25.92.53,2.9,2.94,2.64,3.54-.13.14-.88.06-1.05.08-.31,0-.66-1.43-2.23-2.37ZM18.59,53.48l-1-.29c-.87-5.61,3.42-5.06,2.46-11.07,4.1,4.82-.65,7.2-1.46,11.36ZM13.2,49.62c1.42-.48,2.88-.55,4.35-.19l-.28,1.04c-1.75-.44-2.5-.25-4.28.21-.14-.15-.17-.94.21-1.07ZM18.36,32.38c-.88,2.13-2.7,3.43-3.67,5.53l-.71-1.26c2.01-2.36,3.89-4.83,4.38-8l1.34-.59c.02,1-.2,1.94-.58,2.83.75.11,1.68.33,2.23.87l-.92,1.44c-.69-.31-1.35-.59-2.08-.81ZM20.92,32.85c1.79-2.79,4.96-2.91,8.07-2.47-.65.47-1.1.75-1.48,1.37-4.77-1.46-8.38,4.72-4.8,8.11-.19,1.32.64,2.93.64,2.93-3.94-1.45-4.31-6.77-2.43-9.93ZM20.83,22.56c-.5.77-.93,1.39-1.61,2.06-.12-.16-.27-.56-.27-.57-.97-2.06,1.01-3.23,2.4-4.03l.55.86-1.08,1.67ZM16.06,22.19l1-.69c1.02,1.24,1.96,2.96,2.34,4.52-.3-.04-1.33.2-1.46-.23-.5-1.45-1.03-2.35-1.88-3.6ZM10.84,21.81c-.08-.1-.26-.37-.18-.46.93-.82,1.53-1.95,1.84-3.18.14,0,.48-.01.64,0,.1,0,2.09,3.6-.01,4.37-.88.32-1.72-.01-2.29-.71ZM18.29,16.36c.68.94.21,2.39-.76,3.01-1.21-.98-2.29-1.48-3.64-1.91l.02-.73c1-.67,3.41-1.32,4.37-.37ZM17.55,15.63c-1.27.03-2.57.33-3.69.84l-.47-.44c1.78-5.79,5.71-3.22,4.16-.39ZM13.51,16.44c.71.75-.49,1.96-1.25,1.32-.92-.81.42-2.17,1.25-1.32ZM13.34,18.07l.47-.5c.83.33,3.33,1.21,3.53,2.14.11,1.36-1.17,2.48-2.68,2.24-.61-.05-.2-2.59-1.31-3.88ZM21.73,19.84c-.56-.87-2.35-3.65-2.93-4.56.52-.05,1.58-.18,2.09-.25,0,0,.02,0,.02.01,4.93-.14,10.48-.15,15.42-.12.29.03,2.22-.08,2.87-.09-2.24,4.19-4.99,8.38-7.67,12.32,0,0-2.46-.9-4.94.38-1.11-1.77-3.73-5.9-4.87-7.7ZM27.95,9.91c.1-.19,0-1.49.38-1.39.07-.08.19-.12.29-.1,0,0,0,0,0,0,.39-.03.75-.02,1.13,0-.19.7,1.6,6.99.64,6.17-.06.04-.13.05-.2.05,0,.01,0,.02,0,.04l-2.16.03v-.04c-.08.03-.19.03-.27,0-.16.05-.39.05-.51.03,0-1.63.46-3.17.68-4.78ZM42.57,11.86c-.16,1.73.24,3,1.02,4.5l-.67.69c-1.34-.42-4.4-2.13-3.17-3.86.74-.9,1.53-1.54,2.81-1.33ZM49.66,18.53c-1.28,2.24-1.89-.6-4.62-.98l-.05-.83c1.84-1.3,5.61-1.34,4.67,1.81ZM45.08,17.69c1.25.52,3.89,1.38,3.25,3.17-.6,1.31-2.26,1.96-2.28,1.27-.05-1.38-.69-2.65-1.38-3.88.09-.12.33-.45.41-.57ZM43.34,22.86c-.17-.1-.38-.29-.57-.44.61-1.19.92-2.42,1.03-3.86l.75-.17c1.04,1.75,2.55,5.66-1.21,4.46ZM48.61,30.26c.05,0,.1.01.13.02.19-.11.47-.1,1.3-.02-.78,1.17-2.4,1.58-3.26,2.71-.17-.47-.13-2.59.53-2.63l1.24-.08s0,0,0,.01c.02,0,.04,0,.07,0ZM51.27,37.91c-.29-.47-.91-1.68-1.17-2.18.46-1.12.97-2.1,1.81-3.02.35,1.96.42,3.52-.64,5.19ZM46.83,36.42c.51.38-.71.81-.97.95-6.75-5.21-1.97-5.34-6.52-3.39-.22-.64-.4-1.09-.69-1.72.56-.48,1.73-.84,2.42-1.12-.22-.6-.36-1.05-.45-1.7,2.67-.18.14,2.62,6.21,6.99ZM39.24,34.66c1.16,5.99-4.88,10.17-10.26,7.87,1.1-.57,1.18-.63,2.01-1.43,4.42,1.29,8.05-2.08,6.64-6.59-.4-1.54-1.09-1.53-1.31-2.6-.44-.95-.78-2.08-1.61-2.9.75.21,1.21.7,1.74,1.16,1.36,1.21,2.54,2.61,2.79,4.49ZM36.32,43.22c-.47.42-.93.79-1.57,1.06.62-.85.59-.88,1.06-1.75.6-.33,1.1-.67,1.69-1.09-.15.76-.59,1.34-1.17,1.78ZM25.03,41.42c2.8.26,5.11-1.16,5.42-3.92.13-.02,1.14-.17,1.34-.24.68-.21,1.25-.72,1.48-1.49,1.95,1.18.09,2.61-1.4,2.82-.11.92-.5,1.72-1.09,2.35-.98,1.05-1.84,1.38-2.49,1.56-.91.25-1.53.32-2.41.37-.26-.14-.78-1.04-.85-1.46ZM22.87,35.05c.11,1.03.46,1.4.27,1.81-.32.78-.41,1.49-.5,2.52-1.71-1.46-1.26-4.79.26-6.3-.04.72-.1,1.33-.03,1.98ZM23.27,32.79c.6-.4,1.2-.75,1.87-.89-.46,1.27-.5,1.33-.59,2.84-.07,1.22,1.1,2.06,2.03,2.6,0,0-.09.56-.1.8s0,.61,0,.61c-2.82-.38-3.91-3.46-3.22-5.96ZM28.31,27.27c4.76-1.07,9.48,3.86,7.61,8.51-.18-.66-1.16-1.52-1.16-1.52,1.23-4.38-5.21-7.79-8.15-4.4-.41.16-1.72.22-2.17.28.76-1.62,2.11-2.62,3.87-2.88ZM24.25,30.03c-.22.22-1.5.71-1.74.85.53-.86,1.63-1.69,2.57-2.22l-.83,1.37ZM36.15,36.54c-.26-.69.33-1.02.35-1.87l.03-1.6c1.53,1.72,1.59,5.21-.18,6.84.15-1.19.2-2.27-.21-3.37ZM34.43,37.22c-.16-1.15-1.15-1.9-2.15-2.34-.07-.25-.13-1.37-.09-1.49,2.11.23,3.6,2.04,3.96,4.05.31,1.81.05,3.47-2.04,3.56.59-1.4.63-2.33.32-3.77ZM33.7,41.05c-.53.05-2.11.11-2.45-.27.56-.64.72-1.45.89-1.92,1.27-.17,2.06-1.47,2.15-.92.15.9.08,2.4-.59,3.11ZM30.11,37.78c0,.75-.44,1.4-.94,1.9-.81-.51-1.14-1.68-.91-2.63-.81.13-1.47.14-2.13-.29-.21-.72,1.29-1.59,2.02-1.48-.16.63-.19,1.12.17,1.75,2.72,1.25,2.91-3.01.1-2.1.03-3.36,2.18-2.61,2.04.25,3.76-.6,2.89,1.99-.36,2.08v.53ZM26.8,37.37l1.04.02c.2.97.3,1.89,1.08,2.73-.73,1.19-1.72.18-2.05-.76-.06-.17-.24-.82-.07-1.98ZM28.26,35.87c.31-1.52,2.47-.74,1.87.69-.64.79-2.1.41-1.87-.69ZM31.29,32.16c.67.72.74,1.74.75,2.67l-1.27-.03c-.17-.95-.41-1.88-1.21-2.52.75-.5,1.25-.76,1.74-.12ZM31.21,31.66c2.29-.49,3.73-.43,3.37,2.43-.83-.35-1.56-.94-2.52-.92-.24-.56-.48-1-.85-1.5ZM32.38,29.55c-1.07.09-1.97.2-2.93.66l-2.51-.35c1.11-1.43,4.05-1.31,5.44-.31ZM29.83,30.27c1.09-.31,2.49-.88,3.46-.03.17.15.74.83.84,1.17-2.51-.63-6.35.28-5.91,3.55-1.13.11-1.96.46-2.43,1.67l-.64-.77c-.65-.94.85-2.05,1.92-2.15,0-.08,0-.18.02-.24.2-1.57,1.32-2.69,2.74-3.19ZM27.16,32.39c-.12.29-.21.58-.3.97-.63.16-1.64.6-2.03,1.38-.07-.74.34-2.92,1.08-2.96s1.4.18,1.4.18l-.15.43ZM24.85,38.49c2.64.82,1.09.7,2.7,2.34-2.58.8-3.2.27-2.7-2.34ZM28.73,42.65c.91.49,1.87.69,2.97.72-1.37,1.41-4.25,1.13-5.68-.22.98-.08,1.82-.2,2.71-.5ZM36.3,21.95c1.56.6,4.66.79,5.22,2.68.14-.66-.01-1.93,1.04-1.8.84.37-.24,2.21-.18,2.98l-1.06.02-.11-.31c-.07.11-.15.22-.29.1-1.59-1.15-3.91-1.57-4.61-3.68ZM39.86,19.66c1.09-.46,2.22-.82,3.09-1.61.31.25.87.48.66,1.01-.15.76-.54,2.99-1.25,3.28-1.6.75-3.13-1.31-2.5-2.68ZM44.67,17.78c-.41.86-2.01.38-1.47-.63.44-1.11,2.06-.45,1.47.63ZM39.29,15.22c.04-.07.17-.2.21-.23.67.84,2.31,2.14,3.4,2.17l-.02.74c-1.31,1.06-5.22,2.78-4.82-.34,0,0,1.23-2.34,1.23-2.34ZM23.64,44.28c-.7-.55-1.42-1.18-1.78-2.02.53.36,1.06.6,1.61.81.46.64.87,1.34,1.53,1.84.37.28-.07.45-1.36-.63ZM38.84,48.81c.15.31.43.82.34,1.18-1.95.95-2.38,2.2-3.69,3.81-1.34-1.49,1.89-4.55,3.35-4.99ZM43.03,50.45c-1.2-.7-1.99-.09-2.05-1.83,1.3-.23,5.63,3.23,2.05,1.83ZM44.19,49.83c-.07-1.93-.68-3.64-1.4-5.42l1.51.54c.54,1.6,1.1,3.12,1,4.86-.35.14-.94.74-1.1.02ZM52.87,26.09c-.59-.58-1.42-1.08-2.04-1.52-1.73-.5,1.06-2.5-.56-6.72,2.8,2.1,3.23,4.89,2.6,8.25ZM48.28,12.81c.92.62,1.6,2.18.87,3.09-1.55-.63-2.85-.11-4.17.66-1.34.09,1.3-5.27,3.3-3.75ZM46.7,12.46c-1.28.91-2.03,2.3-2.3,3.83h-.59c-2.96-5.76,1.92-7.42,2.9-3.83ZM36.44,5.33c3.08.54,4.36,3.22,4.76,6.09.07.27.01.36-.27.44h0s-.06.03-.1.04c0,0,0,.01,0,.02l-.54.31c-.28-1.98-3.37-4.95-4.81-2.84-.41,1.98,2.23,1.81,3.41,1.46-1.83,3.45-6.25,3.38-6.8-.82-.34-1.26.39-2.08.55-2.68.35-1.64,2.23-2.45,3.79-2.03ZM27.39,1.32c.06-.11.17-.18.29-.18l.8-.53c.3,1.97,1.26,2.16,1.63.05,1.17.37.33,2.32.38,3.11-.03,2.63.25,2.25-.77,4.34h-.68s-.01-.03-.01-.05c-.17.02-.69.17-.86.26-1.48-2.02-.81-2.1-.77-4.4.06-.38-.61-2.44,0-2.59ZM14.37,10.97c1.45-3.1,5.59-7.43,9.23-5.34,2.45,1.97,1.85,5.04-.21,6.92-.19.21-.61.35-.9.35-3.19.31-4.07-1.64-4-4.47.63-1.81,1.08,2.38,3.27,1.22.61-.36.58-1.19.09-1.62-2.72-2.03-5.64,1.42-6.78,3.78-.15-.17-.88-.53-.7-.85ZM12.18,11.75c.19-.74,3.03-.54,2.83,1.01-.74.96-1.39,1.97-1.68,3.2-.41,0-.66.03-1.07.13-.45-1.37-.68-2.96-.08-4.34ZM8.87,13.48c.59-.84,1.67-2.32,2.78-1.64.06,1.29-.28,3.1.55,4.31l-.39.39c-1.26-.56-3.11-1.42-2.95-3.06ZM7.01,16.35c.07-.99.69-1.77,1.65-1.97.8,1.1,1.76,2.03,3.22,2.22-.34.62.05,1.14.47,1.56-1.55,5.2-5.33,3.01-4.24.38,1.05.1,2.76-.56,3.59-1.14-1.63.57-4.77,1.91-4.7-1.06ZM6.52,26.96c.03.12.1.46.01.56l-.97,1.12s0,0,0-.01c-.04.06-.08.1-.14.14h0c-.37.49-1.11,1.48-1.48,1.96-.83-4.39.6-8.35,3.44-11.64.37,1.19-.59,1.06-1.02,3.17-.32,1.56-.27,3.16.17,4.71ZM.36,33.09c.12-.71,2-.18,2.23.31,2.49-5.13,6.09-7.7,11-10.22.45,1.19-1.07,2.52-.54,2.55,3.34.06,6.85,1.39,10.03-.36-.11.64-2.44,1.88-3,2.16-1.87,1.1-4.46,1.51-6.44,1.36.73.54,1.28,1.08,1.61,1.91-8.32-.27-14.32,1.14-12.06,10.93-.33.03-.87.11-1.21.08-1.31-4.48,1.44-8.04-1.61-7.34l-.02-1.37ZM8,33.55l-.04,1.38c-1.09-.67-2.14-1.23-2.65-2.26,1.62-.79,2.54-1.48,2.69.89ZM.57,42.88c5.09-2.88,3.92,1.68,6.56,1.8-3.97-2.29-2.19-6.24-2.76-10.01,5.09,3.09-.55,6.37,3.1,9.7-3.16-4.19.93-8.21,3.61-11.27,2.82,3.62,6.12,7.85,1.66,11.78l.1.1c1.24-.88,1.82-2.29,2.2-3.76.27-.9-.23-2.7-.07-3.1.61-1.49,1.02-1.92,2.12-3.2.74,2.02.26,4.24-.66,6.01-.72,1.72-1.46,3.61-3.26,4.47,3.46-.73,1.99-5.93,6.87-4.98-1.11,4.05-6.39,7.82-10.01,4.56.83-.14,1.79-.92,1.25-1.75-1.06-1.01-2.7.63-1.33,1.55-3.87,1.96-6.35.9-9.36-1.9ZM9.69,44.31c-.55-.82.8-1.67,1.42-.94.49.81-.94,1.79-1.42.94ZM3.61,52.68c-1.56-1.59-1.84-4.25-1.15-6.31,1.29,2.98,4.22,5.31,7.5,4.5.34-.17.86.49,1.08.66-1.88,2.03-5.17,3.49-7.43,1.15ZM21.97,55.26h-2.09c-5.51,0-10.21-5.02-13.61-9.09.25.02,1.49-.37,1.65-.06.91,1.33,2.41,2.87,3.67,4.03.23-1.36.09-2.58-.12-3.88.33.09,1.18-.01,1.24.47.22,1.37,0,2.78-.02,4.15,2.81,1.91,6.64,3.63,10.1,3.21-.16.27-.37,1.22-.81,1.18ZM23.53,53.49c.9-1.62,2.59-4.95,3.37-6.63.25-.52.3-.81.74-.76,1.08.14,2.26.18,3.39.05.85,1.34,1.55,2.92,2.3,4.31,0,0,1.44,2.7,1.44,2.7.11.26.69,1.13.63,1.44-1.34-1.87-1.31-1.55-3.44-2.23.81-1.16-.08-3.09-1.49-3.47-.12-1.22-.25-1.46-1.17-2.34-.72.6-1.32,1.4-1.18,2.38-1.49.38-2.18,2.11-1.58,3.51-1.98.31-2.45,1.26-3.8,2.47.2-.56.53-.95.79-1.44ZM28.33,48.8c-.15-.8.41-1.46.96-2.02.61.55,1.44,2.01.55,2.35,1.57-.48,3.11,2.93,1.65,3.07-.11-.05-1.96-.68-2.01-.71-.59-.11-2.18.66-2.73.86-.65-1.28.34-3.38,1.89-3.19l-.3-.36ZM29.48,52.78c-1.17.07-2.2.9-3.38,1.09-1.18.17-1.89.86-3.05,1.2,1-1.43,2.14-2.2,3.91-2.59.72-.24,1.91-1.03,2.71-.7.88.31,2.85.98,3.73,1.23.9.16,1.6,1.45,2.12,2.09-2.33-1.62-3.11-.84-6.05-2.32ZM41.67,53.83c-1.86.92-3.46,1.44-5.58,1.33l-.63-1.19c2.94-.13,5.77-1.11,8.15-2.83,1.77-.8,3.55-2.93,4.31-4.71l1.23.58c-1.42,3.12-4.63,5.11-7.48,6.82ZM53.78,45.09c-.63-.17-1.17-.21-1.87-.22,2.15-1.37,1.92-3.48,5.01-1.72-.74.6-2.15,2.03-3.14,1.94ZM57.57,35.14c-.72.47-4.15-.41-1.77.55-.8,2.75-.74,2.53-3.13,3.54.77-1.27,1.96-3.24,1.96-4.68,0-.39-.42-1.5.11-1.71.98-.39,1.52-.33,2.64-.36.56,0,.12,2.38.2,2.66ZM29.48,92.98l-2.4-2.4,2.37-2.4,2.43,2.38-2.41,2.42Z"/>
  </g>
</svg>