<?xml version="1.0" encoding="UTF-8"?>
<svg id="Layer_3" data-name="Layer 3" xmlns="http://www.w3.org/2000/svg" viewBox="0 0 147.04 57.01">
  <defs>
    <style>
      .cls-1 {
        fill: #fff;
      }
    </style>
  </defs>
  <g id="Layer_1" data-name="Layer 1">
    <g>
      <g>
        <path class="cls-1" d="M40.91,16.21c-.3-.09-.5-.26-.6-.52s-.18-.65-.21-1.16l-.55-12.07c-.02-.72.17-1.21.55-1.48.38-.27,1-.41,1.84-.41.03,0,.05-.05.05-.16s-.02-.16-.05-.16c-.35,0-.69,0-1.02.03-.33.02-.74.03-1.23.03-.25,0-.46,0-.64-.03-.18-.02-.34-.03-.46-.03-.18,0-.33.06-.46.17-.13.11-.24.28-.33.49l-5.48,12.55L26.47,1.62c-.28-.58-.49-.95-.63-1.12-.14-.17-.33-.25-.58-.25-.14,0-.35,0-.62.03-.27.02-.57.03-.91.03-.25,0-.54,0-.88-.03-.34-.02-.67-.03-.98-.03-.04,0-.05.05-.05.16s.02.16.05.16c.93,0,1.68.45,2.26,1.33l-.24,11.77c-.02.91-.21,1.58-.56,2.02-.36.44-.91.66-1.64.66-.04,0-.05.05-.05.16s.02.16.05.16c.37,0,.76,0,1.18-.03.42-.02.87-.03,1.34-.03.51,0,.96,0,1.36.03.4.02.8.03,1.18.03.05,0,.08-.05.08-.16s-.03-.16-.08-.16c-.81,0-1.38-.22-1.72-.66-.34-.44-.5-1.11-.49-2.02l.22-10.57,6.53,13.38c.03.07.11.1.22.1s.18-.03.2-.1l5.81-13.48.49,11.54c.05.75-.04,1.24-.29,1.47-.25.23-.8.34-1.65.34-.05,0-.08.05-.08.16s.03.16.08.16c.4,0,.86,0,1.36-.03.51-.02,1.05-.03,1.63-.03.61,0,1.19,0,1.73.03.54.02,1.03.03,1.47.03.03,0,.05-.05.05-.16s-.02-.16-.05-.16c-.61,0-1.07-.04-1.36-.13Z"/>
        <path class="cls-1" d="M48.34,1.28c.1-.26.31-.45.6-.55.3-.1.75-.16,1.36-.16.03,0,.05-.05.05-.16s-.02-.16-.05-.16c-.42,0-.9.01-1.44.04-.54.03-1.13.04-1.76.04s-1.19-.01-1.73-.04c-.54-.03-1.03-.04-1.47-.04-.04,0-.05.05-.05.16s.02.16.05.16c.61,0,1.08.05,1.39.14s.52.27.63.52c.11.25.16.63.16,1.14v12.15c0,.51-.05.89-.16,1.16-.1.26-.31.44-.63.52-.31.09-.77.13-1.36.13-.05,0-.08.05-.08.16s.02.16.05.16c.44,0,.93,0,1.47-.03.54-.02,1.12-.03,1.73-.03s1.21,0,1.75.03c.53.02,1.02.03,1.46.03.03,0,.05-.05.05-.16s-.02-.16-.05-.16c-.61,0-1.07-.04-1.38-.13-.31-.09-.51-.26-.6-.52-.1-.26-.14-.65-.14-1.16V2.43c0-.51.05-.89.16-1.16Z"/>
        <path class="cls-1" d="M68.35,1.24c.11-.25.32-.43.64-.52.32-.1.79-.14,1.4-.14.05,0,.08-.05.08-.16s-.03-.16-.08-.16c-.42,0-.91.01-1.48.04-.57.03-1.15.04-1.75.04-.68,0-1.3-.01-1.85-.04-.55-.03-1.04-.04-1.46-.04-.05,0-.08.05-.08.16s.03.16.08.16c.66,0,1.15.05,1.47.16.31.1.52.29.63.55s.16.65.16,1.16v5.38h-9.58V2.43c0-.51.06-.89.17-1.16.11-.26.33-.45.66-.55.32-.1.81-.16,1.46-.16.03,0,.05-.05.05-.16s-.02-.16-.05-.16c-.44,0-.93.01-1.48.04-.55.03-1.18.04-1.88.04-.6,0-1.16-.01-1.71-.04-.54-.03-1.03-.04-1.47-.04-.05,0-.08.05-.08.16s.03.16.08.16c.61,0,1.08.05,1.39.14s.52.27.63.52c.1.25.16.63.16,1.14v12.15c0,.51-.05.89-.16,1.16s-.32.44-.64.52c-.32.09-.8.13-1.43.13-.04,0-.05.05-.05.16s.02.16.05.16c.44,0,.94,0,1.5-.03.56-.02,1.14-.03,1.73-.03.7,0,1.32,0,1.86.03.54.02,1.04.03,1.5.03.03,0,.05-.05.05-.16s-.02-.16-.05-.16c-.65,0-1.14-.04-1.47-.13-.33-.09-.55-.26-.66-.52-.11-.26-.16-.65-.16-1.16v-6.12h9.58v6.12c0,.51-.05.89-.16,1.16s-.31.44-.63.52c-.32.09-.81.13-1.47.13-.05,0-.08.05-.08.16s.03.16.08.16c.42,0,.91,0,1.46-.03.55-.02,1.17-.03,1.85-.03.59,0,1.18,0,1.75.03.57.02,1.06.03,1.48.03.05,0,.08-.05.08-.16s-.03-.16-.08-.16c-.61,0-1.08-.04-1.4-.13-.32-.09-.54-.26-.64-.52-.1-.26-.16-.65-.16-1.16V2.38c0-.51.05-.89.16-1.14Z"/>
        <path class="cls-1" d="M124.74,9.54c-.45-.66-1.08-1.19-1.89-1.57-.63-.3-1.34-.48-2.14-.55.8-.3,1.47-.71,1.99-1.24.74-.74,1.1-1.59,1.1-2.57,0-.68-.17-1.28-.5-1.8-.33-.52-.84-.92-1.51-1.21-.67-.29-1.54-.43-2.59-.43-.46,0-.97.03-1.55.08-.58.05-1.1.08-1.57.08-.59,0-1.16-.01-1.69-.04-.53-.03-1.02-.04-1.46-.04-.04,0-.05.05-.05.16s.02.16.05.16c.59,0,1.05.05,1.35.14.31.1.51.27.62.52.1.25.16.63.16,1.14v12.15c0,.51-.06.89-.17,1.16-.11.26-.33.44-.64.52-.28.08-.68.12-1.17.12-.25-.03-.49-.1-.72-.24-.3-.18-.6-.52-.91-1-.31-.48-.67-1.15-1.09-2.01L104.06.09c-.02-.07-.08-.1-.18-.09-.1,0-.17.04-.18.09l-5.12,11.8L92.88.14c-.02-.07-.08-.1-.18-.09-.1,0-.17.04-.18.09l-5.59,12.89c-.28.67-.55,1.22-.8,1.66-.55-.53-1.15-1.19-1.79-2.01-.99-1.26-2.2-2.96-3.61-5.08.35-.2.69-.42.99-.69.52-.45.93-.98,1.23-1.57.31-.59.46-1.22.46-1.86,0-1.03-.4-1.84-1.19-2.43-.8-.59-1.95-.88-3.45-.88-.47,0-1.02.03-1.63.08-.61.05-1.16.08-1.63.08-.59,0-1.16-.01-1.69-.04-.53-.03-1.02-.04-1.46-.04-.04,0-.05.05-.05.16s.02.16.05.16c.61,0,1.07.05,1.36.14.3.1.5.27.6.52.1.25.16.63.16,1.14v12.15c0,.51-.06.89-.17,1.16-.11.26-.32.44-.63.52-.31.09-.76.13-1.35.13-.05,0-.08.05-.08.16s.03.16.08.16c.44,0,.93,0,1.47-.03.54-.02,1.11-.03,1.71-.03.63,0,1.21,0,1.73.03.52.02,1.01.03,1.44.03.05,0,.08-.05.08-.16s-.03-.16-.08-.16c-.61,0-1.07-.04-1.38-.13-.31-.09-.51-.26-.6-.52s-.14-.65-.14-1.16v-6.2c.19.02.4.03.63.04.23,0,.45.01.66.01.4,0,.78-.05,1.17-.13,1.05,1.67,2,3.13,2.85,4.36.89,1.3,1.66,2.29,2.3,2.99.64.7,1.1,1.05,1.38,1.05h2.35c.13,0,.27.01.39.02.44.04.92.05,1.44.05.09,0,.13-.05.13-.16s-.04-.16-.13-.16c-.12,0-.23-.02-.34-.02-.01-.03-.03-.05-.06-.05-.5,0-1.02-.15-1.56-.43-.11-.08-.21-.17-.29-.27-.4-.52-.38-1.31.08-2.38l2.14-4.96h4.85l2.93,6.09c.38.81.48,1.34.29,1.61-.19.27-.72.41-1.57.41-.07,0-.1.05-.1.16s.03.16.1.16c.51,0,.97-.02,1.38-.05.41-.03.9-.05,1.46-.05.51,0,1.03.02,1.56.05.53.04,1.05.05,1.56.05.09,0,.13-.05.13-.16s-.04-.16-.13-.16c-.33,0-.65-.09-.95-.28-.3-.18-.6-.52-.91-1-.31-.48-.67-1.15-1.09-2.01l-.23-.48,1.9-4.4h4.85l2.93,6.09c.38.81.48,1.34.29,1.61-.19.27-.72.41-1.57.41-.07,0-.1.05-.1.16s.03.16.1.16c.51,0,.97-.02,1.38-.05.41-.03.9-.05,1.46-.05.51,0,1.03.02,1.56.05.53.04,1.05.05,1.56.05.03,0,.05-.01.07-.03.31,0,.64-.01,1-.02.54-.02,1.11-.03,1.71-.03s1.25.03,1.97.08c.72.05,1.34.08,1.86.08,1.03,0,1.96-.21,2.8-.64.83-.43,1.49-1.01,1.97-1.76.48-.74.72-1.58.72-2.51,0-.88-.22-1.64-.67-2.31ZM77.35,7.72c-.29-.03-.56-.05-.8-.07V2.43c0-.52.06-.92.17-1.18.11-.26.29-.43.54-.51.24-.08.58-.12,1-.12.56,0,1.06.11,1.51.33.45.22.8.6,1.06,1.16s.39,1.33.39,2.32c0,1.23-.24,2.09-.72,2.59-.48.5-1.28.75-2.4.75-.21,0-.46-.01-.75-.04ZM89.93,7.7l2.03-4.72,2.27,4.72h-4.3ZM101.11,7.65l2.03-4.72,2.27,4.72h-4.3ZM117.28,1.24c.1-.25.26-.42.5-.5.24-.08.55-.12.93-.12.72,0,1.29.14,1.73.41.44.27.77.65.98,1.13.22.48.33,1.04.33,1.67,0,1.02-.27,1.87-.81,2.57-.54.7-1.43,1.05-2.65,1.05-.05,0-.26,0-.63-.01-.15,0-.34-.01-.52-.02V2.43c0-.54.05-.94.14-1.19ZM122.29,15.25c-.59.66-1.52.98-2.8.98-.67,0-1.17-.06-1.51-.17-.34-.11-.57-.3-.68-.55-.11-.25-.17-.58-.17-.98v-6.43c.2-.02.41-.05.6-.06.45-.02.86-.02,1.21,0,1.38,0,2.43.42,3.15,1.25.72.83,1.08,1.89,1.08,3.19,0,1.19-.29,2.11-.88,2.77Z"/>
      </g>
      <path class="cls-1" d="M9.55,24.39l.05,2.84s-.04.07-.13.07-.13-.02-.13-.07c0-.81-.21-1.45-.63-1.91-.42-.46-.98-.69-1.67-.69h-1.62c-.84,0-1.4.09-1.65.28-.26.19-.39.59-.39,1.2v5.16h2.56c.81,0,1.38-.12,1.7-.38.32-.25.48-.67.48-1.24,0-.03.05-.05.14-.05s.14.02.14.05c0,.45,0,.81-.01,1.06,0,.25-.01.52-.01.8,0,.34,0,.68.02,1.02.02.34.02.7.02,1.09,0,.03-.05.05-.14.05s-.14-.02-.14-.05c0-.7-.17-1.2-.5-1.48-.34-.28-.93-.42-1.79-.42h-2.46v5.14c0,.47.07.83.2,1.07.13.24.41.41.83.51.42.09,1.06.14,1.9.14.05,0,.07.05.07.14s-.02.14-.07.14c-.5,0-1.04,0-1.63-.02-.59-.02-1.22-.02-1.91-.02-.5,0-.99,0-1.45.02-.47.02-.89.02-1.27.02-.03,0-.05-.05-.05-.14s.02-.14.05-.14c.59,0,1.04-.04,1.34-.12.3-.08.5-.23.6-.47.1-.23.15-.58.15-1.03v-10.86c0-.45-.05-.79-.15-1.02-.1-.23-.3-.38-.6-.47-.3-.09-.74-.13-1.34-.13-.03,0-.05-.05-.05-.14s.02-.14.05-.14h9.29c.14,0,.21.07.21.21ZM27.2,28.61c.34.89.5,1.81.5,2.74,0,1.1-.22,2.11-.66,3.05-.44.94-1.04,1.76-1.8,2.46-.76.7-1.63,1.26-2.63,1.65-.99.4-2.05.6-3.16.6s-2.15-.2-3.06-.6c-.91-.4-1.7-.95-2.35-1.65-.65-.7-1.15-1.51-1.5-2.43-.35-.91-.53-1.89-.53-2.92,0-1.27.25-2.38.74-3.33.49-.95,1.15-1.75,1.96-2.38.81-.63,1.7-1.11,2.67-1.42.97-.31,1.93-.47,2.88-.47,1.16,0,2.19.21,3.11.62.91.41,1.69.97,2.33,1.68s1.13,1.5,1.47,2.39ZM26.2,32.01c0-1.49-.29-2.79-.86-3.93-.57-1.13-1.37-2.03-2.4-2.67-1.03-.65-2.24-.97-3.64-.97-1.81,0-3.23.56-4.25,1.69-1.02,1.13-1.52,2.66-1.52,4.6,0,1.1.16,2.12.48,3.09.32.96.78,1.81,1.38,2.53.6.73,1.32,1.29,2.15,1.7.83.41,1.75.61,2.77.61,1.1,0,2.09-.25,2.98-.76.89-.51,1.6-1.26,2.12-2.25.52-.99.79-2.2.79-3.62ZM43.65,24.21c-.37.02-.73.03-1.09.03-.44,0-.84-.01-1.21-.03-.37-.02-.72-.04-1.07-.04-.05,0-.07.05-.07.14s.02.14.07.14c.69,0,1.19.18,1.51.53.32.35.48.9.48,1.65v6.73c0,1.58-.4,2.82-1.19,3.73-.79.91-1.9,1.36-3.34,1.36-1.55,0-2.75-.49-3.61-1.48-.86-.99-1.29-2.4-1.29-4.25v-6.62c0-.45.05-.8.14-1.03.09-.23.29-.4.59-.49.3-.09.74-.14,1.34-.14.05,0,.07-.05.07-.14s-.02-.14-.07-.14c-.34,0-.75.01-1.21.04-.46.02-.96.03-1.49.03s-1-.01-1.45-.03c-.45-.02-.87-.04-1.24-.04-.03,0-.05.05-.05.14s.02.14.05.14c.59,0,1.04.04,1.34.13.3.09.5.24.6.47s.15.57.15,1.02v7.48c0,1.13.23,2.11.7,2.94.47.84,1.13,1.49,1.99,1.95.86.46,1.87.69,3.03.69,1.1,0,2.05-.23,2.87-.68.82-.45,1.46-1.11,1.91-1.97.45-.86.68-1.91.68-3.14v-6.71c0-.75.15-1.3.46-1.65.3-.35.77-.53,1.4-.53.03,0,.05-.05.05-.14s-.02-.14-.05-.14c-.3,0-.63.01-1,.04ZM61.6,24.17c-.3,0-.63.01-.99.04-.36.02-.72.03-1.08.03-.39,0-.75-.01-1.07-.03-.32-.02-.64-.04-.95-.04-.03,0-.05.05-.05.14s.02.14.05.14c.66,0,1.11.16,1.36.49.25.33.38.89.38,1.69v10.27l-9.27-11.51c-.36-.45-.58-.77-.66-.95-.08-.18-.22-.27-.42-.27-.09,0-.24,0-.43.02-.2.02-.4.02-.62.02s-.47,0-.75-.02c-.28-.01-.56-.02-.82-.02-.05,0-.07.05-.07.14s.02.14.07.14c.38,0,.77.11,1.18.34.16.09.33.21.5.36v11.24c0,.8-.12,1.36-.36,1.68-.24.32-.71.48-1.4.48-.03,0-.05.05-.05.14s.02.14.05.14c.31,0,.64,0,.99-.02.34-.02.7-.02,1.08-.02s.75,0,1.07.02c.32.02.63.02.93.02.05,0,.07-.05.07-.14s-.02-.14-.07-.14c-.66,0-1.12-.16-1.38-.48s-.4-.88-.4-1.68v-10.75c.13.14.26.29.4.45l10.6,13.04s.09.02.16.01c.08,0,.12-.03.12-.06v-12.46c0-.8.14-1.36.41-1.69.27-.33.75-.49,1.42-.49.05,0,.07-.05.07-.14s-.02-.14-.07-.14ZM76.57,34.44c-.42.95-1,1.75-1.75,2.42-.74.66-1.6,1.18-2.57,1.54-.97.36-1.99.54-3.07.54-.44,0-.98-.02-1.62-.07-.64-.05-1.24-.07-1.78-.07-.5,0-.99,0-1.45.02-.47.02-.89.02-1.27.02-.03,0-.05-.05-.05-.14s.01-.14.05-.14c.59,0,1.04-.04,1.35-.12.3-.08.51-.23.61-.47.1-.23.15-.58.15-1.03v-10.86c0-.45-.05-.79-.15-1.02-.1-.23-.3-.38-.6-.47-.3-.09-.74-.13-1.34-.13-.03,0-.05-.05-.05-.14s.02-.14.05-.14c.38,0,.79.01,1.26.04.46.02.94.03,1.44.03s1.04-.02,1.61-.06c.57-.04,1.06-.06,1.47-.06,1.67,0,3.14.31,4.39.94,1.25.63,2.22,1.48,2.92,2.56.7,1.08,1.04,2.29,1.04,3.64,0,1.17-.21,2.23-.63,3.18ZM75.68,31.78c0-1.38-.27-2.62-.81-3.72-.54-1.1-1.3-1.98-2.29-2.64-.99-.66-2.16-.99-3.52-.99-.95,0-1.63.1-2.04.29-.41.19-.61.66-.61,1.4v10.56c0,.67.16,1.17.48,1.48s1,.47,2.05.47c1.31,0,2.48-.26,3.48-.79,1.01-.52,1.8-1.3,2.38-2.32.58-1.02.87-2.27.87-3.74ZM92.85,38.7c0,.09-.03.14-.09.14-.44,0-.89-.02-1.35-.05-.46-.03-.9-.05-1.33-.05-.48,0-.9.02-1.25.05-.35.03-.74.05-1.16.05-.06,0-.09-.05-.09-.14s.03-.14.09-.14c.88,0,1.43-.12,1.65-.35.23-.23.19-.68-.11-1.34l-2.69-5.77h-4.68l-2.02,4.86c-.39.95-.42,1.63-.09,2.02.33.39,1.02.59,2.09.59.08,0,.12.05.12.14s-.04.14-.12.14c-.47,0-.9-.02-1.29-.05-.39-.03-.88-.05-1.48-.05-.55,0-.99.02-1.33.05-.34.03-.74.05-1.21.05-.06,0-.09-.05-.09-.14s.03-.14.09-.14c.42,0,.79-.08,1.1-.23.31-.16.61-.44.88-.84.27-.41.57-.99.88-1.74l4.9-11.8s.08-.07.15-.07.11.02.13.07l5.44,11.68c.36.78.68,1.39.96,1.82.28.43.56.72.84.88.28.16.59.23.94.23.06,0,.09.05.09.14ZM86.23,30.44l-2.17-4.66-1.94,4.66h4.1ZM103.9,23.49c-.08,0-.13.03-.14.09-.08.25-.26.41-.55.48-.29.07-.69.11-1.21.11-.61,0-1.24.01-1.89.04-.65.02-1.53.03-2.64.03-1.8,0-3.37-.02-4.72-.07-.14,0-.31-.01-.5-.03-.2-.02-.37-.07-.52-.14-.15-.07-.22-.18-.22-.34,0-.08-.05-.12-.14-.12s-.14.04-.14.12c0,.25-.01.57-.04.95-.02.38-.05.78-.08,1.2-.03.41-.07.8-.11,1.16-.04.36-.07.63-.11.82,0,.03.05.05.14.05s.14-.01.14-.05c.17-1.2.48-2.04.93-2.51.45-.47,1.16-.7,2.15-.7.73,0,1.29.02,1.67.06.38.04.62.16.75.38.12.21.19.57.19,1.07v10.86c0,.45-.06.8-.18,1.03-.12.23-.35.39-.69.47-.34.08-.85.12-1.52.12-.03,0-.05.05-.05.14s.01.14.05.14c.42,0,.89,0,1.4-.02.51-.02,1.04-.02,1.61-.02.59,0,1.15,0,1.65.02.51.02.97.02,1.37.02.03,0,.05-.05.05-.14s-.02-.14-.05-.14c-.69,0-1.2-.04-1.54-.12-.34-.08-.56-.23-.67-.47-.11-.23-.16-.58-.16-1.03v-10.81c0-.5.06-.86.18-1.07.12-.21.36-.34.73-.4.37-.05.92-.08,1.65-.08,1.08,0,1.82.23,2.23.7.41.47.61,1.31.61,2.51,0,.03.05.05.14.05s.14-.01.14-.05c0-.19,0-.47.02-.83.02-.37.03-.77.05-1.2.02-.43.04-.84.07-1.23.03-.39.05-.7.07-.94,0-.06-.04-.09-.12-.09ZM109.52,25.09c.1-.23.3-.4.6-.49.3-.09.74-.14,1.34-.14.03,0,.05-.05.05-.14s-.02-.14-.05-.14c-.36,0-.77.01-1.23.04-.46.02-.97.03-1.51.03-.52,0-1.01-.01-1.47-.03-.46-.02-.88-.04-1.25-.04-.05,0-.07.05-.07.14s.02.14.07.14c.59,0,1.04.04,1.35.13.3.09.51.24.61.47.1.23.15.57.15,1.02v10.86c0,.45-.05.8-.15,1.03-.1.23-.3.39-.61.47-.3.08-.75.12-1.35.12-.05,0-.07.05-.07.14s.02.14.07.14c.38,0,.79,0,1.25-.02.46-.02.95-.02,1.47-.02.55,0,1.05,0,1.5.02.45.02.87.02,1.24.02.03,0,.05-.05.05-.14s-.02-.14-.05-.14c-.59,0-1.04-.04-1.35-.12-.3-.08-.5-.23-.6-.47-.09-.23-.14-.58-.14-1.03v-10.81c0-.45.05-.8.15-1.03ZM128.92,28.61c.34.89.5,1.81.5,2.74,0,1.1-.22,2.11-.66,3.05-.44.94-1.04,1.76-1.8,2.46-.76.7-1.63,1.26-2.63,1.65-.99.4-2.05.6-3.16.6s-2.15-.2-3.06-.6c-.91-.4-1.7-.95-2.35-1.65-.65-.7-1.15-1.51-1.5-2.43-.35-.91-.53-1.89-.53-2.92,0-1.27.25-2.38.74-3.33.49-.95,1.15-1.75,1.96-2.38.81-.63,1.7-1.11,2.67-1.42.97-.31,1.93-.47,2.88-.47,1.16,0,2.19.21,3.11.62s1.69.97,2.33,1.68,1.13,1.5,1.47,2.39ZM127.92,32.01c0-1.49-.29-2.79-.86-3.93-.57-1.13-1.37-2.03-2.41-2.67-1.03-.65-2.24-.97-3.64-.97-1.81,0-3.23.56-4.25,1.69-1.02,1.13-1.52,2.66-1.52,4.6,0,1.1.16,2.12.48,3.09.32.96.78,1.81,1.38,2.53.6.73,1.32,1.29,2.15,1.7.83.41,1.75.61,2.77.61,1.1,0,2.09-.25,2.98-.76.89-.51,1.6-1.26,2.12-2.25.52-.99.79-2.2.79-3.62ZM146.97,24.17c-.3,0-.63.01-.99.04-.36.02-.72.03-1.08.03-.39,0-.75-.01-1.07-.03-.32-.02-.64-.04-.95-.04-.03,0-.05.05-.05.14s.02.14.05.14c.66,0,1.11.16,1.36.49.25.33.38.89.38,1.69v10.27l-9.27-11.51c-.36-.45-.58-.77-.66-.95-.08-.18-.22-.27-.42-.27-.09,0-.24,0-.43.02-.2.02-.4.02-.62.02s-.47,0-.75-.02c-.28-.01-.56-.02-.82-.02-.05,0-.07.05-.07.14s.02.14.07.14c.38,0,.77.11,1.18.34.16.09.33.21.5.36v11.24c0,.8-.12,1.36-.36,1.68-.24.32-.71.48-1.4.48-.03,0-.05.05-.05.14s.02.14.05.14c.31,0,.64,0,.99-.02.34-.02.7-.02,1.08-.02s.75,0,1.07.02c.32.02.63.02.93.02.05,0,.07-.05.07-.14s-.02-.14-.07-.14c-.66,0-1.12-.16-1.38-.48-.27-.32-.4-.88-.4-1.68v-10.75c.13.14.26.29.4.45l10.6,13.04s.09.02.16.01c.08,0,.12-.03.12-.06v-12.46c0-.8.14-1.36.41-1.69.27-.33.75-.49,1.42-.49.05,0,.07-.05.07-.14s-.02-.14-.07-.14Z"/>
      <g>
        <path class="cls-1" d="M52.33,56.87h-4.85s-.03-.02-.03-.07.01-.07.03-.07c.23,0,.39-.02.5-.05.11-.04.18-.11.22-.22.04-.11.05-.27.05-.48v-5.08c0-.21-.02-.37-.05-.48-.04-.11-.11-.18-.22-.22-.11-.04-.28-.06-.5-.06-.02,0-.03-.02-.03-.07s.01-.07.03-.07h4.65c.07,0,.11.03.11.1l.02,1.46s-.02.03-.05.03c-.04,0-.06,0-.08-.02-.12-.43-.31-.75-.59-.95-.28-.2-.64-.3-1.1-.3h-.33c-.15,0-.27.02-.36.06-.1.04-.17.1-.21.19-.04.09-.07.2-.07.33v5.02c0,.14.02.26.05.35.04.09.09.16.17.21.07.04.17.07.29.07h.36c.57,0,1.03-.12,1.37-.35s.6-.6.76-1.09c0-.02.03-.03.07-.02.04.01.06.02.06.04-.03.21-.05.46-.08.75-.02.29-.03.56-.03.81,0,.11-.05.16-.17.16ZM51.72,54.42c0-.3-.11-.54-.34-.71s-.56-.26-1-.26h-1.48v-.31h1.49c.43,0,.76-.08.98-.22.22-.15.33-.35.33-.61,0-.02.02-.03.06-.03s.06.01.06.03c0,.24,0,.43,0,.57s0,.28,0,.42c0,.18,0,.36.02.54.01.17.02.37.02.58,0,.01-.02.02-.07.02s-.07,0-.07-.02Z"/>
        <path class="cls-1" d="M56.21,51.12c0,.28.07.52.21.73s.33.4.56.56c.23.17.47.34.73.5.28.18.54.36.8.55.25.19.46.42.62.67.17.25.25.55.25.9,0,.39-.1.73-.31,1.02-.21.29-.49.52-.84.69-.36.17-.76.25-1.21.25-.22,0-.45-.02-.69-.07-.24-.04-.45-.1-.65-.16-.19-.07-.33-.14-.42-.21-.03-.02-.05-.04-.08-.07-.02-.03-.03-.07-.03-.14l-.03-1.74s0-.06.05-.06c.04,0,.06,0,.07.04.11.23.23.47.36.72.13.25.28.49.44.7.17.21.35.39.55.52.2.14.44.2.7.2.17,0,.33-.03.48-.09s.28-.16.38-.32c.1-.15.15-.37.15-.64,0-.34-.08-.64-.23-.88s-.35-.46-.59-.65c-.24-.19-.49-.36-.76-.53-.26-.17-.5-.34-.73-.52-.23-.18-.42-.38-.57-.61-.15-.23-.22-.51-.22-.83,0-.41.12-.74.35-1s.52-.45.88-.58c.35-.12.71-.19,1.08-.19.26,0,.53.02.79.07.26.05.47.1.62.17.07.03.12.06.14.1.02.04.03.08.03.12v1.61s-.02.04-.05.05c-.03.01-.06,0-.07-.02-.04-.09-.11-.23-.19-.43-.08-.2-.19-.41-.32-.63s-.3-.41-.5-.56c-.21-.16-.45-.24-.75-.24-.18,0-.35.04-.5.11-.15.07-.27.18-.36.32-.09.14-.14.33-.14.55Z"/>
        <path class="cls-1" d="M63.59,50.26c-.45,0-.83.15-1.14.44s-.56.71-.74,1.26c0,.02-.03.03-.07.03-.04,0-.05-.02-.05-.04.01-.1.03-.25.04-.43s.03-.39.05-.61c.02-.22.03-.43.04-.64.01-.2.02-.37.02-.5,0-.04.02-.05.06-.05s.06.02.06.05c0,.07.04.13.12.16.08.03.17.05.26.07.1.01.18.02.25.02.63.02,1.36.03,2.21.03.51,0,.92,0,1.23-.02.31-.01.6-.02.89-.02.26,0,.46-.02.6-.05.14-.03.22-.11.26-.22,0-.03.03-.04.07-.04s.06.01.06.04c-.01.12-.03.28-.04.49-.01.21-.02.43-.03.66-.01.23-.02.44-.03.64,0,.19-.01.34-.01.43,0,.02-.02.03-.05.03s-.06-.01-.07-.03c-.11-.58-.32-1-.62-1.28-.3-.27-.67-.41-1.1-.41-.15,0-.26.02-.33.06s-.13.11-.15.2c-.03.1-.04.23-.04.4v5.06c0,.21.02.37.07.48.04.11.13.18.26.22.13.04.32.05.59.05.02,0,.03.02.03.07s-.01.07-.03.07c-.21,0-.44,0-.69-.01-.26,0-.54-.01-.84-.01s-.57,0-.82.01c-.26,0-.49.01-.7.01-.02,0-.03-.02-.03-.07s.01-.07.03-.07c.26,0,.45-.02.58-.05.13-.04.22-.11.27-.22.05-.11.07-.27.07-.48v-5.08c0-.16-.01-.29-.04-.38s-.08-.16-.15-.2-.18-.06-.32-.06Z"/>
        <path class="cls-1" d="M69.74,56.99c-.2,0-.37-.06-.49-.18-.12-.12-.18-.28-.18-.49,0-.19.06-.34.18-.46.12-.12.28-.18.49-.18s.37.06.48.18c.11.12.16.27.16.46,0,.21-.05.37-.16.49-.11.12-.27.18-.48.18Z"/>
        <path class="cls-1" d="M76.05,56.87s-.07-.04-.12-.13-.06-.15-.03-.18c.46-.58.86-1.09,1.19-1.52.33-.43.6-.82.81-1.16.21-.34.36-.67.46-.97.1-.3.15-.62.15-.94,0-.53-.11-.9-.33-1.09-.22-.19-.49-.29-.8-.29-.34,0-.63.09-.85.26-.22.17-.37.41-.43.71,0,.01-.03.02-.07.01-.04,0-.06-.02-.05-.04.08-.5.3-.89.66-1.19.36-.3.81-.44,1.35-.44s.99.16,1.28.48c.29.32.44.73.44,1.22,0,.35-.06.68-.19.99s-.29.6-.5.88c-.21.28-.43.55-.67.81s-.48.51-.72.75c-.23.25-.44.48-.61.72-.03.05-.01.08.05.08.56,0,1.01,0,1.36-.03.35-.02.62-.06.81-.11.19-.05.32-.13.39-.24.07-.1.1-.24.1-.41,0-.02.02-.03.07-.03s.07.01.07.03v1.71s0,.06-.02.08-.04.04-.08.04h-3.72Z"/>
        <path class="cls-1" d="M84.33,57.01c-.49,0-.91-.14-1.26-.43-.35-.29-.62-.69-.81-1.23s-.28-1.17-.28-1.92.09-1.38.28-1.91.46-.94.81-1.22c.35-.28.78-.42,1.28-.42s.9.14,1.24.43.61.69.79,1.23.27,1.18.27,1.93-.09,1.37-.27,1.9-.45.94-.79,1.22c-.35.28-.77.42-1.26.42ZM84.46,56.78c.22,0,.4-.11.53-.32.13-.22.23-.56.29-1.03.06-.47.09-1.08.09-1.83,0-.83-.04-1.51-.12-2.02-.08-.51-.2-.88-.36-1.12-.17-.23-.38-.35-.65-.35-.23,0-.41.11-.55.33-.14.22-.25.57-.31,1.04s-.1,1.1-.1,1.88.04,1.47.12,1.97c.08.5.21.87.39,1.1.18.23.41.35.69.35Z"/>
        <path class="cls-1" d="M90.92,57.01c-.49,0-.91-.14-1.26-.43-.35-.29-.62-.69-.81-1.23s-.28-1.17-.28-1.92.09-1.38.28-1.91.46-.94.81-1.22c.35-.28.78-.42,1.28-.42s.9.14,1.24.43.61.69.79,1.23.27,1.18.27,1.93-.09,1.37-.27,1.9-.45.94-.79,1.22c-.35.28-.77.42-1.26.42ZM91.06,56.78c.22,0,.4-.11.53-.32.13-.22.23-.56.29-1.03.06-.47.09-1.08.09-1.83,0-.83-.04-1.51-.12-2.02-.08-.51-.2-.88-.36-1.12-.17-.23-.38-.35-.65-.35-.23,0-.41.11-.55.33-.14.22-.25.57-.31,1.04s-.1,1.1-.1,1.88.04,1.47.12,1.97c.08.5.21.87.39,1.1.18.23.41.35.69.35Z"/>
        <path class="cls-1" d="M96.88,53.76c-.34,0-.65-.08-.91-.25-.26-.16-.46-.39-.6-.68s-.21-.62-.21-.98c0-.39.1-.73.29-1.03.19-.3.46-.53.79-.69.33-.17.71-.25,1.14-.25.46,0,.86.11,1.18.32s.58.52.76.92.26.87.26,1.42c0,.51-.08,1.03-.25,1.54-.17.52-.41.99-.72,1.42-.32.43-.71.78-1.17,1.05s-.99.42-1.58.46c-.03,0-.05-.02-.06-.05,0-.04,0-.06.02-.07.42-.12.78-.33,1.1-.6.31-.28.58-.61.78-.99.21-.38.36-.8.47-1.26.1-.46.15-.93.15-1.41,0-.37-.03-.7-.08-1-.06-.3-.13-.57-.23-.79-.1-.22-.22-.39-.37-.52-.15-.12-.31-.18-.48-.18-.29,0-.48.14-.59.42-.11.28-.17.66-.17,1.12,0,.56.07.99.22,1.27s.38.43.69.43c.07,0,.16,0,.26-.03s.2-.05.29-.1c.03-.01.05,0,.08.03.02.03.03.06.01.08-.27.27-.63.41-1.09.41Z"/>
      </g>
    </g>
  </g>
</svg>