<?xml version="1.0" encoding="UTF-8"?>
<svg id="Layer_2" data-name="Layer 2" xmlns="http://www.w3.org/2000/svg" viewBox="0 0 67.66 203.15">
  <defs>
    <style>
      .cls-1 {
        fill: #708942;
      }

      .cls-2 {
        fill: #231f20;
      }

      .cls-3 {
        fill: #6f8946;
      }
    </style>
  </defs>
  <g id="Layer_1" data-name="Layer 1">
    <g>
      <g>
        <path class="cls-2" d="M.02,191.76s-.02-.02-.02-.06,0-.06.02-.06c.26,0,.45-.02.57-.05.12-.04.21-.1.25-.21.05-.1.07-.26.07-.46v-4.86c0-.2-.02-.36-.06-.46s-.12-.17-.25-.21c-.12-.04-.3-.06-.54-.06-.02,0-.03-.02-.03-.06s.01-.06.03-.06h4.28c.07,0,.1.03.1.09l.02,1.32s-.02.03-.06.04c-.04,0-.06,0-.07-.03-.05-.38-.19-.68-.41-.88-.22-.2-.52-.3-.88-.3h-.54c-.31,0-.51.04-.62.13s-.16.25-.16.48v4.81c0,.21.03.37.08.48.06.11.17.18.35.23.18.04.44.06.79.06.01,0,.02.02.02.06s0,.06-.02.06c-.23,0-.48,0-.75-.01-.27,0-.57-.01-.91-.01-.24,0-.47,0-.69.01s-.42.01-.6.01ZM3.82,189.48c0-.3-.09-.52-.27-.67s-.47-.21-.87-.21h-1.33v-.24h1.37c.38,0,.66-.06.84-.19.17-.13.26-.31.26-.57,0-.01.02-.02.06-.02s.06,0,.06.02c0,.22,0,.39,0,.5s0,.25,0,.38c0,.16,0,.32.01.48,0,.16.01.33.01.51,0,.01-.02.02-.06.02s-.06,0-.06-.02Z"/>
        <path class="cls-2" d="M8.84,191.89c-.5,0-.96-.09-1.37-.27s-.76-.43-1.05-.74c-.29-.32-.51-.68-.67-1.09-.16-.41-.24-.85-.24-1.31,0-.57.11-1.06.33-1.49.22-.43.51-.78.88-1.07.36-.28.76-.5,1.2-.63.43-.14.86-.21,1.29-.21.52,0,.98.09,1.39.28.41.19.76.44,1.04.75.29.32.51.67.66,1.07.15.4.23.81.23,1.23,0,.49-.1.95-.29,1.37s-.46.79-.8,1.1c-.34.31-.73.56-1.18.74s-.92.27-1.41.27ZM9.21,191.66c.44,0,.84-.11,1.2-.34.36-.23.64-.56.85-1,.21-.44.31-.97.31-1.61s-.11-1.23-.34-1.74-.55-.91-.97-1.2c-.42-.29-.91-.44-1.49-.44-.74,0-1.3.25-1.71.75-.4.5-.6,1.18-.6,2.04,0,.5.06.96.19,1.39s.32.81.56,1.13c.25.32.54.57.87.75.34.18.71.27,1.11.27Z"/>
        <path class="cls-2" d="M19.05,186.41c0-.35-.08-.62-.24-.8-.16-.19-.39-.28-.7-.28-.02,0-.03-.02-.03-.06s.01-.06.03-.06c.16,0,.33,0,.5.02s.36.02.57.02c.17,0,.35,0,.52-.02s.33-.02.48-.02c.01,0,.02.02.02.06s0,.06-.02.06c-.28,0-.49.09-.63.28s-.22.45-.22.8v2.97c0,.53-.1.98-.31,1.35s-.5.67-.88.87c-.38.2-.82.3-1.32.3s-.97-.1-1.37-.3c-.39-.2-.7-.48-.91-.86s-.33-.81-.33-1.32v-3.37c0-.2-.02-.36-.06-.46s-.12-.17-.25-.21c-.12-.04-.3-.06-.54-.06-.02,0-.03-.02-.03-.06s.01-.06.03-.06c.17,0,.37,0,.58.02s.44.02.68.02.48,0,.7-.02c.21-.01.4-.02.56-.02.02,0,.03.02.03.06s0,.06-.03.06c-.24,0-.42.02-.54.06-.12.04-.2.12-.24.22-.04.11-.06.26-.06.46v2.98c0,.84.18,1.47.55,1.88.36.42.87.62,1.51.62s1.1-.19,1.44-.57c.34-.38.51-.92.51-1.6v-2.98Z"/>
        <path class="cls-2" d="M26.98,191.9s-.02.02-.05.03c-.03,0-.05,0-.07,0l-4.95-5.86c-.25-.29-.46-.48-.64-.58-.18-.1-.36-.15-.53-.15-.01,0-.02-.02-.02-.06s0-.06.02-.06c.13,0,.27,0,.4.01s.25.01.37.01c.17,0,.32,0,.46-.01.14,0,.25-.01.32-.01.09,0,.16.04.2.12.04.08.14.22.3.42l4.09,4.94.08,1.22ZM21.67,190.57v-5.12l.27.02v5.1c0,.36.07.63.2.81.13.17.34.26.63.26.01,0,.02.02.02.06s0,.06-.02.06c-.15,0-.3,0-.45-.01s-.32-.01-.51-.01-.36,0-.54.01-.34.01-.49.01c-.01,0-.02-.02-.02-.06s0-.06.02-.06c.31,0,.53-.09.67-.26.14-.17.21-.44.21-.81ZM26.98,186.41v5.49l-.26-.33v-5.17c0-.36-.06-.63-.19-.81-.13-.18-.34-.27-.62-.27-.01,0-.02-.02-.02-.06s0-.06.02-.06c.15,0,.3,0,.45.02s.32.02.5.02.35,0,.51-.02.33-.02.47-.02c.01,0,.02.02.02.06s0,.06-.02.06c-.29,0-.51.09-.65.27-.14.18-.21.45-.21.81Z"/>
        <path class="cls-2" d="M31.31,191.81c-.21,0-.47-.01-.78-.03-.31-.02-.59-.03-.85-.03-.24,0-.47,0-.69.01-.22,0-.42.01-.59.01-.01,0-.02-.02-.02-.06s0-.06.02-.06c.25,0,.43-.02.56-.05s.21-.1.25-.21c.04-.1.06-.26.06-.46v-4.86c0-.2-.02-.36-.06-.46s-.12-.17-.24-.21c-.12-.04-.3-.06-.55-.06-.02,0-.03-.02-.03-.06s.01-.06.03-.06c.17,0,.37,0,.58.02s.44.02.68.02.5,0,.77-.03c.28-.02.51-.03.71-.03.74,0,1.39.14,1.94.42.55.28.98.66,1.29,1.14.31.48.46,1.03.46,1.63,0,.53-.09,1-.28,1.42-.19.42-.44.78-.77,1.08-.33.3-.71.53-1.13.69s-.88.24-1.35.24ZM31.21,191.62c.52,0,.99-.12,1.39-.35.4-.23.72-.57.95-1.02.23-.45.35-1,.35-1.64,0-.61-.11-1.16-.33-1.64s-.52-.88-.91-1.17c-.39-.29-.85-.44-1.39-.44-.42,0-.72.04-.9.13s-.27.28-.27.59v4.73c0,.28.07.49.21.62.14.13.44.2.89.2Z"/>
        <path class="cls-2" d="M42.76,191.64s.05.02.05.06-.02.06-.05.06c-.2,0-.41,0-.62-.02-.21-.01-.42-.02-.62-.02-.22,0-.42,0-.58.02-.16.01-.35.02-.55.02-.03,0-.04-.02-.04-.06s.01-.06.04-.06c.34,0,.55-.05.63-.16.08-.11.04-.32-.12-.65l-2.26-4.69.34-.5-2.05,4.75c-.18.43-.19.74-.03.95.16.21.46.31.9.31.03,0,.05.02.05.06s-.02.06-.05.06c-.21,0-.4,0-.58-.02-.17-.01-.4-.02-.66-.02s-.47,0-.62.02c-.16.01-.35.02-.57.02-.03,0-.04-.02-.04-.06s.01-.06.04-.06c.19,0,.35-.04.49-.11.14-.07.27-.21.4-.4.13-.2.27-.48.42-.84l2.24-5.16s.03-.03.07-.04c.04,0,.07,0,.07.04l2.52,5.2c.17.34.31.61.44.8.12.19.24.33.36.4s.25.11.38.11ZM37.62,188.39l.16-.24h2.16l.07.24h-2.39Z"/>
        <path class="cls-2" d="M44.03,185.41c-.43,0-.77.12-1.02.36s-.43.63-.55,1.16c0,.01-.03.02-.07.02s-.06-.01-.06-.03c.01-.09.03-.22.05-.39.02-.17.03-.35.05-.55.01-.2.03-.38.04-.57.01-.18.02-.33.02-.45,0-.03.02-.05.06-.05s.06.02.06.05c0,.07.04.12.11.15.07.03.15.05.24.06s.17.02.23.02c.6.02,1.31.03,2.11.03.49,0,.88,0,1.18-.02s.58-.02.85-.02c.24,0,.42-.02.55-.05.13-.03.21-.1.25-.22,0-.03.03-.04.07-.04s.06.01.06.04c-.01.11-.03.25-.04.44,0,.19-.02.38-.03.59s-.02.39-.03.57c0,.17-.01.3-.01.39,0,.02-.02.03-.06.03s-.06-.01-.06-.03c-.05-.55-.19-.93-.42-1.17-.23-.23-.57-.35-1.03-.35-.25,0-.43.02-.55.05-.12.03-.2.09-.24.18-.04.09-.06.23-.06.43v4.84c0,.2.02.36.07.46.05.11.14.17.27.21s.35.05.63.05c.01,0,.02.02.02.06s0,.06-.02.06c-.19,0-.4,0-.63-.01s-.49-.01-.77-.01-.52,0-.75.01-.45.01-.65.01c-.02,0-.03-.02-.03-.06s.01-.06.03-.06c.27,0,.48-.02.62-.05s.24-.1.29-.21c.05-.1.07-.26.07-.46v-4.86c0-.19-.02-.33-.06-.43-.04-.09-.13-.15-.25-.18s-.31-.04-.55-.04Z"/>
        <path class="cls-2" d="M50.81,190.91c0,.2.02.36.06.46.04.11.12.17.24.21.12.04.31.05.55.05.01,0,.02.02.02.06s0,.06-.02.06c-.17,0-.37,0-.58-.01-.21,0-.45-.01-.7-.01s-.48,0-.69.01-.41.01-.59.01c-.01,0-.02-.02-.02-.06s.01-.06.03-.06c.24,0,.42-.02.55-.05s.21-.1.25-.21c.04-.1.06-.26.06-.46v-4.86c0-.2-.02-.36-.06-.46s-.13-.17-.25-.21c-.13-.04-.31-.06-.56-.06-.01,0-.02-.02-.02-.06s0-.06.02-.06c.17,0,.37,0,.59.02s.45.02.69.02.49,0,.7-.02.41-.02.58-.02c.01,0,.02.02.02.06s0,.06-.02.06c-.25,0-.43.02-.55.06s-.2.12-.24.22c-.04.11-.06.26-.06.46v4.84Z"/>
        <path class="cls-2" d="M55.99,191.89c-.5,0-.96-.09-1.37-.27s-.76-.43-1.05-.74c-.29-.32-.51-.68-.67-1.09-.16-.41-.24-.85-.24-1.31,0-.57.11-1.06.33-1.49.22-.43.51-.78.88-1.07.36-.28.76-.5,1.2-.63.43-.14.86-.21,1.29-.21.52,0,.98.09,1.39.28.41.19.76.44,1.04.75.29.32.51.67.66,1.07.15.4.23.81.23,1.23,0,.49-.1.95-.29,1.37s-.46.79-.8,1.1c-.34.31-.73.56-1.18.74s-.92.27-1.41.27ZM56.35,191.66c.44,0,.84-.11,1.2-.34.36-.23.64-.56.85-1,.21-.44.31-.97.31-1.61s-.11-1.23-.34-1.74-.55-.91-.97-1.2c-.42-.29-.91-.44-1.49-.44-.74,0-1.3.25-1.71.75-.4.5-.6,1.18-.6,2.04,0,.5.06.96.19,1.39s.32.81.56,1.13c.25.32.54.57.87.75.34.18.71.27,1.11.27Z"/>
        <path class="cls-2" d="M66.78,191.9s-.02.02-.05.03c-.03,0-.05,0-.07,0l-4.95-5.86c-.25-.29-.46-.48-.64-.58-.18-.1-.36-.15-.53-.15-.01,0-.02-.02-.02-.06s0-.06.02-.06c.13,0,.27,0,.4.01s.25.01.37.01c.17,0,.32,0,.46-.01.14,0,.25-.01.32-.01.09,0,.16.04.2.12.04.08.14.22.3.42l4.09,4.94.08,1.22ZM61.47,190.57v-5.12l.27.02v5.1c0,.36.07.63.2.81.13.17.34.26.63.26.01,0,.02.02.02.06s0,.06-.02.06c-.15,0-.3,0-.45-.01s-.32-.01-.51-.01-.36,0-.54.01-.34.01-.49.01c-.01,0-.02-.02-.02-.06s0-.06.02-.06c.31,0,.53-.09.67-.26.14-.17.21-.44.21-.81ZM66.78,186.41v5.49l-.26-.33v-5.17c0-.36-.06-.63-.19-.81-.13-.18-.34-.27-.62-.27-.01,0-.02-.02-.02-.06s0-.06.02-.06c.15,0,.3,0,.45.02s.32.02.5.02.35,0,.51-.02.33-.02.47-.02c.01,0,.02.02.02.06s0,.06-.02.06c-.29,0-.51.09-.65.27-.14.18-.21.45-.21.81Z"/>
      </g>
      <path class="cls-3" d="M62.25,102.52c.11-3.33.01-7.05.05-10.36l-.11-.18c-8.34,8.8-17.38,17.14-26.01,25.66-.26.11-1.53,1.94-1.9,1.49-.95-.98-2.84-2.91-3.77-3.89-4.41-4.32-9.67-9.81-14-14.18-2.47-2.26-5.55-5.13-7.93-7.49.03.16-2.3-2.7-2.14-1.72.03,1.87.23,6.79.24,8.72.09,4.12.23,9.14.27,13.26.04,1.42-.15,3.92.08,5.33,2.55.33,5.28.32,7.84.27,3.62.36,7.19-.02,10.96-.01,3.06.1,6.93.26,10,.13,8.74-.45,17.83.13,26.58-.06,0-4.23-.09-12.74-.17-16.96ZM18.41,103.26c.63.77,1.06,1.62,1.19,2.63-.22-.07-.57,0-.66-.23-.98.19-.65-.52-1.38-1.57-.83-1.17-1.97-2.11-3.45-2.28-.11-.14-.16-.36-.18-.6-.08-.11-.14-.26-.11-.4-.04-.09-.05-.21-.02-.38,2.39.33,3.17,1.09,4.6,2.83ZM6.83,98.16c-.04-2.15,2.64-2.53,4.16-1.58,2.53,1.44,2.46,5.07,3.26,7.27,1.71,3.63,11.06.2,10.87,9.96h-.85s0-.03,0-.03c-.25-.02-.6-.14-.86-.16.84-7.26-9.73-8.24-11-1.33,0,.59-.26.59-.79.46,0-.02,0-.05.01-.07-.04,0-.07,0-.11,0,0,0,0,0,0,0-.14.03-.43-.06-.59-.2.28-2.13.75-4.41,2.42-5.9-2.94-2.01-.78-5.31-2.42-8.17-.41-.67-1.11-1.02-1.84-1.21-.86-.39-1.8,1.25-.94,1.92-.72-1.61.74-2.43,1.73-1.31.96,2.23-3.21,2.69-3.07.34ZM31.46,118.02c-.17,1.45-2.31,1.75-2.95.54-.68-.98.23-2.6,1.43-1.9.97.65.27,1.77-.81,1.64,2.28.64,1.36-2.82-.3-3.01-3.95-.96-7.69,2.29-10.77-2.51-1.66,2.25-4.48,2.55-7.05,2.07-1-.16-1.62-.96-1.54-.43.22,1.11-.22,2.35-.55,3.4.98-.51,2.33-.64,3.35-.57-.08-.4-.4-.31-.66-.92l-.46-1.11c3.44-.02,1.48,2.06,6.35.88,1.62-.38,2.81,2.48.97,2.82-1.55.43-2.02-2.09-.27-1.89-2.43-.54-1.1,3.31.96,1.67.55-.78,1.61-.9,2.34-1.47,1.84-1.6.93-1.39,3.16-1.54-2.53,6.15-9.26,2.96-14.12,3.04-.96.17-2.41.46-3.4.36,1.44-3.28.45-5.68,0-8.98-.11-4.37-1.08-7.97,4.2-9.68.08.28.11.55.05.81.37,1.22-1.26.64-2.54,3.34,3.55.89-.07,4.27.71,6.54.76,3.16,5.28,2.06,7.15.53,2.42-1.85,1.34-4.02,2.18-3.69.07-.02.15-.01.21,0h0s.66.15.66.15c.01,10.75,11.31,2.04,11.72,9.94ZM52.41,102.37c1.45-1.15,4.46-2.06,3.88-.61h0c-.03.18-.06.39-.12.55-2.66-.12-3.78,1.61-5,3.56,0,0-1.2.09-1.2.09.62-1.73,1.19-2.47,2.45-3.59ZM42.94,111.49s-.07.05-.11.08c.04-.03.1-.07.11-.08ZM42.96,111.62s-.01.09-.02.11c.01-.03.02-.07.02-.11ZM62.03,119.33l-1-.13c-3.17-2.44-5.52-.12-8.61.06-3.42-.07-6.27.7-8.24-2.85.58.1,1.44-.09,1.99.1,1.06.75,2.11,1.4,3.36,1.75,0-.01.01-.05.02-.07-.34-3.32,4.36.47,5.77-2.78.28-.54.41-.45,1-.53,0,0,0,0,0,0,.13,0,.62-.15.75-.2-.93,2.95-.95,1.25,2.23,2.22.21.04.4,0,.3-.27-.46-1.36-.16-1.98-.14-3.34-2.7,1.58-6.58,2.25-9.18-.02-.63,2.89-3.78,3.26-6.31,2.8-1.23-.2-2.66-.69-3.88-.36-1.68.41-1.28,3.67.27,2.23-1.2.86-1.83-1.22-.65-1.61,1.77-.19,1.71,2.46.22,2.86-1.09.36-2.15-.54-2.19-1.63.44-5.27,8.05-.98,10.18-5.24,1.39-2.08.75-4.41,1.46-4.47.15,0,.48-.06.63-.05h0c.06,0,.57.02.65.02-.66,4.18,6.78,7.6,8.42,3.18.22-1.03-.19-2.36-.47-3.35-.25-1.13.67-2.39,1.93-2.08-.38-1.34-1.04-1.94-2.22-2.66l-.03-.8s0,0,.01,0c0-.04-.01-.09-.01-.13,0,0-.02-.01-.02-.02v-.67c7.47,3.42,1.27,12.23,3.93,17.9l-.17.14ZM61.79,98.89c-1.03,1.56-3.88.35-2.8-1.47.93-1.01,2.59-.03,1.76,1.26,1.39-1.71-1.68-2.76-2.41-.46-1,2.72.57,6.79-1.97,8.89,1.54,1.12,1.03,3.69,1.11,5.31-.13.22-.52.24-.76.3h0s-.69.05-.69.05c.06-7.75-11.7-6.79-11.37,1.34l-1.7.1c-.24-3.36,2.26-5.47,4.68-7.21,2.32-1.31,5.59-.4,7.62-2.29,2.22-2.2.49-5.56,2.59-8.01,1.49-2.26,5.69-.28,3.93,2.18ZM63.08,65.69c-.01-1.77,0-4.84,0-6.62-10.74.09-21.72.25-32.45.38-4.31-.15-9.33-.06-13.67.03-3.23-.06-7.27-.01-10.5.16-.08,4.25.16,9.23-.08,13.48.12,4.91.2,10.61.11,15.52,4.11-3.61,7.79-7.85,11.8-11.58,5.33-5.36,11.25-10.98,16.09-16.8,9.51,8.83,18.87,18.45,28.48,27.19.14-7.11.34-14.67.22-21.75ZM10.79,84.42c-3.12,3.27-6.19-3.1-1.7-3.09,1.59.33,1.46,3.01-.29,2.77-.93-.08-1.11-1.53-.16-1.73-.6-.21-.91.72-.71,1.17,1.15,2.01,3.38-.56,3.03-2.15-.35-3.83-1.17-6.87,1.54-9.73-2.1-2.46.12-6.01,1-8.6-1.96.27-3.11-.13-4.9-.79.67,1.48,1.27,2.34,1.38,4,.79-.45,1.49-.73,2.34-.89-1.02,3.19-.5,1.09-2,3.26-.83,1.56-.21,2.82-.38,3.52-.23.92-1.22,1.7-2.21,1.43.3,1.48,1.34,2.61,2.56,3.42.03.47.12,1.66.17,2.11-7.63-2.3-1.53-10.23-3.13-15.87-.25-.9-.89-2.4-.71-3.34.07-.08.34-.07.43-.04,3.44,1.49,7.12,1.05,10.18-.16,4.55-.11,7.05-1.05,9.15,4.03-.57.04-1.04,0-1.6-.1-.59-1.42-2.08-2.87-3.66-2.94.34.62.28,1.18-.13,1.65-1.14,1.31-2.92.05-4.86.66-2.21,1.08-2.55,4.32-1.74,6.42.53,1.33,2.3,1.87,3.6,2.13.38.1.1,1.05.13,1.3-.05.57-1.68-.24-3.58,1.39-3.54,2.48-.84,7.41-3.75,10.16ZM25.53,69.51c-1.31,1.74-3.07,2.94-5.26,3.25-.03-.3-.02-.48,0-.65.02,0,.03,0,.05-.01-.02-.06-.02-.12-.02-.19,0,0,0,0,0,0-.06-.2.11-.39.33-.45,2.9-.49,4.17-3.02,4.8-5.56.2,0,1.29-.31,1.46-.14.24,1.33-.54,2.72-1.36,3.76ZM31.43,62.95c-1.19,2.03-3.55,2.34-5.71,2.58-3.96.28-5.85,4.1-5.88,7.68-.38,3.59-3.62,6.05-7.15,6.02l-.02-.53h.05c0-.05,0-.1.01-.14-.07-.12-.03-.46.09-.58,6.26-.48,7.92-9.41,1.43-11.2l.32-1.65c.84-.67,3.96.21,4.69,1.1,1.76-4.02,6.91-1.29,9.96-2.51,2.52-1.37.78-3.5-.2-2.55,1.64-.55,1.77,1.89.48,2.02-1.15.08-1.61-1.33-1.21-2.21,1.36-2.64,4.71-.38,3.13,1.97ZM57.18,78.39c-3.34.35-6.68-1.75-7.27-5.18.28,0,.51,0,.76.04h0c.06,0,.13.02.18.04.27-.04.52-.03.77.04.82,2.75,4.26,3.22,5.27,3.22.11.17.41,1.41.28,1.83ZM62.5,82.02c-.41,2.35-3.71,2.24-4.64.29-1.16-2.38.59-5.68-1.55-7.84-.56-.72-1.67-1.46-2.64-1.46-2.65.1-5.87,0-7.82-2.08-.6-.64-1.7-1.6-2-2.45-.42-1.02-.83-3.05-.09-3.89.55,0,1.04.09,1.55.26-1.61,8.08,11.86,9.03,11.14.77h.67s0,0,0,.01c.04,0,.08,0,.11,0h0c.31.04.62.12.87.24.4,1.9-.03,4.11-1.22,5.63,3.03,1.75,2.58,5.75,1.6,8.59-1.1,2.99,3.91,3.27,2.57.64.53,1-.39,1.92-1.38,1.66-1.26-.34-.82-2.16.2-2.49,1.29-.56,2.8.71,2.6,2.09ZM62.85,73.16c.13,1.35-3.06,5.08-3.41,4.29.08-.54.07-1.43.07-1.98,1.04-.73,1.54-1.9,1.85-3.09-.82-.2-1.68-.31-1.69-1.42.17-1.89.63-4.14-1.29-5.2-3.71-1.62-7.23,1.58-7.1,5.39l-.83.09v-.07c-1.68.27.33-3.29-3.45-5.78-2.28-2.07-5.41-.25-7.97-1.33-1.6-.7-1.86-3.35-.35-4.29,1.68-1.01,3.77,1.29,2.23,2.69-.54.46-1.74.47-1.86-.39-.28-.85.55-1.74,1.4-1.3.21-.08.09-.14-.05-.18-1.54-.52-1.91,1.48-.98,2.37,1.53,1.6,4.68-1.18,8.66.01,2.22.67,2.33,2.4,2.78,2.12,2.54-1.78,6.69-1.58,9.47-.29-.06-1.38.2-2.69.56-4.01-4.05,2.45-4.95-.55-3.39,2.9l-1.72-.11c-2.56-3.65-5.65.91-6.5-2.91-.93.32-2.01.89-2.6,1.67-.24.11-1.79.12-2.08.17,1.9-3.43,4.34-3.16,7.7-3.13,1.28.24,6.09,1.49,8.48.11.37-.36,1.69-.21,2.15-.23-.75,2.89-1.15,5.73-.41,8.63.59,1.68.5,3.51.36,5.27ZM13.34,40.9c2.53-3.31,2.44-3.33,3.31-7.46.11,1.72-.49,1.98.04,3.93.53,2.21,2.81,3.26,2.11,5.65-.56.82-.93,2.1-2.15,2.08,3.34-1.13.32-3.82-.83-5.42-.78,1.24-2.86,2.77-2,4.4-1.04-.64-1.02-2.32-.47-3.19ZM62.85,27.93c-2.95-11.79-12.25-20.9-23.26-25.5-.39-.2-4.56-2.37-4.88-2.42,0,0-1.63.85-1.63.85-4.3,1.97-9.83,4.09-13.45,7.17-8.2,6.35-14.69,15.86-14.11,26.61.19,3.6.14,10.25.11,13.93.16,1.4-.31,5.96.64,6.61,2.57-.02,6.35.09,8.93.27,2.17-.02,5.13-.11,7.28-.05,12.51.05,25.39.14,37.9-.04.11-.1,2.79.14,2.66-.35,0,0,.06-7.78.06-7.78-.07-2.97.08-8.94.24-11.88-.16-3.13.39-4.24-.49-7.43ZM61.25,32.06c.05.5-.79.48-1.09.59-1.34-3.72-6.22-2.48-9.28-2.48,4.64-4.67-4.76,3.63-10.61-5.41,3.88,1.75,7.71,1.43,11.77.81.77.02-1.43-1.64-1.28-2.19,4.9.09,10.12,3.46,10.48,8.69ZM61.21,38.67c-1.45,3.35-2.59,6.47-6.75,6.86-.67.52,1.55-.08,1.85-.17,1.42-.69,3.4-.45,4.05,1.15.27.54-.04.59-.04.97-.01.02-.12.03-.14,0-.06.08-.16.09-.25.12,0,0,.01.01.02.02-1.41.14-1.85-.47-3.54-.66-1.73-.17-4.65-.91-4.21-3.2.2-.52.63-.44,1.06-.31.01,0,.03-.01.04-.02.06-.15-.03-.24-.2-.27-1.48-.25-1.37,1.99-.51,2.64-1.36.13-2.09-.8-2.58-1.04-1.79-.62-4.31-1.18-4.89-3.58-.1-.32-.6-2.32-.03-1.94,1.92,1.12,3.12,2.07,3.66,4.34,0,0-.01,0-.02,0,.02.05.03.1.04.15.12.06.23.11.35.17-1.21-3.62-2.8-4.52-.71-8.63,2.81,4.58.31,3.64.88,7.06.16-2.19,1-4.34,3.13-5.24.27.49.43,1.44.93,2.26-1.08,1.25-2.25,1.14-3.01,2.78-.15.31-.69,1.39-.31,1.49.47.11.26-.77,1.23-1.4.33-.18,1.32-.97,1.73-.95.91,1.17,2.04,3.93-.6,3.31,1.4,1.08,3-.99,2.47-2.64-.59-1.85-1.36-2.29-1.98-4.33-.59-1.88.53-3.75,1.89-4.98-.12,5,5.03,6.88.31,11.69.81-.43,1.37-1.35,1.85-2.13.54-2.1,1.69-3.69,4.28-3.49ZM54.87,53.89c-1.51-.71-1.89-2.09-2.35-3.58l.51-.52c3.02,2.75,7.36,2.37,7.84-2.2,1.88,4.24-1.68,8.3-6,6.3ZM44.88,49.34c-.15-.83-.9-1.74-1.38-2.41-1.9-2.39-.47-5.32.94-7.55-1.07,4.62,1.23,6.79,1.7,8.65.16,1.36.37,2.68,1.07,3.89-1.2-.35-2.04-1.44-2.32-2.59ZM29.08,42.66c-.76-1.68-.9-3.75-.31-5.53l.1-.3s.73,1.16,1.28,1.56c-1.35,4.71,4.01,8.1,7.64,4.97.96.01,2.2-.4,3.11-.69-2.05,4.46-9.83,4.61-11.82-.02ZM25.15,51.48c-.33-.22.58-1.06.64-1.25.92.53,2.9,2.94,2.64,3.54-.13.14-.88.06-1.05.08-.31,0-.66-1.43-2.23-2.37ZM24.08,53.48l-1-.29c-.87-5.61,3.42-5.06,2.46-11.07,4.1,4.82-.65,7.2-1.46,11.36ZM18.69,49.62c1.42-.48,2.88-.55,4.35-.19l-.28,1.04c-1.75-.44-2.5-.25-4.28.21-.14-.15-.17-.94.21-1.07ZM23.85,32.38c-.88,2.13-2.7,3.43-3.67,5.53l-.71-1.26c2.01-2.36,3.89-4.83,4.38-8l1.34-.59c.02,1-.2,1.94-.58,2.83.75.11,1.68.33,2.23.87l-.92,1.44c-.69-.31-1.35-.59-2.08-.81ZM26.41,32.85c1.79-2.79,4.96-2.91,8.07-2.47-.65.47-1.1.75-1.48,1.37-4.77-1.46-8.38,4.72-4.8,8.11-.19,1.32.64,2.93.64,2.93-3.94-1.45-4.31-6.77-2.43-9.93ZM26.31,22.56c-.5.77-.93,1.39-1.61,2.06-.12-.16-.27-.56-.27-.57-.97-2.06,1.01-3.23,2.4-4.03l.55.86-1.08,1.67ZM21.55,22.19l1-.69c1.02,1.24,1.96,2.96,2.34,4.52-.3-.04-1.33.2-1.46-.23-.5-1.45-1.03-2.35-1.88-3.6ZM16.33,21.81c-.08-.1-.26-.37-.18-.46.93-.82,1.53-1.95,1.84-3.18.14,0,.48-.01.64,0,.1,0,2.09,3.6-.01,4.37-.88.32-1.72-.01-2.29-.71ZM23.78,16.36c.68.94.21,2.39-.76,3.01-1.21-.98-2.29-1.48-3.64-1.91l.02-.73c1-.67,3.41-1.32,4.37-.37ZM23.04,15.63c-1.27.03-2.57.33-3.69.84l-.47-.44c1.78-5.79,5.71-3.22,4.16-.39ZM19,16.44c.71.75-.49,1.96-1.25,1.32-.92-.81.42-2.17,1.25-1.32ZM18.83,18.07l.47-.5c.83.33,3.33,1.21,3.53,2.14.11,1.36-1.17,2.48-2.68,2.24-.61-.05-.2-2.59-1.31-3.88ZM27.22,19.84c-.56-.87-2.35-3.65-2.93-4.56.52-.05,1.58-.18,2.09-.25,0,0,.02,0,.02.01,4.93-.14,10.48-.15,15.42-.12.29.03,2.22-.08,2.87-.09-2.24,4.19-4.99,8.38-7.67,12.32,0,0-2.46-.9-4.94.38-1.11-1.77-3.73-5.9-4.87-7.7ZM33.44,9.91c.1-.19,0-1.49.38-1.39.07-.08.19-.12.29-.1,0,0,0,0,0,0,.39-.03.75-.02,1.13,0-.19.7,1.6,6.99.64,6.17-.06.04-.13.05-.2.05,0,.01,0,.02,0,.04l-2.16.03v-.04c-.08.03-.19.03-.27,0-.16.05-.39.05-.51.03,0-1.63.46-3.17.68-4.78ZM48.06,11.86c-.16,1.73.24,3,1.02,4.5l-.67.69c-1.34-.42-4.4-2.13-3.17-3.86.74-.9,1.53-1.54,2.81-1.33ZM55.15,18.53c-1.28,2.24-1.89-.6-4.62-.98l-.05-.83c1.84-1.3,5.61-1.34,4.67,1.81ZM50.57,17.69c1.25.52,3.89,1.38,3.25,3.17-.6,1.31-2.26,1.96-2.28,1.27-.05-1.38-.69-2.65-1.38-3.88.09-.12.33-.45.41-.57ZM48.83,22.86c-.17-.1-.38-.29-.57-.44.61-1.19.92-2.42,1.03-3.86l.75-.17c1.04,1.75,2.55,5.66-1.21,4.46ZM54.1,30.26c.05,0,.1.01.13.02.19-.11.47-.1,1.3-.02-.78,1.17-2.4,1.58-3.26,2.71-.17-.47-.13-2.59.53-2.63l1.24-.08s0,0,0,.01c.02,0,.04,0,.07,0ZM56.76,37.91c-.29-.47-.91-1.68-1.17-2.18.46-1.12.97-2.1,1.81-3.02.35,1.96.42,3.52-.64,5.19ZM52.32,36.42c.51.38-.71.81-.97.95-6.75-5.21-1.97-5.34-6.52-3.39-.22-.64-.4-1.09-.69-1.72.56-.48,1.73-.84,2.42-1.12-.22-.6-.36-1.05-.45-1.7,2.67-.18.14,2.62,6.21,6.99ZM44.73,34.66c1.16,5.99-4.88,10.17-10.26,7.87,1.1-.57,1.18-.63,2.01-1.43,4.42,1.29,8.05-2.08,6.64-6.59-.4-1.54-1.09-1.53-1.31-2.6-.44-.95-.78-2.08-1.61-2.9.75.21,1.21.7,1.74,1.16,1.36,1.21,2.54,2.61,2.79,4.49ZM41.81,43.22c-.47.42-.93.79-1.57,1.06.62-.85.59-.88,1.06-1.75.6-.33,1.1-.67,1.69-1.09-.15.76-.59,1.34-1.17,1.78ZM30.52,41.42c2.8.26,5.11-1.16,5.42-3.92.13-.02,1.14-.17,1.34-.24.68-.21,1.25-.72,1.48-1.49,1.95,1.18.09,2.61-1.4,2.82-.11.92-.5,1.72-1.09,2.35-.98,1.05-1.84,1.38-2.49,1.56-.91.25-1.53.32-2.41.37-.26-.14-.78-1.04-.85-1.46ZM28.36,35.05c.11,1.03.46,1.4.27,1.81-.32.78-.41,1.49-.5,2.52-1.71-1.46-1.26-4.79.26-6.3-.04.72-.1,1.33-.03,1.98ZM28.76,32.79c.6-.4,1.2-.75,1.87-.89-.46,1.27-.5,1.33-.59,2.84-.07,1.22,1.1,2.06,2.03,2.6,0,0-.09.56-.1.8s0,.61,0,.61c-2.82-.38-3.91-3.46-3.22-5.96ZM33.8,27.27c4.76-1.07,9.48,3.86,7.61,8.51-.18-.66-1.16-1.52-1.16-1.52,1.23-4.38-5.21-7.79-8.15-4.4-.41.16-1.72.22-2.17.28.76-1.62,2.11-2.62,3.87-2.88ZM29.74,30.03c-.22.22-1.5.71-1.74.85.53-.86,1.63-1.69,2.57-2.22l-.83,1.37ZM41.64,36.54c-.26-.69.33-1.02.35-1.87l.03-1.6c1.53,1.72,1.59,5.21-.18,6.84.15-1.19.2-2.27-.21-3.37ZM39.92,37.22c-.16-1.15-1.15-1.9-2.15-2.34-.07-.25-.13-1.37-.09-1.49,2.11.23,3.6,2.04,3.96,4.05.31,1.81.05,3.47-2.04,3.56.59-1.4.63-2.33.32-3.77ZM39.19,41.05c-.53.05-2.11.11-2.45-.27.56-.64.72-1.45.89-1.92,1.27-.17,2.06-1.47,2.15-.92.15.9.08,2.4-.59,3.11ZM35.6,37.78c0,.75-.44,1.4-.94,1.9-.81-.51-1.14-1.68-.91-2.63-.81.13-1.47.14-2.13-.29-.21-.72,1.29-1.59,2.02-1.48-.16.63-.19,1.12.17,1.75,2.72,1.25,2.91-3.01.1-2.1.03-3.36,2.18-2.61,2.04.25,3.76-.6,2.89,1.99-.36,2.08v.53ZM32.29,37.37l1.04.02c.2.97.3,1.89,1.08,2.73-.73,1.19-1.72.18-2.05-.76-.06-.17-.24-.82-.07-1.98ZM33.75,35.87c.31-1.52,2.47-.74,1.87.69-.64.79-2.1.41-1.87-.69ZM36.78,32.16c.67.72.74,1.74.75,2.67l-1.27-.03c-.17-.95-.41-1.88-1.21-2.52.75-.5,1.25-.76,1.74-.12ZM36.7,31.66c2.29-.49,3.73-.43,3.37,2.43-.83-.35-1.56-.94-2.52-.92-.24-.56-.48-1-.85-1.5ZM37.87,29.55c-1.07.09-1.97.2-2.93.66l-2.51-.35c1.11-1.43,4.05-1.31,5.44-.31ZM35.32,30.27c1.09-.31,2.49-.88,3.46-.03.17.15.74.83.84,1.17-2.51-.63-6.35.28-5.91,3.55-1.13.11-1.96.46-2.43,1.67l-.64-.77c-.65-.94.85-2.05,1.92-2.15,0-.08,0-.18.02-.24.2-1.57,1.32-2.69,2.74-3.19ZM32.65,32.39c-.12.29-.21.58-.3.97-.63.16-1.64.6-2.03,1.38-.07-.74.34-2.92,1.08-2.96s1.4.18,1.4.18l-.15.43ZM30.34,38.49c2.64.82,1.09.7,2.7,2.34-2.58.8-3.2.27-2.7-2.34ZM34.22,42.65c.91.49,1.87.69,2.97.72-1.37,1.41-4.25,1.13-5.68-.22.98-.08,1.82-.2,2.71-.5ZM41.79,21.95c1.56.6,4.66.79,5.22,2.68.14-.66-.01-1.93,1.04-1.8.84.37-.24,2.21-.18,2.98l-1.06.02-.11-.31c-.07.11-.15.22-.29.1-1.59-1.15-3.91-1.57-4.61-3.68ZM45.35,19.66c1.09-.46,2.22-.82,3.09-1.61.31.25.87.48.66,1.01-.15.76-.54,2.99-1.25,3.28-1.6.75-3.13-1.31-2.5-2.68ZM50.16,17.78c-.41.86-2.01.38-1.47-.63.44-1.11,2.06-.45,1.47.63ZM44.78,15.22c.04-.07.17-.2.21-.23.67.84,2.31,2.14,3.4,2.17l-.02.74c-1.31,1.06-5.22,2.78-4.82-.34,0,0,1.23-2.34,1.23-2.34ZM29.13,44.28c-.7-.55-1.42-1.18-1.78-2.02.53.36,1.06.6,1.61.81.46.64.87,1.34,1.53,1.84.37.28-.07.45-1.36-.63ZM44.33,48.81c.15.31.43.82.34,1.18-1.95.95-2.38,2.2-3.69,3.81-1.34-1.49,1.89-4.55,3.35-4.99ZM48.52,50.45c-1.2-.7-1.99-.09-2.05-1.83,1.3-.23,5.63,3.23,2.05,1.83ZM49.68,49.83c-.07-1.93-.68-3.64-1.4-5.42l1.51.54c.54,1.6,1.1,3.12,1,4.86-.35.14-.94.74-1.1.02ZM58.35,26.09c-.59-.58-1.42-1.08-2.04-1.52-1.73-.5,1.06-2.5-.56-6.72,2.8,2.1,3.23,4.89,2.6,8.25ZM53.77,12.81c.92.62,1.6,2.18.87,3.09-1.55-.63-2.85-.11-4.17.66-1.34.09,1.3-5.27,3.3-3.75ZM52.19,12.46c-1.28.91-2.03,2.3-2.3,3.83h-.59c-2.96-5.76,1.92-7.42,2.9-3.83ZM41.93,5.33c3.08.54,4.36,3.22,4.76,6.09.07.27.01.36-.27.44h0s-.06.03-.1.04c0,0,0,.01,0,.02l-.54.31c-.28-1.98-3.37-4.95-4.81-2.84-.41,1.98,2.23,1.81,3.41,1.46-1.83,3.45-6.25,3.38-6.8-.82-.34-1.26.39-2.08.55-2.68.35-1.64,2.23-2.45,3.79-2.03ZM32.88,1.32c.06-.11.17-.18.29-.18l.8-.53c.3,1.97,1.26,2.16,1.63.05,1.17.37.33,2.32.38,3.11-.03,2.63.25,2.25-.77,4.34h-.68s-.01-.03-.01-.05c-.17.02-.69.17-.86.26-1.48-2.02-.81-2.1-.77-4.4.06-.38-.61-2.44,0-2.59ZM19.86,10.97c1.45-3.1,5.59-7.43,9.23-5.34,2.45,1.97,1.85,5.04-.21,6.92-.19.21-.61.35-.9.35-3.19.31-4.07-1.64-4-4.47.63-1.81,1.08,2.38,3.27,1.22.61-.36.58-1.19.09-1.62-2.72-2.03-5.64,1.42-6.78,3.78-.15-.17-.88-.53-.7-.85ZM17.67,11.75c.19-.74,3.03-.54,2.83,1.01-.74.96-1.39,1.97-1.68,3.2-.41,0-.66.03-1.07.13-.45-1.37-.68-2.96-.08-4.34ZM14.36,13.48c.59-.84,1.67-2.32,2.78-1.64.06,1.29-.28,3.1.55,4.31l-.39.39c-1.26-.56-3.11-1.42-2.95-3.06ZM12.49,16.35c.07-.99.69-1.77,1.65-1.97.8,1.1,1.76,2.03,3.22,2.22-.34.62.05,1.14.47,1.56-1.55,5.2-5.33,3.01-4.24.38,1.05.1,2.76-.56,3.59-1.14-1.63.57-4.77,1.91-4.7-1.06ZM12.01,26.96c.03.12.1.46.01.56l-.97,1.12s0,0,0-.01c-.04.06-.08.1-.14.14h0c-.37.49-1.11,1.48-1.48,1.96-.83-4.39.6-8.35,3.44-11.64.37,1.19-.59,1.06-1.02,3.17-.32,1.56-.27,3.16.17,4.71ZM5.85,33.09c.12-.71,2-.18,2.23.31,2.49-5.13,6.09-7.7,11-10.22.45,1.19-1.07,2.52-.54,2.55,3.34.06,6.85,1.39,10.03-.36-.11.64-2.44,1.88-3,2.16-1.87,1.1-4.46,1.51-6.44,1.36.73.54,1.28,1.08,1.61,1.91-8.32-.27-14.32,1.14-12.06,10.93-.33.03-.87.11-1.21.08-1.31-4.48,1.44-8.04-1.61-7.34l-.02-1.37ZM13.49,33.55l-.04,1.38c-1.09-.67-2.14-1.23-2.65-2.26,1.62-.79,2.54-1.48,2.69.89ZM6.06,42.88c5.09-2.88,3.92,1.68,6.56,1.8-3.97-2.29-2.19-6.24-2.76-10.01,5.09,3.09-.55,6.37,3.1,9.7-3.16-4.19.93-8.21,3.61-11.27,2.82,3.62,6.12,7.85,1.66,11.78l.1.1c1.24-.88,1.82-2.29,2.2-3.76.27-.9-.23-2.7-.07-3.1.61-1.49,1.02-1.92,2.12-3.2.74,2.02.26,4.24-.66,6.01-.72,1.72-1.46,3.61-3.26,4.47,3.46-.73,1.99-5.93,6.87-4.98-1.11,4.05-6.39,7.82-10.01,4.56.83-.14,1.79-.92,1.25-1.75-1.06-1.01-2.7.63-1.33,1.55-3.87,1.96-6.35.9-9.36-1.9ZM15.18,44.31c-.55-.82.8-1.67,1.42-.94.49.81-.94,1.79-1.42.94ZM9.1,52.68c-1.56-1.59-1.84-4.25-1.15-6.31,1.29,2.98,4.22,5.31,7.5,4.5.34-.17.86.49,1.08.66-1.88,2.03-5.17,3.49-7.43,1.15ZM27.46,55.26h-2.09c-5.51,0-10.21-5.02-13.61-9.09.25.02,1.49-.37,1.65-.06.91,1.33,2.41,2.87,3.67,4.03.23-1.36.09-2.58-.12-3.88.33.09,1.18-.01,1.24.47.22,1.37,0,2.78-.02,4.15,2.81,1.91,6.64,3.63,10.1,3.21-.16.27-.37,1.22-.81,1.18ZM29.02,53.49c.9-1.62,2.59-4.95,3.37-6.63.25-.52.3-.81.74-.76,1.08.14,2.26.18,3.39.05.85,1.34,1.55,2.92,2.3,4.31,0,0,1.44,2.7,1.44,2.7.11.26.69,1.13.63,1.44-1.34-1.87-1.31-1.55-3.44-2.23.81-1.16-.08-3.09-1.49-3.47-.12-1.22-.25-1.46-1.17-2.34-.72.6-1.32,1.4-1.18,2.38-1.49.38-2.18,2.11-1.58,3.51-1.98.31-2.45,1.26-3.8,2.47.2-.56.53-.95.79-1.44ZM33.82,48.8c-.15-.8.41-1.46.96-2.02.61.55,1.44,2.01.55,2.35,1.57-.48,3.11,2.93,1.65,3.07-.11-.05-1.96-.68-2.01-.71-.59-.11-2.18.66-2.73.86-.65-1.28.34-3.38,1.89-3.19l-.3-.36ZM34.97,52.78c-1.17.07-2.2.9-3.38,1.09-1.18.17-1.89.86-3.05,1.2,1-1.43,2.14-2.2,3.91-2.59.72-.24,1.91-1.03,2.71-.7.88.31,2.85.98,3.73,1.23.9.16,1.6,1.45,2.12,2.09-2.33-1.62-3.11-.84-6.05-2.32ZM47.16,53.83c-1.86.92-3.46,1.44-5.58,1.33l-.63-1.19c2.94-.13,5.77-1.11,8.15-2.83,1.77-.8,3.55-2.93,4.31-4.71l1.23.58c-1.42,3.12-4.63,5.11-7.48,6.82ZM59.27,45.09c-.63-.17-1.17-.21-1.87-.22,2.15-1.37,1.92-3.48,5.01-1.72-.74.6-2.15,2.03-3.14,1.94ZM63.06,35.14c-.72.47-4.15-.41-1.77.55-.8,2.75-.74,2.53-3.13,3.54.77-1.27,1.96-3.24,1.96-4.68,0-.39-.42-1.5.11-1.71.98-.39,1.52-.33,2.64-.36.56,0,.12,2.38.2,2.66ZM34.97,92.98l-2.4-2.4,2.37-2.4,2.43,2.38-2.41,2.42Z"/>
      <g>
        <path class="cls-1" d="M22.68,203.06h-2.9s-.02-.01-.02-.04,0-.04.02-.04c.14,0,.24-.01.3-.03.07-.02.11-.07.13-.13.02-.07.03-.16.03-.29v-3.04c0-.13-.01-.22-.03-.29-.02-.06-.07-.11-.13-.13-.07-.02-.17-.04-.3-.04-.01,0-.02-.01-.02-.04s0-.04.02-.04h2.79s.07.02.07.06v.87s0,.02-.02.02c-.02,0-.04,0-.05-.01-.07-.26-.19-.45-.35-.57-.17-.12-.39-.18-.66-.18h-.2c-.09,0-.16.01-.22.04s-.1.06-.13.12c-.03.05-.04.12-.04.2v3.01c0,.08.01.15.03.21.02.06.06.1.1.13.04.03.1.04.17.04h.22c.34,0,.62-.07.82-.21.21-.14.36-.36.45-.65,0-.01.02-.02.04,0s.04.01.04.02c-.02.13-.03.28-.05.45s-.02.33-.02.48c0,.07-.03.1-.1.1ZM22.32,201.6c0-.18-.07-.32-.2-.42-.14-.1-.34-.15-.6-.15h-.89v-.18h.89c.26,0,.45-.04.59-.13.13-.09.2-.21.2-.36,0-.01.01-.02.04-.02s.04,0,.04.02c0,.14,0,.26,0,.34s0,.17,0,.25c0,.11,0,.22,0,.32s0,.22,0,.35c0,0-.01.01-.04.01s-.04,0-.04-.01Z"/>
        <path class="cls-1" d="M25,199.62c0,.17.04.31.13.44.09.13.2.24.33.34.14.1.28.2.44.3.17.11.33.22.48.33.15.12.28.25.38.4.1.15.15.33.15.54,0,.23-.06.44-.19.61-.13.17-.29.31-.51.41s-.45.15-.73.15c-.13,0-.27-.01-.41-.04-.14-.03-.27-.06-.39-.1-.12-.04-.2-.08-.25-.13-.02-.01-.03-.03-.05-.04-.01-.01-.02-.04-.02-.08l-.02-1.05s0-.03.03-.04c.02,0,.04,0,.04.02.07.14.14.28.22.43.08.15.17.29.27.42.1.13.21.23.33.31.12.08.26.12.42.12.1,0,.2-.02.29-.05.09-.03.17-.1.23-.19.06-.09.09-.22.09-.38,0-.21-.05-.38-.14-.53s-.21-.28-.36-.39c-.14-.11-.3-.22-.45-.32-.15-.1-.3-.2-.44-.31s-.25-.23-.34-.37c-.09-.14-.13-.3-.13-.5,0-.25.07-.45.21-.6.14-.15.31-.27.53-.34.21-.07.43-.11.65-.11.16,0,.32.01.47.04.16.03.28.06.37.1.04.02.07.04.08.06.01.02.02.05.02.07v.97s0,.02-.03.03c-.02,0-.03,0-.04,0-.03-.05-.06-.14-.11-.26s-.11-.25-.19-.38c-.08-.13-.18-.24-.3-.34s-.27-.14-.45-.14c-.11,0-.21.02-.3.07-.09.04-.16.11-.22.19s-.08.2-.08.33Z"/>
        <path class="cls-1" d="M29.43,199.11c-.27,0-.49.09-.68.27s-.33.43-.44.75c0,.01-.02.02-.04.02-.02,0-.03,0-.03-.02,0-.06.02-.15.03-.26,0-.11.02-.23.03-.36.01-.13.02-.26.03-.38,0-.12,0-.22,0-.3,0-.02.01-.03.04-.03s.04.01.04.03c0,.04.02.08.07.1.05.02.1.03.16.04.06,0,.11,0,.15,0,.38.01.82.02,1.32.02.31,0,.55,0,.74,0s.36,0,.53,0c.16,0,.28,0,.36-.03.08-.02.13-.06.15-.13,0-.02.02-.03.04-.03s.04,0,.04.03c0,.07-.02.17-.02.29,0,.13-.01.26-.02.39s-.01.26-.02.38c0,.12,0,.2,0,.26,0,.01-.01.02-.03.02s-.03,0-.04-.02c-.07-.35-.19-.6-.37-.77-.18-.16-.4-.25-.66-.25-.09,0-.15.01-.2.04-.05.02-.08.06-.09.12-.01.06-.02.14-.02.24v3.03c0,.13.01.22.04.29.03.07.08.11.15.13.08.02.19.03.35.03.01,0,.02.01.02.04s0,.04-.02.04c-.12,0-.26,0-.41,0-.15,0-.32,0-.51,0-.17,0-.34,0-.49,0s-.29,0-.42,0c-.01,0-.02-.01-.02-.04s0-.04.02-.04c.15,0,.27-.01.35-.03.08-.02.13-.07.16-.13.03-.07.04-.16.04-.29v-3.04c0-.1,0-.17-.02-.23s-.04-.09-.09-.12-.11-.04-.19-.04Z"/>
        <path class="cls-1" d="M32.26,203.13c-.12,0-.22-.04-.29-.11-.07-.07-.11-.17-.11-.29,0-.11.04-.21.11-.28s.17-.11.29-.11.22.03.29.11c.07.07.1.16.1.28,0,.12-.03.22-.1.29-.07.07-.16.11-.29.11Z"/>
        <path class="cls-1" d="M35.78,203.06s-.04-.03-.07-.08c-.03-.05-.03-.09-.02-.11.28-.35.51-.66.71-.91.2-.26.36-.49.49-.7.12-.21.22-.4.28-.58.06-.18.09-.37.09-.56,0-.32-.07-.54-.2-.65s-.29-.17-.48-.17c-.21,0-.38.05-.51.15-.13.1-.22.24-.26.42,0,0-.02.01-.04,0-.02,0-.03-.01-.03-.03.05-.3.18-.54.39-.71s.48-.27.81-.27.59.1.77.29c.17.19.26.43.26.73,0,.21-.04.41-.12.59-.08.18-.18.36-.3.53s-.26.33-.4.48-.29.3-.43.45c-.14.15-.26.29-.37.43-.02.03,0,.05.03.05.33,0,.6,0,.81-.02.21-.01.37-.03.49-.07.11-.03.19-.08.23-.14.04-.06.06-.14.06-.24,0-.01.01-.02.04-.02s.04,0,.04.02v1.03s0,.03-.01.05c0,.02-.02.02-.05.02h-2.23Z"/>
        <path class="cls-1" d="M40.74,203.15c-.29,0-.55-.09-.76-.26-.21-.17-.37-.42-.48-.74s-.17-.7-.17-1.15.06-.83.17-1.15c.11-.32.27-.56.49-.73.21-.17.47-.25.77-.25s.54.09.74.26c.21.17.36.42.47.74s.16.71.16,1.16-.05.82-.16,1.14c-.11.32-.27.56-.48.73-.21.17-.46.25-.75.25ZM40.82,203.01c.13,0,.24-.06.32-.19.08-.13.14-.33.17-.61.04-.28.05-.65.05-1.1,0-.5-.02-.9-.07-1.21-.05-.31-.12-.53-.22-.67-.1-.14-.23-.21-.39-.21-.14,0-.25.07-.33.2-.09.13-.15.34-.19.62-.04.28-.06.66-.06,1.12,0,.49.02.88.07,1.18.05.3.13.52.23.66.11.14.24.21.41.21Z"/>
        <path class="cls-1" d="M44.69,203.15c-.29,0-.55-.09-.76-.26-.21-.17-.37-.42-.48-.74s-.17-.7-.17-1.15.06-.83.17-1.15c.11-.32.27-.56.49-.73.21-.17.47-.25.77-.25s.54.09.74.26c.21.17.36.42.47.74s.16.71.16,1.16-.05.82-.16,1.14c-.11.32-.27.56-.48.73-.21.17-.46.25-.75.25ZM44.77,203.01c.13,0,.24-.06.32-.19.08-.13.14-.33.17-.61.04-.28.05-.65.05-1.1,0-.5-.02-.9-.07-1.21-.05-.31-.12-.53-.22-.67-.1-.14-.23-.21-.39-.21-.14,0-.25.07-.33.2-.09.13-.15.34-.19.62-.04.28-.06.66-.06,1.12,0,.49.02.88.07,1.18.05.3.13.52.23.66.11.14.24.21.41.21Z"/>
        <path class="cls-1" d="M48.26,201.2c-.21,0-.39-.05-.54-.15s-.27-.23-.36-.41c-.08-.17-.12-.37-.12-.59,0-.23.06-.44.17-.61.12-.18.27-.32.47-.41.2-.1.43-.15.68-.15.28,0,.51.06.71.19.2.13.35.31.45.55.11.24.16.52.16.85,0,.31-.05.61-.15.92s-.24.59-.43.85c-.19.26-.42.47-.7.63-.28.16-.59.25-.95.28-.02,0-.03-.01-.03-.03,0-.02,0-.03.01-.04.25-.07.47-.19.66-.36.19-.17.35-.36.47-.59s.22-.48.28-.76c.06-.27.09-.56.09-.84,0-.22-.02-.42-.05-.6-.03-.18-.08-.34-.14-.47-.06-.13-.13-.24-.22-.31-.09-.07-.18-.11-.29-.11-.17,0-.29.08-.36.25-.07.17-.1.39-.1.67,0,.34.04.59.13.76s.23.26.41.26c.04,0,.1,0,.16-.02.06-.01.12-.03.17-.06.02,0,.03,0,.05.02.01.02.02.04,0,.05-.16.16-.38.24-.65.24Z"/>
      </g>
      <g>
        <path class="cls-3" d="M35.51,154.25c0,.64.05,1.13.16,1.46.11.33.34.55.69.66.35.11.87.17,1.57.17.04,0,.06.07.06.2s-.02.2-.06.2c-.5,0-1.05-.01-1.66-.03-.61-.02-1.27-.03-1.99-.03s-1.35.01-1.97.03c-.62.02-1.18.03-1.67.03-.04,0-.06-.07-.06-.2s.03-.2.09-.2c.68,0,1.2-.05,1.55-.17.36-.11.6-.33.72-.66s.18-.82.18-1.46v-15.54c0-.64-.06-1.12-.18-1.44-.12-.32-.36-.54-.72-.66-.36-.12-.89-.18-1.58-.18-.04,0-.06-.07-.06-.2s.02-.2.06-.2c.5,0,1.06.02,1.67.05s1.27.05,1.97.05,1.38-.02,2-.05c.62-.03,1.17-.05,1.64-.05.04,0,.06.07.06.2s-.02.2-.06.2c-.7,0-1.22.07-1.55.2-.34.13-.57.36-.69.7s-.18.82-.18,1.46v15.47Z"/>
        <path class="cls-3" d="M7.3,143.13l.33-16.15.83.07-.33,16.09c-.02,1.15.18,2,.61,2.55.43.55,1.15.83,2.17.83.07,0,.1.07.1.2s-.03.2-.1.2c-.49,0-.98-.01-1.49-.03-.51-.02-1.08-.03-1.72-.03-.6,0-1.16.01-1.69.03-.53.02-1.03.03-1.49.03-.04,0-.07-.07-.07-.2s.02-.2.07-.2c.93,0,1.62-.28,2.07-.83.45-.55.69-1.4.71-2.55ZM30.47,146.5s.07.07.07.2-.02.2-.07.2c-.55,0-1.17-.01-1.85-.03-.68-.02-1.41-.03-2.18-.03-.73,0-1.41.01-2.05.03-.64.02-1.21.03-1.72.03-.07,0-.1-.07-.1-.2s.03-.2.1-.2c1.08,0,1.78-.14,2.09-.43.31-.29.43-.9.36-1.85l-.66-15.59,1.29-1.85-8.57,19.9c-.02.09-.11.13-.25.13s-.24-.04-.28-.13l-8.64-17.71c-.77-1.57-1.85-2.35-3.24-2.35-.04,0-.07-.07-.07-.2s.02-.2.07-.2c.4,0,.81.01,1.24.03.43.02.8.03,1.11.03.42,0,.8-.01,1.14-.03.34-.02.6-.03.78-.03.31,0,.55.1.73.31.18.21.44.68.79,1.41l7.51,15.26-1.23,2.12,7.98-18.27c.11-.26.25-.47.41-.61.17-.14.36-.22.58-.22.15,0,.35.01.58.03.23.02.5.03.81.03.62,0,1.14-.01,1.56-.03.42-.02.85-.03,1.29-.03.04,0,.07.07.07.2s-.02.2-.07.2c-1.06,0-1.83.17-2.32.51-.49.34-.72.97-.7,1.87l.7,15.23c.04.64.13,1.13.26,1.46s.39.55.76.66c.38.11.95.17,1.72.17Z"/>
        <path class="cls-3" d="M41.78,144.28v-15.33c0-.64-.07-1.12-.2-1.44-.13-.32-.4-.54-.79-.66-.4-.12-.98-.18-1.75-.18-.07,0-.1-.07-.1-.2s.03-.2.1-.2c.55,0,1.17.02,1.85.05s1.4.05,2.15.05c.88,0,1.67-.02,2.37-.05s1.32-.05,1.87-.05c.04,0,.07.07.07.2s-.02.2-.07.2c-.82,0-1.43.07-1.84.2-.41.13-.68.36-.83.7-.14.33-.22.82-.22,1.46v15.26c0,.64.07,1.13.2,1.46s.41.55.83.66c.42.11,1.04.17,1.85.17.04,0,.07.07.07.2s-.02.2-.07.2c-.57,0-1.2-.01-1.89-.03-.68-.02-1.47-.03-2.35-.03-.75,0-1.48.01-2.18.03-.71.02-1.34.03-1.89.03-.04,0-.07-.07-.07-.2s.02-.2.07-.2c.79,0,1.4-.05,1.8-.17.41-.11.68-.33.81-.66s.2-.82.2-1.46ZM43.19,136.53v-.97h16.12v.97h-16.12ZM58.58,129.02c0-.64-.07-1.13-.2-1.46-.13-.33-.4-.56-.79-.7-.4-.13-1.02-.2-1.85-.2-.07,0-.1-.07-.1-.2s.03-.2.1-.2c.53,0,1.14.02,1.84.05s1.47.05,2.33.05c.75,0,1.48-.02,2.2-.05.72-.03,1.34-.05,1.87-.05.07,0,.1.07.1.2s-.03.2-.1.2c-.77,0-1.36.06-1.77.18-.41.12-.68.34-.81.66-.13.32-.2.8-.2,1.44v15.33c0,.64.07,1.13.2,1.46s.4.55.81.66c.41.11,1,.17,1.77.17.07,0,.1.07.1.2s-.03.2-.1.2c-.53,0-1.15-.01-1.87-.03-.72-.02-1.45-.03-2.2-.03-.86,0-1.64.01-2.33.03-.7.02-1.31.03-1.84.03-.07,0-.1-.07-.1-.2s.03-.2.1-.2c.84,0,1.46-.05,1.85-.17.4-.11.66-.33.79-.66.13-.33.2-.82.2-1.46v-15.26Z"/>
        <path class="cls-3" d="M12,151.18c1.9,0,3.35.37,4.35,1.11,1,.74,1.51,1.76,1.51,3.06,0,.82-.19,1.6-.58,2.35-.39.75-.91,1.41-1.56,1.99-.65.57-1.4,1.03-2.25,1.36-.85.33-1.73.5-2.63.5-.26,0-.54,0-.83-.02-.29-.01-.55-.03-.79-.05v7.81c0,.64.06,1.13.18,1.46.12.33.37.55.76.66.39.11.97.17,1.74.17.07,0,.1.07.1.2s-.03.2-.1.2c-.55,0-1.16-.01-1.82-.03-.66-.02-1.39-.03-2.18-.03-.75,0-1.47.01-2.15.03-.68.02-1.3.03-1.85.03-.07,0-.1-.07-.1-.2s.03-.2.1-.2c.75,0,1.32-.05,1.7-.17.39-.11.65-.33.79-.66.14-.33.22-.82.22-1.46v-15.33c0-.64-.07-1.12-.2-1.44-.13-.32-.39-.54-.76-.66-.38-.12-.95-.18-1.72-.18-.04,0-.07-.07-.07-.2s.02-.2.07-.2c.55,0,1.16.02,1.84.05.67.03,1.38.05,2.14.05.6,0,1.28-.03,2.05-.1.77-.07,1.46-.1,2.05-.1ZM15.11,156.54c0-1.26-.17-2.23-.5-2.93-.33-.7-.78-1.18-1.34-1.46-.56-.28-1.2-.41-1.9-.41-.53,0-.95.05-1.26.15-.31.1-.53.31-.68.65-.14.33-.21.83-.21,1.49v6.59c.31.02.65.05,1.01.08.36.03.68.05.94.05,1.41,0,2.42-.31,3.03-.94s.91-1.72.91-3.26ZM20.54,171.96c-.35,0-.93-.44-1.74-1.32-.81-.88-1.77-2.14-2.9-3.77-1.13-1.63-2.39-3.58-3.81-5.83l2.22-.73c1.85,2.78,3.43,4.99,4.72,6.64,1.29,1.64,2.43,2.83,3.43,3.54.99.72,1.94,1.08,2.85,1.08.07,0,.1.07.1.2s-.03.2-.1.2h-4.77Z"/>
        <path class="cls-3" d="M38.03,176.83c.11,0,.17.07.17.2s-.06.2-.17.2c-.64,0-1.3-.02-1.97-.07-.67-.04-1.33-.07-1.97-.07-.71,0-1.32.02-1.84.07-.52.04-1.1.07-1.74.07-.09,0-.13-.07-.13-.2s.04-.2.13-.2c1.08,0,1.74-.17,1.99-.51.24-.34.12-1.02-.36-2.04l-7.12-14.8,1.06-1.59-6.46,14.96c-.57,1.35-.61,2.35-.1,3,.51.65,1.46.98,2.85.98.11,0,.17.07.17.2s-.06.2-.17.2c-.66,0-1.27-.02-1.82-.07-.55-.04-1.25-.07-2.09-.07s-1.47.02-1.97.07c-.5.04-1.1.07-1.8.07-.09,0-.13-.07-.13-.2s.04-.2.13-.2c.6,0,1.11-.12,1.56-.35.44-.23.87-.66,1.27-1.27.41-.62.86-1.5,1.34-2.65l7.05-16.25c.02-.07.1-.1.23-.12.13-.01.21.03.23.12l7.94,16.39c.53,1.08.99,1.93,1.37,2.53.39.61.77,1.03,1.14,1.26.37.23.77.35,1.19.35ZM21.85,166.87l.5-.76h6.82l.23.76h-7.55Z"/>
        <path class="cls-3" d="M58.66,160.76l.36-.43c1.37,0,2.57.24,3.59.73,1.03.49,1.82,1.15,2.38,1.99.56.84.84,1.81.84,2.91,0,1.17-.3,2.22-.91,3.16-.61.94-1.43,1.68-2.48,2.22-1.05.54-2.22.81-3.53.81-.66,0-1.45-.03-2.35-.1-.91-.07-1.73-.1-2.48-.1s-1.47.01-2.15.03c-.68.02-1.3.03-1.85.03-.07,0-.1-.07-.1-.2s.03-.2.1-.2c.73,0,1.29-.05,1.69-.17.4-.11.67-.33.81-.66s.22-.82.22-1.46v-15.33c0-.64-.07-1.12-.2-1.44-.13-.32-.39-.54-.78-.66-.39-.12-.96-.18-1.71-.18-.04,0-.07-.07-.07-.2s.02-.2.07-.2c.55,0,1.16.02,1.84.05s1.38.05,2.14.05c.6,0,1.26-.03,1.99-.1s1.38-.1,1.95-.1c1.32,0,2.41.18,3.26.55.85.36,1.48.87,1.9,1.52.42.65.63,1.41.63,2.27,0,1.24-.46,2.32-1.39,3.24s-2.18,1.58-3.77,1.95ZM57.41,151.79c-.49,0-.88.05-1.18.15-.3.1-.51.31-.63.63-.12.32-.18.82-.18,1.51v6.49l-1.09-.26c.71.04,1.29.07,1.75.08.46.01.73.02.79.02,1.54,0,2.66-.44,3.34-1.32.68-.88,1.03-1.96,1.03-3.24,0-.79-.14-1.49-.41-2.1-.28-.61-.69-1.08-1.24-1.42-.55-.34-1.28-.51-2.18-.51ZM58.4,171.49c1.61,0,2.79-.41,3.53-1.24.74-.83,1.11-1.99,1.11-3.49,0-1.63-.45-2.97-1.36-4.02-.91-1.05-2.23-1.57-3.97-1.57-.44-.02-.95-.02-1.52,0-.57.02-1.16.08-1.75.17l.99-.36v8.38c0,.51.07.92.22,1.24.14.32.43.55.86.7.43.14,1.06.22,1.9.22Z"/>
        <path class="cls-3" d="M54.27,176.83c-.42,0-.82-.12-1.19-.35-.38-.23-.76-.65-1.14-1.26-.39-.61-.84-1.45-1.37-2.53l-7.94-16.39c-.02-.09-.1-.13-.23-.12-.13.01-.21.05-.23.12l-7.05,16.25c-.16.37-.31.71-.46,1.03.16.23.31.45.47.69.1.14.19.28.29.42,0-.52.15-1.13.46-1.85l5.59-12.96,6.92,14.39c.48,1.02.61,1.69.36,2.04-.24.34-.91.51-1.99.51-.09,0-.13.07-.13.2s.04.2.13.2c.64,0,1.22-.02,1.74-.07.52-.04,1.13-.07,1.84-.07.64,0,1.3.02,1.97.07.67.04,1.33.07,1.97.07.11,0,.17-.07.17-.2s-.06-.2-.17-.2Z"/>
        <polygon class="cls-3" points="37.78 166.87 38.28 166.11 45.09 166.11 45.33 166.87 37.78 166.87"/>
      </g>
    </g>
  </g>
</svg>