<?xml version="1.0" encoding="UTF-8"?>
<svg id="Layer_3" data-name="Layer 3" xmlns="http://www.w3.org/2000/svg" viewBox="0 0 93.32 85.06">
  <defs>
    <style>
      .cls-1 {
        fill: #231f20;
      }
    </style>
  </defs>
  <g id="Layer_1" data-name="Layer 1">
    <g>
      <polygon class="cls-1" points="51 3.1 47.87 6.25 44.74 3.12 47.84 0 51 3.1"/>
      <g>
        <polygon class="cls-1" points="51 3.2 47.83 .11 44.74 3.23 47.87 6.36 51 3.2"/>
        <path class="cls-1" d="M46.59,14.24c-.25,1.58.32,2.8.94,4.27v7.78h.84v-7.8c.54-1.42,1.31-2.96.82-4.49l-1.26-3.99c-.36,1.42-1,2.67-1.35,4.23Z"/>
        <path class="cls-1" d="M4.75,40.44c0-.08-.03-.12-.1-.12-.72,0-1.24-.22-1.58-.67-.33-.45-.33-1.06.02-1.83l1.37-3.02h3.42l2,3.94c.32.63.44,1.05.36,1.26-.08.21-.39.32-.91.32-.05,0-.08.04-.08.12s.03.12.08.12c.4,0,.76-.01,1.08-.04.32-.03.7-.04,1.13-.04.38,0,.79.01,1.2.04.42.03.82.04,1.2.04.06,0,.1-.04.1-.12s-.03-.12-.1-.12c-.21,0-.41-.07-.61-.22-.2-.15-.41-.4-.63-.75-.22-.35-.49-.83-.8-1.43l-4.81-9.46c-.01-.05-.07-.07-.17-.07-.1,0-.16.03-.17.07l-4.17,9.17c-.32.72-.61,1.27-.86,1.66-.25.39-.5.66-.75.81-.25.15-.55.22-.89.22-.05,0-.08.04-.08.12s.03.12.08.12c.44,0,.8-.01,1.11-.04.3-.03.7-.04,1.2-.04s.89.01,1.21.04c.32.03.67.04,1.06.04.06,0,.1-.04.1-.12ZM7.62,34.27h-2.91l1.37-3.03,1.53,3.03Z"/>
        <path class="cls-1" d="M15.97,39.84c-.07.19-.2.32-.39.38-.19.06-.49.1-.88.1-.03,0-.04.04-.04.12s.01.12.04.12h9.08c.19,0,.29-.1.29-.29,0-.5.02-1.05.06-1.64s.08-1.11.12-1.53c0-.04-.03-.06-.1-.08-.06-.01-.1,0-.12.04-.24.9-.73,1.62-1.46,2.15-.73.54-1.6.81-2.6.81h-.65c-.31,0-.54-.03-.7-.08-.16-.05-.27-.15-.32-.31-.05-.15-.08-.39-.08-.71v-8.81c0-.37.03-.65.1-.85.06-.19.2-.32.39-.39.2-.07.49-.11.88-.11.04,0,.06-.04.06-.12s-.02-.12-.06-.12c-.32,0-.69,0-1.1.03-.41.02-.86.03-1.35.03-.46,0-.91,0-1.34-.03-.43-.02-.8-.03-1.11-.03-.03,0-.04.04-.04.12s.01.12.04.12c.4,0,.69.04.88.11.19.07.32.2.39.38.07.19.11.46.11.84v8.9c0,.37-.04.65-.11.85Z"/>
        <path class="cls-1" d="M25.44,40.55c.33,0,.72,0,1.15-.02.44-.01.88-.02,1.35-.02.68,0,1.27,0,1.78.02.51.01.98.02,1.41.02.03,0,.04-.04.04-.12s-.01-.12-.04-.12c-.58,0-1.01-.04-1.31-.12-.29-.08-.49-.21-.6-.41-.1-.2-.15-.49-.15-.87v-4.12h1.37c.76,0,1.33.15,1.73.45.4.3.6.71.6,1.22,0,.04.04.06.12.06s.12-.02.12-.06c0-.36,0-.69-.02-1-.01-.31-.02-.62-.02-.94,0-.26,0-.5,0-.74,0-.24,0-.57,0-1.01,0-.03-.04-.04-.12-.04s-.12.01-.12.04c0,.45-.19.81-.58,1.08s-.96.4-1.71.4h-1.38v-4.15c0-.35.09-.6.27-.77.18-.17.46-.25.85-.25h.58c.79,0,1.44.18,1.92.53.49.35.83.91,1.04,1.66.03.04.07.05.13.04.06-.01.1-.03.1-.06l-.04-2.56c0-.12-.06-.17-.19-.17h-8.15s-.06.04-.06.12.02.12.06.12c.4,0,.69.04.88.11.19.07.32.2.38.38.06.19.1.46.1.84v8.9c0,.37-.04.65-.11.85-.07.19-.21.32-.42.38-.21.06-.54.1-.97.1-.04,0-.06.04-.06.12s.02.12.06.12Z"/>
        <path class="cls-1" d="M37.12,39.84c-.07.19-.21.32-.4.38-.2.06-.5.1-.89.1-.03,0-.04.04-.04.12s.01.12.04.12c.33,0,.71,0,1.13-.02.42-.01.87-.02,1.33-.02.49,0,.94,0,1.35.02.41.01.78.02,1.12.02.04,0,.06-.04.06-.12s-.02-.12-.06-.12c-.4,0-.69-.03-.88-.1-.19-.06-.32-.19-.38-.38-.06-.19-.1-.47-.1-.85v-8.86c0-.37.03-.65.1-.85.06-.19.2-.33.39-.4.2-.08.49-.12.88-.12.04,0,.06-.04.06-.12s-.02-.12-.06-.12c-.32,0-.69,0-1.11.03-.42.02-.87.03-1.36.03-.46,0-.9,0-1.33-.03-.42-.02-.8-.03-1.13-.03-.03,0-.04.04-.04.12s.01.12.04.12c.4,0,.7.04.89.11.2.07.33.2.4.38.07.19.11.46.11.84v8.9c0,.37-.04.65-.11.85Z"/>
        <path class="cls-1" d="M42.65,32.01c.06,0,.1,0,.12-.05.32-.95.75-1.68,1.3-2.2s1.21-.78,1.99-.78c.24,0,.43.04.56.11.13.07.21.19.26.35.04.16.07.38.07.66v8.9c0,.37-.04.65-.12.85-.08.19-.24.32-.47.38-.23.06-.57.1-1.02.1-.04,0-.06.04-.06.12s.02.12.06.12c.37,0,.78,0,1.23-.02.45-.01.93-.02,1.44-.02.54,0,1.03,0,1.48.02.45.01.85.02,1.21.02.04,0,.06-.04.06-.12s-.02-.12-.06-.12c-.46,0-.8-.03-1.03-.1-.22-.06-.38-.19-.45-.38s-.12-.47-.12-.85v-8.86c0-.29.02-.53.07-.69.04-.17.13-.29.27-.36.13-.07.33-.11.59-.11.76,0,1.4.24,1.93.72.53.48.89,1.23,1.09,2.24.01.04.05.06.12.06s.1-.02.1-.06c0-.17,0-.42.02-.76.01-.34.03-.71.05-1.12.02-.4.04-.79.06-1.15s.04-.65.07-.86c0-.05-.04-.08-.11-.08s-.11.03-.12.08c-.06.21-.21.34-.45.39-.24.06-.59.09-1.05.09-.5,0-1.02,0-1.56.03-.54.02-1.26.03-2.15.03-1.47,0-2.76-.02-3.87-.06-.12,0-.26,0-.43-.03s-.33-.06-.46-.12c-.13-.06-.2-.15-.2-.28,0-.06-.04-.1-.11-.1s-.11.03-.11.1c0,.23,0,.53-.03.88-.02.36-.05.73-.08,1.12-.03.38-.06.74-.09,1.07-.03.33-.05.58-.08.76,0,.04.03.06.1.07Z"/>
        <path class="cls-1" d="M54.44,28.77c.2,0,.46.13.76.39.3.26.71.79,1.22,1.59l2.81,4.36v3.89c0,.37-.04.65-.11.85-.07.19-.21.32-.4.38-.2.06-.5.1-.89.1-.03,0-.04.04-.04.12s.01.12.04.12c.33,0,.71,0,1.13-.02.42-.01.87-.02,1.33-.02.49,0,.93,0,1.34.02.4.01.77.02,1.11.02.04,0,.06-.04.06-.12s-.02-.12-.06-.12c-.4,0-.69-.03-.88-.1-.19-.06-.32-.19-.38-.38s-.1-.47-.1-.85v-4.3l2-3.34c.31-.51.64-.96,1-1.35.36-.38.72-.69,1.08-.91.36-.22.67-.34.92-.34.03,0,.04-.04.04-.12s-.01-.12-.04-.12c-.28,0-.52,0-.72.03-.2.02-.46.03-.78.03-.6,0-1.08,0-1.44-.03-.36-.02-.74-.03-1.15-.03-.04,0-.06.04-.06.12s.02.12.06.12c.6,0,.95.22,1.05.67.1.45-.07,1.03-.49,1.75l-1.77,3.01-2.63-4.15c-.23-.35-.31-.65-.24-.9.07-.26.29-.38.66-.38.03,0,.04-.04.04-.12s-.01-.12-.04-.12c-.23,0-.53,0-.89.02-.37.01-.75.02-1.16.03-.41,0-.79,0-1.15,0-.19,0-.39,0-.6-.03-.21-.02-.4-.03-.6-.03-.04,0-.06.04-.06.12s.02.12.06.12Z"/>
        <path class="cls-1" d="M69.8,26.84h4.83c.09,0,.15-.06.18-.18.03-.12.03-.24,0-.36-.03-.12-.09-.17-.18-.17h-4.83c-.08,0-.13.06-.16.17-.03.12-.03.23,0,.36.03.12.09.18.16.18Z"/>
        <path class="cls-1" d="M65.34,40.32c-.05,0-.08.04-.08.12s.03.12.08.12c.44,0,.8-.01,1.11-.04.3-.03.7-.04,1.2-.04s.89.01,1.21.04c.32.03.67.04,1.06.04.06,0,.1-.04.1-.12s-.03-.12-.1-.12c-.72,0-1.24-.22-1.58-.67-.33-.45-.33-1.06.02-1.83l1.37-3.02h3.42l2,3.94c.32.63.44,1.05.36,1.26-.08.21-.39.32-.91.32-.05,0-.08.04-.08.12s.03.12.08.12c.4,0,.76-.01,1.08-.04.32-.03.7-.04,1.13-.04.38,0,.79.01,1.2.04.42.03.82.04,1.2.04.06,0,.1-.04.1-.12s-.03-.12-.1-.12c-.21,0-.41-.07-.61-.22-.2-.15-.41-.4-.63-.75-.22-.35-.49-.83-.8-1.43l-4.81-9.46c-.01-.05-.07-.07-.17-.07-.1,0-.16.03-.17.07l-4.17,9.17c-.32.72-.61,1.27-.86,1.66-.25.39-.5.66-.75.81-.25.15-.55.22-.89.22ZM72.88,34.27h-2.91l1.37-3.03,1.53,3.03Z"/>
        <path class="cls-1" d="M93.28,28.54c-.28,0-.59,0-.92.03-.33.02-.67.03-1.02.03s-.69,0-.99-.03c-.3-.02-.59-.03-.88-.03-.03,0-.04.04-.04.12s.01.12.04.12c.5,0,.89.2,1.17.61.28.4.42.95.42,1.62v6.21l-6.65-7.67c-.31-.37-.5-.63-.59-.78-.08-.15-.21-.22-.38-.22-.21,0-.49,0-.87.02-.37.01-.79.02-1.25.02-.23,0-.48,0-.75-.02-.27-.01-.53-.02-.79-.02-.03,0-.04.04-.04.12s.01.12.04.12c.32,0,.64.09.96.28.29.17.65.48,1.06.94v8.13c0,.68-.16,1.22-.49,1.62-.33.4-.77.6-1.34.6-.04,0-.06.04-.06.12s.02.12.06.12c.31,0,.64,0,1.01-.02.37-.01.74-.02,1.12-.02.36,0,.69,0,.99.02.3.01.59.02.88.02.03,0,.04-.04.04-.12s-.01-.12-.04-.12c-.5,0-.89-.2-1.17-.6-.28-.4-.42-.94-.42-1.62v-7.47l9.02,10.26s.07.02.12,0c.06,0,.09-.03.09-.07v-9.85c0-.68.15-1.22.44-1.62.29-.4.7-.61,1.21-.61.03,0,.04-.04.04-.12s-.01-.12-.04-.12Z"/>
      </g>
      <path class="cls-1" d="M84.96,66.41c-2.54-1.64-4.9-3.4-7.28-5.32-3.28-2.63-6.6-4.95-10.25-7.03-5.89-3.26-12.24-5.64-19.06-5.7v-5.5s-.83,0-.83,0v5.49c-7.26.16-13.51,2.56-19.69,6.06-3.4,2-6.51,4.18-9.58,6.64-2.38,1.91-4.74,3.68-7.28,5.33-3.02,1.96-5.85-.88-7.32,3.57,4.54.24,8.71-1.7,12.67-3.71h29.73v-.74h-29.26c3.9-5.78,8.49-8.59,15.44-9.47,1.94-3.42,4.93-4.12,8.65-2.75,1.65-1.95,4.04-2.92,6.66-2.8v14.51h0v1.23h0v.45s0,.32,0,.32h0v7.21s-2.43,2.49-2.43,2.49l-.3,8.1,2.69-2.83.09,2.97c.01.18.76.14.76-.06l.06-2.92,2.7,2.85-.33-8.18-2.42-2.44v-7.96s.01-.74.01-.74l-.03-14.98c2.51-.17,5,.78,6.66,2.77,3.63-1.32,6.66-.76,8.64,2.75,6.92.9,11.49,3.6,15.45,9.47h-29.24v.74h29.71c3.93,1.99,8.11,3.97,12.65,3.71-1.91-4.93-4.23-1.59-7.25-3.54Z"/>
    </g>
  </g>
</svg>