<?xml version="1.0" encoding="UTF-8"?>
<svg id="Layer_2" data-name="Layer 2" xmlns="http://www.w3.org/2000/svg" viewBox="0 0 93.32 120.3">
  <defs>
    <style>
      .cls-1 {
        fill: #231f20;
      }
    </style>
  </defs>
  <g id="Layer_1" data-name="Layer 1">
    <g>
      <g>
        <g>
          <path class="cls-1" d="M28.68,106.71c-.18-.05-.3-.16-.36-.31s-.1-.38-.12-.68l-.33-7.15c-.01-.42.1-.72.33-.88.23-.16.59-.24,1.09-.24.02,0,.03-.03.03-.09s-.01-.09-.03-.09c-.21,0-.41,0-.61.02-.2.01-.44.02-.73.02-.15,0-.27,0-.38-.02-.11-.01-.2-.02-.27-.02-.1,0-.19.03-.27.1-.08.07-.14.16-.19.29l-3.25,7.44-3.45-7.02c-.17-.34-.29-.56-.37-.66-.08-.1-.2-.15-.34-.15-.08,0-.2,0-.37.02-.16.01-.34.02-.54.02-.15,0-.32,0-.52-.02-.2-.01-.4-.02-.58-.02-.02,0-.03.03-.03.09s.01.09.03.09c.55,0,1,.26,1.34.79l-.14,6.97c-.01.54-.12.94-.33,1.2-.21.26-.54.39-.97.39-.02,0-.03.03-.03.09s.01.09.03.09c.22,0,.45,0,.7-.02.25-.01.51-.02.79-.02.3,0,.57,0,.81.02.24.01.47.02.7.02.03,0,.05-.03.05-.09s-.02-.09-.05-.09c-.48,0-.82-.13-1.02-.39-.2-.26-.3-.66-.29-1.2l.13-6.26,3.87,7.93s.06.06.13.06.11-.02.12-.06l3.44-7.99.29,6.83c.03.45-.03.74-.17.87-.15.13-.47.2-.98.2-.03,0-.05.03-.05.09s.02.09.05.09c.24,0,.51,0,.81-.02.3-.01.62-.02.96-.02.36,0,.7,0,1.03.02.32.01.61.02.87.02.02,0,.03-.03.03-.09s-.01-.09-.03-.09c-.36,0-.63-.03-.81-.08Z"/>
          <path class="cls-1" d="M33.08,97.86c.06-.16.18-.26.36-.33.18-.06.45-.09.81-.09.02,0,.03-.03.03-.09s-.01-.09-.03-.09c-.25,0-.53,0-.86.02-.32.02-.67.02-1.04.02s-.71,0-1.03-.02c-.32-.02-.61-.02-.87-.02-.02,0-.03.03-.03.09s.01.09.03.09c.36,0,.64.03.82.09s.31.16.37.31c.06.15.09.38.09.68v7.2c0,.3-.03.53-.09.68-.06.16-.19.26-.37.31-.19.05-.46.08-.81.08-.03,0-.05.03-.05.09s.01.09.03.09c.26,0,.55,0,.87-.02.32-.01.66-.02,1.03-.02s.72,0,1.03.02c.32.01.6.02.86.02.02,0,.03-.03.03-.09s-.01-.09-.03-.09c-.36,0-.63-.03-.82-.08-.18-.05-.3-.16-.36-.31-.06-.16-.09-.38-.09-.68v-7.17c0-.3.03-.53.09-.68Z"/>
          <path class="cls-1" d="M44.93,97.84c.06-.15.19-.25.38-.31.19-.06.47-.09.83-.09.03,0,.05-.03.05-.09s-.02-.09-.05-.09c-.25,0-.54,0-.88.02-.34.02-.68.02-1.03.02-.4,0-.77,0-1.1-.02-.33-.02-.61-.02-.86-.02-.03,0-.05.03-.05.09s.02.09.05.09c.39,0,.68.03.87.09.19.06.31.17.37.33s.09.38.09.68v3.19h-5.68v-3.19c0-.3.03-.53.1-.68.07-.16.2-.26.39-.33.19-.06.48-.09.86-.09.02,0,.03-.03.03-.09s-.01-.09-.03-.09c-.26,0-.55,0-.88.02-.33.02-.7.02-1.11.02-.35,0-.69,0-1.01-.02-.32-.02-.61-.02-.87-.02-.03,0-.05.03-.05.09s.02.09.05.09c.36,0,.64.03.82.09s.31.16.37.31c.06.15.09.38.09.68v7.2c0,.3-.03.53-.09.68s-.19.26-.38.31c-.19.05-.47.08-.85.08-.02,0-.03.03-.03.09s.01.09.03.09c.26,0,.55,0,.89-.02.33-.01.67-.02,1.03-.02.41,0,.78,0,1.1.02.32.01.62.02.89.02.02,0,.03-.03.03-.09s-.01-.09-.03-.09c-.38,0-.67-.03-.87-.08-.2-.05-.33-.16-.39-.31-.06-.16-.09-.38-.09-.68v-3.62h5.68v3.62c0,.3-.03.53-.09.68s-.19.26-.37.31c-.19.05-.48.08-.87.08-.03,0-.05.03-.05.09s.02.09.05.09c.25,0,.54,0,.86-.02.33-.01.69-.02,1.1-.02.35,0,.7,0,1.03.02.34.01.63.02.88.02.03,0,.05-.03.05-.09s-.02-.09-.05-.09c-.36,0-.64-.03-.83-.08-.19-.05-.32-.16-.38-.31-.06-.16-.09-.38-.09-.68v-7.2c0-.3.03-.53.09-.68Z"/>
          <path class="cls-1" d="M78.33,102.76c-.26-.39-.64-.7-1.12-.93-.37-.18-.8-.28-1.27-.32.47-.18.87-.42,1.18-.73.44-.44.65-.94.65-1.52,0-.4-.1-.76-.3-1.07-.2-.31-.5-.54-.89-.72-.4-.17-.91-.26-1.53-.26-.27,0-.58.02-.92.05-.34.03-.65.05-.93.05-.35,0-.69,0-1-.02-.32-.02-.6-.02-.86-.02-.02,0-.03.03-.03.09s.01.09.03.09c.35,0,.62.03.8.09.18.06.3.16.37.31.06.15.09.38.09.68v7.2c0,.3-.03.53-.1.68-.07.16-.19.26-.38.31-.17.05-.4.07-.69.07-.15-.02-.29-.06-.43-.14-.18-.11-.36-.31-.54-.59-.18-.29-.4-.68-.65-1.19l-3.73-7.7s-.05-.06-.11-.05c-.06,0-.1.02-.11.05l-3.03,6.99-3.37-6.96s-.05-.06-.11-.05c-.06,0-.1.02-.11.05l-3.31,7.63c-.17.4-.33.72-.47.99-.33-.31-.68-.71-1.06-1.19-.59-.75-1.3-1.75-2.14-3.01.21-.12.41-.25.59-.41.31-.27.55-.58.73-.93.18-.35.27-.72.27-1.1,0-.61-.24-1.09-.71-1.44-.47-.35-1.15-.52-2.04-.52-.28,0-.6.02-.96.05-.36.03-.68.05-.96.05-.35,0-.69,0-1-.02-.32-.02-.6-.02-.86-.02-.02,0-.03.03-.03.09s.01.09.03.09c.36,0,.63.03.81.09.18.06.3.16.36.31.06.15.09.38.09.68v7.2c0,.3-.03.53-.1.68-.07.16-.19.26-.37.31-.18.05-.45.08-.8.08-.03,0-.05.03-.05.09s.02.09.05.09c.26,0,.55,0,.87-.02.32-.01.66-.02,1.01-.02.37,0,.72,0,1.03.02.31.01.6.02.86.02.03,0,.05-.03.05-.09s-.02-.09-.05-.09c-.36,0-.63-.03-.82-.08-.18-.05-.3-.16-.36-.31s-.09-.38-.09-.68v-3.67c.11.01.24.02.37.02.13,0,.26,0,.39,0,.23,0,.46-.03.69-.08.62.99,1.19,1.85,1.69,2.58.53.77.98,1.36,1.36,1.77.38.41.65.62.82.62h1.39c.08,0,.16,0,.23.01.26.02.54.03.86.03.05,0,.08-.03.08-.09s-.03-.09-.08-.09c-.07,0-.13,0-.2-.01,0-.02-.02-.03-.04-.03-.3,0-.61-.09-.93-.25-.06-.05-.13-.1-.17-.16-.24-.31-.22-.77.05-1.41l1.27-2.94h2.87l1.73,3.61c.23.48.28.8.17.96-.11.16-.43.24-.93.24-.04,0-.06.03-.06.09s.02.09.06.09c.3,0,.57-.01.82-.03.24-.02.53-.03.86-.03.3,0,.61.01.93.03.32.02.62.03.93.03.05,0,.08-.03.08-.09s-.03-.09-.08-.09c-.2,0-.38-.05-.56-.16-.18-.11-.36-.31-.54-.59-.18-.29-.4-.68-.65-1.19l-.14-.28,1.12-2.61h2.87l1.73,3.61c.23.48.28.8.17.96-.11.16-.43.24-.93.24-.04,0-.06.03-.06.09s.02.09.06.09c.3,0,.57-.01.82-.03.24-.02.53-.03.86-.03.3,0,.61.01.93.03.32.02.62.03.93.03.02,0,.03,0,.04-.02.19,0,.38,0,.59-.01.32-.01.66-.02,1.01-.02s.74.02,1.17.05c.42.03.79.05,1.1.05.61,0,1.16-.13,1.66-.38.49-.25.88-.6,1.17-1.04.29-.44.43-.94.43-1.48,0-.52-.13-.97-.4-1.37ZM50.26,101.68c-.17-.02-.33-.03-.47-.04v-3.09c0-.31.03-.54.1-.7.07-.16.17-.26.32-.3.15-.05.34-.07.59-.07.33,0,.63.06.89.19.26.13.47.36.63.68s.23.79.23,1.38c0,.73-.14,1.24-.43,1.53-.29.3-.76.44-1.42.44-.12,0-.27,0-.44-.02ZM57.71,101.67l1.2-2.79,1.34,2.79h-2.55ZM64.34,101.64l1.2-2.79,1.34,2.79h-2.55ZM73.91,97.84c.06-.15.16-.25.3-.3.14-.05.32-.07.55-.07.42,0,.77.08,1.03.24.26.16.45.38.58.67.13.29.19.61.19.99,0,.6-.16,1.11-.48,1.52-.32.41-.84.62-1.57.62-.03,0-.16,0-.37,0-.09,0-.2,0-.31-.01v-2.95c0-.32.03-.56.09-.71ZM76.88,106.14c-.35.39-.9.58-1.66.58-.39,0-.69-.03-.89-.1-.2-.07-.34-.18-.4-.33-.07-.15-.1-.34-.1-.58v-3.81c.12-.01.24-.03.36-.03.27-.01.51-.01.72,0,.82,0,1.44.25,1.87.74.42.49.64,1.12.64,1.89,0,.71-.17,1.25-.52,1.64Z"/>
        </g>
        <path class="cls-1" d="M10.1,111.55l.03,1.68s-.03.04-.08.04-.08-.01-.08-.04c0-.48-.12-.86-.38-1.13-.25-.27-.58-.41-.99-.41h-.96c-.5,0-.83.06-.98.17-.15.11-.23.35-.23.71v3.06h1.51c.48,0,.82-.07,1.01-.22.19-.15.28-.39.28-.74,0-.02.03-.03.08-.03s.08,0,.08.03c0,.27,0,.48,0,.63,0,.15,0,.31,0,.47,0,.2,0,.4.01.6,0,.2.01.42.01.65,0,.02-.03.03-.08.03s-.08,0-.08-.03c0-.42-.1-.71-.3-.88-.2-.17-.55-.25-1.06-.25h-1.46v3.04c0,.28.04.49.12.63.08.14.24.24.49.3.25.06.63.08,1.13.08.03,0,.04.03.04.08s-.01.08-.04.08c-.3,0-.62,0-.97-.01-.35,0-.72-.01-1.13-.01-.3,0-.58,0-.86.01-.28,0-.53.01-.75.01-.02,0-.03-.03-.03-.08s0-.08.03-.08c.35,0,.62-.02.79-.07.18-.05.29-.14.35-.28.06-.14.09-.34.09-.61v-6.43c0-.27-.03-.47-.09-.6-.06-.13-.18-.23-.35-.28-.18-.05-.44-.08-.79-.08-.02,0-.03-.03-.03-.08s0-.08.03-.08h5.5c.08,0,.13.04.13.13ZM20.56,114.05c.2.53.3,1.07.3,1.63,0,.65-.13,1.25-.39,1.81-.26.56-.61,1.04-1.06,1.46-.45.42-.97.74-1.56.98-.59.24-1.21.35-1.87.35s-1.27-.12-1.81-.35c-.54-.24-1.01-.56-1.39-.98-.38-.42-.68-.9-.89-1.44-.21-.54-.31-1.12-.31-1.73,0-.75.15-1.41.44-1.97.29-.56.68-1.04,1.16-1.41.48-.38,1.01-.66,1.58-.84.57-.19,1.14-.28,1.71-.28.69,0,1.3.12,1.84.37.54.25,1,.58,1.38.99s.67.89.87,1.42ZM19.97,116.07c0-.88-.17-1.66-.51-2.33-.34-.67-.81-1.2-1.42-1.58-.61-.38-1.33-.58-2.15-.58-1.07,0-1.91.33-2.51,1-.6.67-.9,1.57-.9,2.72,0,.65.09,1.26.28,1.83.19.57.46,1.07.82,1.5.36.43.78.77,1.27,1.01.49.24,1.04.36,1.64.36.65,0,1.24-.15,1.76-.45.53-.3.95-.75,1.26-1.33.31-.59.47-1.3.47-2.15ZM30.3,111.45c-.22.01-.43.02-.65.02-.26,0-.5,0-.72-.02-.22-.01-.43-.02-.63-.02-.03,0-.04.03-.04.08s.01.08.04.08c.41,0,.71.1.9.31.19.21.28.54.28.98v3.99c0,.94-.23,1.67-.7,2.21-.47.54-1.13.81-1.98.81-.92,0-1.63-.29-2.14-.88-.51-.58-.76-1.42-.76-2.51v-3.92c0-.27.03-.47.08-.61.06-.14.17-.24.35-.29.18-.06.44-.08.79-.08.03,0,.04-.03.04-.08s-.01-.08-.04-.08c-.2,0-.44,0-.72.02-.27.01-.57.02-.88.02s-.59,0-.86-.02c-.27-.01-.51-.02-.74-.02-.02,0-.03.03-.03.08s0,.08.03.08c.35,0,.62.03.79.08.18.05.29.14.35.28s.09.34.09.6v4.43c0,.67.14,1.25.42,1.74.28.5.67.88,1.18,1.15.51.27,1.11.41,1.79.41.65,0,1.22-.13,1.7-.4.49-.27.86-.66,1.13-1.17.27-.51.4-1.13.4-1.86v-3.97c0-.44.09-.77.27-.98.18-.21.46-.31.83-.31.02,0,.03-.03.03-.08s0-.08-.03-.08c-.18,0-.37,0-.59.02ZM40.94,111.43c-.18,0-.37,0-.58.02-.21.01-.43.02-.64.02-.23,0-.44,0-.63-.02-.19-.01-.38-.02-.56-.02-.02,0-.03.03-.03.08s0,.08.03.08c.39,0,.66.1.81.29.15.19.22.53.22,1v6.08l-5.49-6.82c-.21-.27-.34-.46-.39-.56-.05-.11-.13-.16-.25-.16-.06,0-.14,0-.26.01-.12,0-.24.01-.37.01s-.28,0-.44-.01c-.17,0-.33-.01-.49-.01-.03,0-.04.03-.04.08s.01.08.04.08c.22,0,.46.07.7.2.09.05.19.13.3.21v6.66c0,.47-.07.8-.22.99-.14.19-.42.28-.83.28-.02,0-.03.03-.03.08s0,.08.03.08c.19,0,.38,0,.58-.01.2,0,.42-.01.64-.01s.44,0,.63.01c.19,0,.37.01.55.01.03,0,.04-.03.04-.08s-.01-.08-.04-.08c-.39,0-.66-.09-.82-.28s-.24-.52-.24-.99v-6.37c.08.08.16.17.24.27l6.28,7.73s.05.01.1,0c.05,0,.07-.02.07-.03v-7.38c0-.47.08-.81.24-1,.16-.19.44-.29.84-.29.03,0,.04-.03.04-.08s-.01-.08-.04-.08ZM49.8,117.51c-.25.56-.6,1.04-1.04,1.43-.44.39-.95.7-1.52.91-.57.21-1.18.32-1.82.32-.26,0-.58-.01-.96-.04-.38-.03-.73-.04-1.06-.04-.3,0-.58,0-.86.01-.28,0-.53.01-.75.01-.02,0-.03-.03-.03-.08s0-.08.03-.08c.35,0,.62-.02.8-.07.18-.05.3-.14.36-.28.06-.14.09-.34.09-.61v-6.43c0-.27-.03-.47-.09-.6-.06-.13-.18-.23-.35-.28-.18-.05-.44-.08-.79-.08-.02,0-.03-.03-.03-.08s0-.08.03-.08c.22,0,.47,0,.74.02.27.01.56.02.85.02s.61-.01.95-.03c.34-.02.63-.03.87-.03.99,0,1.86.19,2.6.56.74.37,1.32.88,1.73,1.51.41.64.62,1.36.62,2.15,0,.69-.13,1.32-.38,1.88ZM49.27,115.93c0-.82-.16-1.55-.48-2.2-.32-.65-.77-1.17-1.36-1.56-.58-.39-1.28-.58-2.08-.58-.57,0-.97.06-1.21.17-.24.12-.36.39-.36.83v6.25c0,.4.09.69.28.88s.6.28,1.22.28c.78,0,1.47-.15,2.06-.47.6-.31,1.07-.77,1.41-1.38.34-.61.51-1.34.51-2.22ZM59.45,120.03c0,.06-.02.08-.06.08-.26,0-.53,0-.8-.03-.27-.02-.53-.03-.79-.03-.29,0-.53,0-.74.03-.21.02-.44.03-.69.03-.04,0-.06-.03-.06-.08s.02-.08.06-.08c.52,0,.85-.07.98-.21.13-.14.11-.4-.06-.79l-1.59-3.42h-2.77l-1.2,2.88c-.23.57-.25.96-.06,1.2.19.23.61.35,1.24.35.05,0,.07.03.07.08s-.02.08-.07.08c-.28,0-.53,0-.76-.03-.23-.02-.52-.03-.88-.03-.32,0-.59,0-.79.03-.2.02-.44.03-.72.03-.04,0-.06-.03-.06-.08s.02-.08.06-.08c.25,0,.47-.05.65-.14.19-.09.36-.26.52-.5.16-.24.34-.58.52-1.03l2.9-6.99s.05-.04.09-.04.07.01.08.04l3.22,6.92c.21.46.4.82.57,1.08.17.26.33.43.5.52.17.09.35.14.56.14.04,0,.06.03.06.08ZM55.52,115.14l-1.28-2.76-1.15,2.76h2.43ZM65.99,111.02s-.07.02-.08.06c-.05.15-.16.24-.33.28-.17.04-.41.06-.72.06-.36,0-.73,0-1.12.02-.38.01-.91.02-1.56.02-1.07,0-2-.01-2.79-.04-.08,0-.18,0-.3-.02-.12-.01-.22-.04-.31-.08-.09-.04-.13-.11-.13-.2,0-.05-.03-.07-.08-.07s-.08.02-.08.07c0,.15,0,.34-.02.56-.01.23-.03.46-.05.71-.02.25-.04.47-.06.69-.02.21-.04.38-.06.49,0,.02.03.03.08.03s.08,0,.08-.03c.1-.71.28-1.21.55-1.49.26-.28.69-.42,1.27-.42.44,0,.76.01.99.03.22.02.37.1.44.22.07.13.11.34.11.63v6.43c0,.27-.03.47-.1.61-.07.14-.21.23-.41.28-.2.05-.5.07-.9.07-.02,0-.03.03-.03.08s0,.08.03.08c.25,0,.53,0,.83-.01.3,0,.62-.01.95-.01.35,0,.68,0,.98.01.3,0,.57.01.81.01.02,0,.03-.03.03-.08s0-.08-.03-.08c-.41,0-.71-.02-.91-.07-.2-.05-.33-.14-.4-.28-.06-.14-.1-.34-.1-.61v-6.41c0-.3.03-.51.1-.63.07-.13.21-.2.43-.24.22-.03.54-.05.98-.05.64,0,1.08.14,1.32.42.24.28.36.77.36,1.49,0,.02.03.03.08.03s.08,0,.08-.03c0-.11,0-.28.01-.49,0-.22.02-.45.03-.71,0-.25.02-.5.04-.73.02-.23.03-.42.04-.56,0-.04-.02-.06-.07-.06ZM69.32,111.97c.06-.14.18-.24.35-.29.18-.06.44-.08.79-.08.02,0,.03-.03.03-.08s0-.08-.03-.08c-.21,0-.46,0-.73.02-.27.01-.57.02-.9.02-.31,0-.6,0-.87-.02-.27-.01-.52-.02-.74-.02-.03,0-.04.03-.04.08s.01.08.04.08c.35,0,.62.03.8.08.18.05.3.14.36.28.06.13.09.34.09.6v6.43c0,.27-.03.47-.09.61-.06.14-.18.23-.36.28-.18.05-.45.07-.8.07-.03,0-.04.03-.04.08s.01.08.04.08c.22,0,.47,0,.74-.01.27,0,.56-.01.87-.01.32,0,.62,0,.89.01.27,0,.51.01.74.01.02,0,.03-.03.03-.08s0-.08-.03-.08c-.35,0-.62-.02-.8-.07-.18-.05-.3-.14-.35-.28-.06-.14-.08-.34-.08-.61v-6.41c0-.27.03-.47.09-.61ZM80.81,114.05c.2.53.3,1.07.3,1.63,0,.65-.13,1.25-.39,1.81-.26.56-.61,1.04-1.06,1.46-.45.42-.97.74-1.56.98-.59.24-1.21.35-1.87.35s-1.27-.12-1.81-.35c-.54-.24-1.01-.56-1.39-.98-.38-.42-.68-.9-.89-1.44-.21-.54-.31-1.12-.31-1.73,0-.75.15-1.41.44-1.97.29-.56.68-1.04,1.16-1.41.48-.38,1.01-.66,1.58-.84.57-.19,1.14-.28,1.71-.28.69,0,1.3.12,1.84.37s1,.58,1.38.99.67.89.87,1.42ZM80.22,116.07c0-.88-.17-1.66-.51-2.33-.34-.67-.81-1.2-1.42-1.58-.61-.38-1.33-.58-2.15-.58-1.07,0-1.91.33-2.51,1-.6.67-.9,1.57-.9,2.72,0,.65.09,1.26.28,1.83.19.57.46,1.07.82,1.5.36.43.78.77,1.27,1.01.49.24,1.04.36,1.64.36.65,0,1.24-.15,1.76-.45.53-.3.95-.75,1.26-1.33.31-.59.47-1.3.47-2.15ZM91.5,111.43c-.18,0-.37,0-.58.02-.21.01-.43.02-.64.02-.23,0-.44,0-.63-.02-.19-.01-.38-.02-.56-.02-.02,0-.03.03-.03.08s0,.08.03.08c.39,0,.66.1.81.29.15.19.22.53.22,1v6.08l-5.49-6.82c-.21-.27-.34-.46-.39-.56-.05-.11-.13-.16-.25-.16-.06,0-.14,0-.26.01-.12,0-.24.01-.37.01s-.28,0-.44-.01c-.17,0-.33-.01-.49-.01-.03,0-.04.03-.04.08s.01.08.04.08c.22,0,.46.07.7.2.09.05.19.13.3.21v6.66c0,.47-.07.8-.21.99-.14.19-.42.28-.83.28-.02,0-.03.03-.03.08s0,.08.03.08c.19,0,.38,0,.58-.01.2,0,.42-.01.64-.01s.44,0,.63.01c.19,0,.37.01.55.01.03,0,.04-.03.04-.08s-.01-.08-.04-.08c-.39,0-.66-.09-.82-.28-.16-.19-.24-.52-.24-.99v-6.37c.08.08.15.17.24.27l6.28,7.73s.05.01.1,0c.05,0,.07-.02.07-.03v-7.38c0-.47.08-.81.24-1,.16-.19.44-.29.84-.29.03,0,.04-.03.04-.08s-.01-.08-.04-.08Z"/>
      </g>
      <g>
        <polygon class="cls-1" points="51 3.1 47.87 6.25 44.74 3.12 47.84 0 51 3.1"/>
        <g>
          <polygon class="cls-1" points="51 3.2 47.83 .11 44.74 3.23 47.87 6.36 51 3.2"/>
          <path class="cls-1" d="M46.59,14.24c-.25,1.58.32,2.8.94,4.27v7.78h.84v-7.8c.54-1.42,1.31-2.96.82-4.49l-1.26-3.99c-.36,1.42-1,2.67-1.35,4.23Z"/>
          <path class="cls-1" d="M4.75,40.44c0-.08-.03-.12-.1-.12-.72,0-1.24-.22-1.58-.67-.33-.45-.33-1.06.02-1.83l1.37-3.02h3.42l2,3.94c.32.63.44,1.05.36,1.26-.08.21-.39.32-.91.32-.05,0-.08.04-.08.12s.03.12.08.12c.4,0,.76-.01,1.08-.04.32-.03.7-.04,1.13-.04.38,0,.79.01,1.2.04.42.03.82.04,1.2.04.06,0,.1-.04.1-.12s-.03-.12-.1-.12c-.21,0-.41-.07-.61-.22-.2-.15-.41-.4-.63-.75-.22-.35-.49-.83-.8-1.43l-4.81-9.46c-.01-.05-.07-.07-.17-.07-.1,0-.16.03-.17.07l-4.17,9.17c-.32.72-.61,1.27-.86,1.66-.25.39-.5.66-.75.81-.25.15-.55.22-.89.22-.05,0-.08.04-.08.12s.03.12.08.12c.44,0,.8-.01,1.11-.04.3-.03.7-.04,1.2-.04s.89.01,1.21.04c.32.03.67.04,1.06.04.06,0,.1-.04.1-.12ZM7.62,34.27h-2.91l1.37-3.03,1.53,3.03Z"/>
          <path class="cls-1" d="M15.97,39.84c-.07.19-.2.32-.39.38-.19.06-.49.1-.88.1-.03,0-.04.04-.04.12s.01.12.04.12h9.08c.19,0,.29-.1.29-.29,0-.5.02-1.05.06-1.64s.08-1.11.12-1.53c0-.04-.03-.06-.1-.08-.06-.01-.1,0-.12.04-.24.9-.73,1.62-1.46,2.15-.73.54-1.6.81-2.6.81h-.65c-.31,0-.54-.03-.7-.08-.16-.05-.27-.15-.32-.31-.05-.15-.08-.39-.08-.71v-8.81c0-.37.03-.65.1-.85.06-.19.2-.32.39-.39.2-.07.49-.11.88-.11.04,0,.06-.04.06-.12s-.02-.12-.06-.12c-.32,0-.69,0-1.1.03-.41.02-.86.03-1.35.03-.46,0-.91,0-1.34-.03-.43-.02-.8-.03-1.11-.03-.03,0-.04.04-.04.12s.01.12.04.12c.4,0,.69.04.88.11.19.07.32.2.39.38.07.19.11.46.11.84v8.9c0,.37-.04.65-.11.85Z"/>
          <path class="cls-1" d="M25.44,40.55c.33,0,.72,0,1.15-.02.44-.01.88-.02,1.35-.02.68,0,1.27,0,1.78.02.51.01.98.02,1.41.02.03,0,.04-.04.04-.12s-.01-.12-.04-.12c-.58,0-1.01-.04-1.31-.12-.29-.08-.49-.21-.6-.41-.1-.2-.15-.49-.15-.87v-4.12h1.37c.76,0,1.33.15,1.73.45.4.3.6.71.6,1.22,0,.04.04.06.12.06s.12-.02.12-.06c0-.36,0-.69-.02-1-.01-.31-.02-.62-.02-.94,0-.26,0-.5,0-.74,0-.24,0-.57,0-1.01,0-.03-.04-.04-.12-.04s-.12.01-.12.04c0,.45-.19.81-.58,1.08s-.96.4-1.71.4h-1.38v-4.15c0-.35.09-.6.27-.77.18-.17.46-.25.85-.25h.58c.79,0,1.44.18,1.92.53.49.35.83.91,1.04,1.66.03.04.07.05.13.04.06-.01.1-.03.1-.06l-.04-2.56c0-.12-.06-.17-.19-.17h-8.15s-.06.04-.06.12.02.12.06.12c.4,0,.69.04.88.11.19.07.32.2.38.38.06.19.1.46.1.84v8.9c0,.37-.04.65-.11.85-.07.19-.21.32-.42.38-.21.06-.54.1-.97.1-.04,0-.06.04-.06.12s.02.12.06.12Z"/>
          <path class="cls-1" d="M37.12,39.84c-.07.19-.21.32-.4.38-.2.06-.5.1-.89.1-.03,0-.04.04-.04.12s.01.12.04.12c.33,0,.71,0,1.13-.02.42-.01.87-.02,1.33-.02.49,0,.94,0,1.35.02.41.01.78.02,1.12.02.04,0,.06-.04.06-.12s-.02-.12-.06-.12c-.4,0-.69-.03-.88-.1-.19-.06-.32-.19-.38-.38-.06-.19-.1-.47-.1-.85v-8.86c0-.37.03-.65.1-.85.06-.19.2-.33.39-.4.2-.08.49-.12.88-.12.04,0,.06-.04.06-.12s-.02-.12-.06-.12c-.32,0-.69,0-1.11.03-.42.02-.87.03-1.36.03-.46,0-.9,0-1.33-.03-.42-.02-.8-.03-1.13-.03-.03,0-.04.04-.04.12s.01.12.04.12c.4,0,.7.04.89.11.2.07.33.2.4.38.07.19.11.46.11.84v8.9c0,.37-.04.65-.11.85Z"/>
          <path class="cls-1" d="M42.65,32.01c.06,0,.1,0,.12-.05.32-.95.75-1.68,1.3-2.2s1.21-.78,1.99-.78c.24,0,.43.04.56.11.13.07.21.19.26.35.04.16.07.38.07.66v8.9c0,.37-.04.65-.12.85-.08.19-.24.32-.47.38-.23.06-.57.1-1.02.1-.04,0-.06.04-.06.12s.02.12.06.12c.37,0,.78,0,1.23-.02.45-.01.93-.02,1.44-.02.54,0,1.03,0,1.48.02.45.01.85.02,1.21.02.04,0,.06-.04.06-.12s-.02-.12-.06-.12c-.46,0-.8-.03-1.03-.1-.22-.06-.38-.19-.45-.38s-.12-.47-.12-.85v-8.86c0-.29.02-.53.07-.69.04-.17.13-.29.27-.36.13-.07.33-.11.59-.11.76,0,1.4.24,1.93.72.53.48.89,1.23,1.09,2.24.01.04.05.06.12.06s.1-.02.1-.06c0-.17,0-.42.02-.76.01-.34.03-.71.05-1.12.02-.4.04-.79.06-1.15s.04-.65.07-.86c0-.05-.04-.08-.11-.08s-.11.03-.12.08c-.06.21-.21.34-.45.39-.24.06-.59.09-1.05.09-.5,0-1.02,0-1.56.03-.54.02-1.26.03-2.15.03-1.47,0-2.76-.02-3.87-.06-.12,0-.26,0-.43-.03s-.33-.06-.46-.12c-.13-.06-.2-.15-.2-.28,0-.06-.04-.1-.11-.1s-.11.03-.11.1c0,.23,0,.53-.03.88-.02.36-.05.73-.08,1.12-.03.38-.06.74-.09,1.07-.03.33-.05.58-.08.76,0,.04.03.06.1.07Z"/>
          <path class="cls-1" d="M54.44,28.77c.2,0,.46.13.76.39.3.26.71.79,1.22,1.59l2.81,4.36v3.89c0,.37-.04.65-.11.85-.07.19-.21.32-.4.38-.2.06-.5.1-.89.1-.03,0-.04.04-.04.12s.01.12.04.12c.33,0,.71,0,1.13-.02.42-.01.87-.02,1.33-.02.49,0,.93,0,1.34.02.4.01.77.02,1.11.02.04,0,.06-.04.06-.12s-.02-.12-.06-.12c-.4,0-.69-.03-.88-.1-.19-.06-.32-.19-.38-.38s-.1-.47-.1-.85v-4.3l2-3.34c.31-.51.64-.96,1-1.35.36-.38.72-.69,1.08-.91.36-.22.67-.34.92-.34.03,0,.04-.04.04-.12s-.01-.12-.04-.12c-.28,0-.52,0-.72.03-.2.02-.46.03-.78.03-.6,0-1.08,0-1.44-.03-.36-.02-.74-.03-1.15-.03-.04,0-.06.04-.06.12s.02.12.06.12c.6,0,.95.22,1.05.67.1.45-.07,1.03-.49,1.75l-1.77,3.01-2.63-4.15c-.23-.35-.31-.65-.24-.9.07-.26.29-.38.66-.38.03,0,.04-.04.04-.12s-.01-.12-.04-.12c-.23,0-.53,0-.89.02-.37.01-.75.02-1.16.03-.41,0-.79,0-1.15,0-.19,0-.39,0-.6-.03-.21-.02-.4-.03-.6-.03-.04,0-.06.04-.06.12s.02.12.06.12Z"/>
          <path class="cls-1" d="M69.8,26.84h4.83c.09,0,.15-.06.18-.18.03-.12.03-.24,0-.36-.03-.12-.09-.17-.18-.17h-4.83c-.08,0-.13.06-.16.17-.03.12-.03.23,0,.36.03.12.09.18.16.18Z"/>
          <path class="cls-1" d="M65.34,40.32c-.05,0-.08.04-.08.12s.03.12.08.12c.44,0,.8-.01,1.11-.04.3-.03.7-.04,1.2-.04s.89.01,1.21.04c.32.03.67.04,1.06.04.06,0,.1-.04.1-.12s-.03-.12-.1-.12c-.72,0-1.24-.22-1.58-.67-.33-.45-.33-1.06.02-1.83l1.37-3.02h3.42l2,3.94c.32.63.44,1.05.36,1.26-.08.21-.39.32-.91.32-.05,0-.08.04-.08.12s.03.12.08.12c.4,0,.76-.01,1.08-.04.32-.03.7-.04,1.13-.04.38,0,.79.01,1.2.04.42.03.82.04,1.2.04.06,0,.1-.04.1-.12s-.03-.12-.1-.12c-.21,0-.41-.07-.61-.22-.2-.15-.41-.4-.63-.75-.22-.35-.49-.83-.8-1.43l-4.81-9.46c-.01-.05-.07-.07-.17-.07-.1,0-.16.03-.17.07l-4.17,9.17c-.32.72-.61,1.27-.86,1.66-.25.39-.5.66-.75.81-.25.15-.55.22-.89.22ZM72.88,34.27h-2.91l1.37-3.03,1.53,3.03Z"/>
          <path class="cls-1" d="M93.28,28.54c-.28,0-.59,0-.92.03-.33.02-.67.03-1.02.03s-.69,0-.99-.03c-.3-.02-.59-.03-.88-.03-.03,0-.04.04-.04.12s.01.12.04.12c.5,0,.89.2,1.17.61.28.4.42.95.42,1.62v6.21l-6.65-7.67c-.31-.37-.5-.63-.59-.78-.08-.15-.21-.22-.38-.22-.21,0-.49,0-.87.02-.37.01-.79.02-1.25.02-.23,0-.48,0-.75-.02-.27-.01-.53-.02-.79-.02-.03,0-.04.04-.04.12s.01.12.04.12c.32,0,.64.09.96.28.29.17.65.48,1.06.94v8.13c0,.68-.16,1.22-.49,1.62-.33.4-.77.6-1.34.6-.04,0-.06.04-.06.12s.02.12.06.12c.31,0,.64,0,1.01-.02.37-.01.74-.02,1.12-.02.36,0,.69,0,.99.02.3.01.59.02.88.02.03,0,.04-.04.04-.12s-.01-.12-.04-.12c-.5,0-.89-.2-1.17-.6-.28-.4-.42-.94-.42-1.62v-7.47l9.02,10.26s.07.02.12,0c.06,0,.09-.03.09-.07v-9.85c0-.68.15-1.22.44-1.62.29-.4.7-.61,1.21-.61.03,0,.04-.04.04-.12s-.01-.12-.04-.12Z"/>
        </g>
        <path class="cls-1" d="M84.96,66.41c-2.54-1.64-4.9-3.4-7.28-5.32-3.28-2.63-6.6-4.95-10.25-7.03-5.89-3.26-12.24-5.64-19.06-5.7v-5.5s-.83,0-.83,0v5.49c-7.26.16-13.51,2.56-19.69,6.06-3.4,2-6.51,4.18-9.58,6.64-2.38,1.91-4.74,3.68-7.28,5.33-3.02,1.96-5.85-.88-7.32,3.57,4.54.24,8.71-1.7,12.67-3.71h29.73v-.74h-29.26c3.9-5.78,8.49-8.59,15.44-9.47,1.94-3.42,4.93-4.12,8.65-2.75,1.65-1.95,4.04-2.92,6.66-2.8v14.51h0v1.23h0v.45s0,.32,0,.32h0v7.21s-2.43,2.49-2.43,2.49l-.3,8.1,2.69-2.83.09,2.97c.01.18.76.14.76-.06l.06-2.92,2.7,2.85-.33-8.18-2.42-2.44v-7.96s.01-.74.01-.74l-.03-14.98c2.51-.17,5,.78,6.66,2.77,3.63-1.32,6.66-.76,8.64,2.75,6.92.9,11.49,3.6,15.45,9.47h-29.24v.74h29.71c3.93,1.99,8.11,3.97,12.65,3.71-1.91-4.93-4.23-1.59-7.25-3.54Z"/>
      </g>
    </g>
  </g>
</svg>