<?xml version="1.0" encoding="UTF-8"?>
<svg id="Layer_2" data-name="Layer 2" xmlns="http://www.w3.org/2000/svg" viewBox="0 0 141.73 141.73">
  <defs>
    <style>
      .cls-1 {
        fill: #231f20;
      }

      .cls-2 {
        fill: #fff;
      }
    </style>
  </defs>
  <g id="Layer_1" data-name="Layer 1">
    <g>
      <circle class="cls-1" cx="70.87" cy="70.87" r="70.87"/>
      <g>
        <path class="cls-2" d="M17.43,83.47c-.04-.23-.07-.43-.09-.61-.02-.18-.05-.36-.07-.53,0-.02-.03-.03-.08-.02s-.07.02-.06.05c.05.32-.03.59-.24.8-.21.22-.53.35-.94.41l-4.25.59,5.16-3.87s.04-.06.03-.11c0-.05-.03-.08-.06-.08l-6.05-1.5,4.75-1.02c.33-.08.56-.07.68.02.12.09.21.32.27.68,0,.02.03.03.08.02.05,0,.07-.02.06-.05-.03-.2-.07-.43-.12-.68s-.1-.52-.14-.81c-.05-.28-.09-.55-.12-.81s-.07-.49-.1-.69c0-.02-.03-.02-.07-.01-.05,0-.07.02-.07.04.04.23.05.41.03.54s-.09.22-.2.28-.28.12-.5.17l-5.28,1.14c-.31.07-.55.03-.73-.12s-.29-.4-.35-.75c0-.02-.03-.03-.08-.02-.05,0-.07.02-.06.05.03.17.06.34.1.52.04.17.07.39.11.64.02.12.03.22.04.31,0,.09.02.17.03.25.01.09.05.15.1.19.05.04.14.08.25.11l5.47,1.4-4.38,3.33c-.23.17-.38.3-.45.37-.07.07-.09.16-.08.27.01.09.04.2.07.36.03.15.07.33.1.53.02.13.04.28.06.46.02.18.05.35.07.52,0,.02.03.03.08.02.05,0,.07-.02.06-.05-.07-.41.15-.81.66-1.2h.01s4.86-.69,4.86-.69c.42-.06.76-.01,1.03.13s.43.38.49.7c0,.02.03.03.08.02.05,0,.07-.02.06-.05-.03-.17-.06-.36-.1-.56-.04-.2-.08-.43-.12-.68Z"/>
        <path class="cls-2" d="M8.9,70.44c0-.25.04-.43.09-.55s.13-.2.25-.24c.12-.04.29-.05.52-.05l5.49.2c.23,0,.4.04.52.08s.19.13.23.26c.04.12.05.31.04.55,0,.02.02.02.07.03.05,0,.07,0,.07-.02,0-.21.01-.44.01-.7,0-.26,0-.53.02-.82.01-.3.03-.58.04-.83.02-.25.03-.48.04-.69,0-.02-.02-.04-.07-.04-.05,0-.07,0-.07.03,0,.25-.04.43-.08.54-.04.12-.13.19-.25.23s-.29.05-.52.04l-5.47-.2c-.23,0-.4-.03-.52-.08-.12-.04-.2-.13-.24-.25-.04-.12-.06-.31-.05-.54,0-.02-.02-.04-.07-.04s-.07,0-.07.03c0,.2,0,.43,0,.68s0,.54-.01.84c-.01.28-.03.56-.05.82s-.04.49-.04.7c0,.02.02.02.07.03.05,0,.07,0,.07-.02Z"/>
        <path class="cls-2" d="M18.36,54.88c-.06.25-.12.44-.19.57-.07.12-.17.19-.29.21-.13.02-.3,0-.52-.05l-5.36-1.23c-.22-.05-.39-.11-.49-.18s-.16-.17-.17-.31c-.01-.14.01-.34.07-.59,0-.02-.02-.04-.06-.05s-.07,0-.08.02c-.05.2-.09.44-.15.72-.05.28-.11.55-.17.83-.08.36-.16.66-.23.92s-.13.48-.18.68c0,.02.02.04.06.05.05.01.07,0,.08-.02.06-.28.13-.48.21-.61.08-.13.18-.2.31-.22.13-.02.3,0,.52.05l2.35.54-.86,3.74-2.35-.54c-.22-.05-.39-.11-.49-.19s-.17-.18-.18-.33c-.01-.15,0-.36.07-.63,0-.02-.02-.03-.06-.04s-.07,0-.07,0c-.05.22-.1.46-.15.73-.05.27-.11.58-.2.94-.06.28-.13.54-.2.79-.07.25-.13.48-.17.68,0,.02.02.04.06.05s.07,0,.08-.02c.06-.25.12-.44.19-.56.07-.12.17-.18.29-.2.12-.02.29,0,.52.05l5.36,1.23c.22.05.39.11.49.19s.16.18.17.31c0,.14-.02.34-.08.6,0,.02.02.03.06.04.05.01.07,0,.08,0,.05-.2.09-.43.15-.7.05-.26.11-.54.17-.81.08-.36.16-.66.22-.92.07-.26.13-.5.18-.73,0-.02-.02-.03-.06-.04-.05-.01-.07,0-.07,0-.06.27-.13.47-.2.6-.07.13-.17.21-.3.22-.13.02-.3,0-.53-.05l-2.66-.61.86-3.74,2.66.61c.22.05.39.11.49.18.11.07.16.18.17.33s-.02.36-.09.64c0,.02.02.04.06.05s.07,0,.08-.02c.05-.2.09-.43.15-.69.05-.26.12-.57.2-.92.06-.28.13-.55.2-.82.07-.27.13-.51.17-.71,0-.02-.02-.04-.06-.05-.05-.01-.07,0-.08.02Z"/>
        <path class="cls-2" d="M13.54,47.4c.11-.22.21-.37.3-.46.09-.09.2-.12.32-.11s.28.07.49.17l4.94,2.41c.21.1.35.2.44.29.09.09.12.2.11.32-.02.12-.08.3-.19.52-.01.02,0,.04.05.06.04.02.07.02.08,0,.09-.19.19-.39.29-.63.11-.23.22-.48.35-.74.13-.27.26-.52.37-.74.12-.22.22-.43.31-.61,0-.01-.01-.03-.05-.05-.04-.02-.07-.02-.07-.01-.11.22-.2.38-.29.46-.09.09-.19.13-.32.11s-.29-.08-.5-.18l-2.48-1.21c.05-.08.1-.17.15-.28.05-.1.1-.21.15-.3.04-.08.06-.17.09-.25.85-.06,1.61-.13,2.25-.2.69-.08,1.23-.17,1.62-.27.39-.1.62-.21.67-.31.07-.14.18-.37.33-.68s.35-.72.59-1.22c0-.01-.01-.03-.05-.05-.04-.02-.07-.02-.07-.01-.14.28-.4.53-.79.72-.39.2-.95.37-1.69.51-.7.13-1.6.26-2.7.39-.01-.16-.04-.32-.08-.48-.08-.31-.21-.59-.39-.84-.18-.25-.4-.44-.67-.57-.43-.21-.85-.19-1.26.05s-.78.69-1.1,1.35c-.11.24-.22.48-.32.75-.1.26-.2.5-.31.71-.12.26-.25.5-.37.72-.12.22-.23.43-.32.61,0,.01.01.03.05.05.04.02.07.02.07,0ZM14.88,44.82c.09-.19.22-.34.37-.45.15-.11.36-.15.63-.13s.6.14,1.02.34c.52.25.83.5.94.75.11.25.07.56-.11.94-.04.09-.09.18-.16.29-.06.11-.13.21-.19.3l-2.13-1.04c-.16-.08-.29-.17-.37-.26-.08-.09-.12-.2-.12-.32,0-.12.04-.26.12-.42Z"/>
        <path class="cls-2" d="M25.49,39.19c.09.27.13.5.1.67-.03.18-.1.35-.24.52-.02.02-.01.05.03.08.04.03.07.03.09,0,.17-.21.3-.39.41-.55s.25-.35.45-.59c.19-.23.35-.42.49-.57s.28-.31.43-.5c.02-.03.02-.06-.02-.09s-.07-.03-.09,0c-.28.35-.59.51-.93.5-.34-.01-.64-.25-.87-.71l-.93-1.82,1.32-1.65,2.67.56c.43.09.67.19.74.31.07.12,0,.31-.2.56-.02.02-.01.05.03.08.04.03.07.03.09,0,.15-.19.29-.37.4-.53.11-.16.25-.35.42-.56.15-.19.31-.37.48-.56.17-.19.33-.38.48-.56.02-.03.02-.06-.02-.09-.04-.03-.07-.03-.09,0-.08.1-.19.17-.34.21-.15.04-.35.04-.61.02-.26-.03-.59-.08-1-.17l-6.41-1.33s-.06,0-.1.06c-.04.05-.05.09-.03.11l2.81,5.55c.22.43.38.78.47,1.05ZM24.22,35.81l-.93-1.83,2.05.43-1.12,1.4Z"/>
        <path class="cls-2" d="M33.7,29.96c.03.28.01.51-.05.68-.06.17-.18.32-.35.45-.02.02-.02.05,0,.08s.06.05.08.03c.21-.17.38-.32.52-.45.14-.13.32-.29.57-.48.23-.19.43-.34.6-.45.16-.11.34-.24.53-.39.03-.02.03-.06,0-.09s-.06-.04-.09-.02c-.35.28-.69.37-1.02.28-.33-.09-.56-.38-.69-.89l-.5-1.98,1.65-1.32,2.48,1.13c.4.18.62.34.66.47.04.13-.06.3-.32.51-.02.02-.02.05,0,.08.03.04.06.05.08.03.19-.15.36-.3.5-.43.14-.14.32-.29.53-.46.19-.15.38-.3.59-.44.21-.15.41-.3.59-.44.03-.02.03-.06,0-.09s-.06-.04-.09-.02c-.1.08-.22.12-.38.13-.15,0-.35-.03-.59-.12-.24-.08-.56-.21-.94-.38l-5.96-2.71s-.06,0-.11.03c-.05.04-.07.08-.06.1l1.52,6.03c.12.47.2.85.23,1.13ZM33.2,26.38l-.5-1.99,1.91.87-1.4,1.12Z"/>
        <path class="cls-2" d="M40.46,17.18c.2-.1.36-.16.49-.17.13-.02.24.02.33.1s.19.22.29.43l2.46,4.92c.1.21.16.37.16.5,0,.13-.04.24-.13.33-.09.09-.24.18-.44.28-.02.01-.02.04,0,.08s.04.06.06.05c.18-.09.39-.2.62-.32s.47-.25.72-.37c.24-.12.51-.24.82-.37.3-.13.55-.24.74-.33.47-.23.84-.53,1.13-.89.29-.36.46-.74.52-1.14.06-.4,0-.79-.18-1.16s-.44-.63-.77-.8c-.33-.17-.72-.25-1.15-.23-.3.02-.62.1-.94.22.29-.31.5-.62.6-.95.15-.48.13-.91-.07-1.3-.15-.3-.36-.52-.62-.64-.26-.12-.57-.16-.92-.11-.35.05-.74.18-1.17.39-.23.11-.44.24-.65.37-.21.13-.42.25-.62.35-.25.13-.5.24-.73.34-.23.1-.44.2-.62.29-.01,0-.01.03.01.07s.04.06.05.05ZM45.94,18.89c.42.2.75.57,1.02,1.09.23.46.3.87.2,1.23s-.39.66-.87.91c-.22.11-.39.17-.52.18-.13,0-.23-.03-.31-.11s-.15-.19-.23-.33l-1.28-2.55c.06-.04.12-.09.18-.12.17-.09.29-.15.36-.19.55-.28,1.04-.31,1.45-.11ZM42.69,16.23c.06-.08.16-.16.29-.23.22-.11.43-.16.63-.14.2.02.38.1.56.24s.33.35.46.62c.21.41.28.81.24,1.19-.05.38-.26.67-.65.86-.01,0-.1.05-.25.12-.05.02-.12.06-.18.09l-1.01-2.02c-.09-.18-.14-.32-.16-.43s0-.21.07-.29Z"/>
        <path class="cls-2" d="M59.46,10.39c.12.02.21.09.27.2s.1.27.14.5l.82,5.43c.03.23.04.4.01.53-.03.12-.1.22-.22.27-.12.06-.32.11-.58.15-.02,0-.03.03-.02.08,0,.05.02.07.05.07.2-.03.44-.07.7-.12.27-.05.54-.09.82-.14.41-.06.78-.11,1.09-.15.31-.04.6-.08.86-.12.02,0,.02-.03.01-.07,0-.05-.02-.07-.03-.07-.35.05-.62.07-.81.05s-.32-.09-.4-.2c-.08-.11-.14-.29-.17-.52l-.38-2.51.83-.13c.46-.07.83-.03,1.1.12.27.15.43.38.48.69,0,.02.03.03.08.02.05,0,.07-.02.07-.05-.03-.22-.07-.42-.1-.61-.04-.19-.07-.38-.1-.57-.02-.16-.04-.31-.06-.45-.02-.14-.05-.35-.09-.62,0-.02-.03-.02-.07-.01-.05,0-.07.02-.07.03.04.27-.04.51-.25.71-.21.2-.55.33-1.01.4l-.85.13-.38-2.54c-.03-.21,0-.38.09-.49.09-.12.26-.2.49-.23l.35-.05c.49-.07.89-.02,1.22.14.33.17.59.48.79.92.02.02.05.02.09.01.04-.01.06-.03.05-.04l-.26-1.56c-.01-.07-.06-.1-.13-.09l-4.98.75s-.03.03-.02.08c0,.05.02.07.05.07.24-.04.43-.04.55-.02Z"/>
        <path class="cls-2" d="M71.03,15.52c.31.37.69.67,1.14.9.45.23.96.36,1.53.39.56.03,1.1-.04,1.61-.21.51-.17.97-.43,1.37-.76.4-.33.73-.73.98-1.19.25-.46.39-.97.42-1.52.03-.47-.03-.94-.18-1.4-.14-.46-.37-.88-.67-1.25-.3-.37-.68-.68-1.13-.91-.45-.24-.97-.37-1.55-.4-.48-.03-.97.02-1.47.16-.5.13-.96.34-1.39.64-.43.3-.78.68-1.06,1.15-.28.47-.43,1.02-.47,1.66-.03.52.03,1.02.18,1.49.15.47.38.89.69,1.27ZM72.35,10.17c.42-.52.99-.77,1.71-.72.58.03,1.06.22,1.45.57s.68.82.87,1.4c.19.58.26,1.24.22,1.96-.04.7-.17,1.29-.4,1.77-.23.48-.52.83-.89,1.07-.36.23-.76.34-1.21.31-.39-.02-.74-.14-1.06-.35-.32-.21-.59-.5-.81-.88s-.38-.81-.49-1.3-.14-1.03-.11-1.61c.05-.96.29-1.71.71-2.23Z"/>
        <path class="cls-2" d="M84.74,18.19c.37.34.84.59,1.39.75.57.17,1.1.2,1.59.11s.91-.3,1.26-.63.61-.77.76-1.3l.92-3.17c.12-.4.29-.7.53-.89.23-.19.5-.24.81-.15.02,0,.03-.02.04-.06s.01-.07,0-.07c-.17-.05-.35-.1-.55-.14-.2-.05-.4-.1-.61-.16-.24-.07-.45-.14-.65-.21-.2-.07-.39-.13-.58-.19-.02,0-.03.02-.04.06s-.01.07,0,.08c.33.1.56.29.68.59.12.29.12.64,0,1.04l-.93,3.18c-.21.71-.55,1.21-1.02,1.49-.47.28-1.02.33-1.65.14-.62-.18-1.06-.54-1.31-1.06-.25-.53-.24-1.26.03-2.19l.95-3.26c.06-.22.13-.38.21-.48s.18-.16.3-.17c.13-.01.3.01.53.08.02,0,.04-.01.05-.06s0-.07-.01-.08c-.19-.06-.41-.11-.65-.17-.25-.06-.51-.13-.8-.22-.27-.08-.53-.16-.77-.24-.24-.08-.46-.15-.66-.21-.02,0-.04.01-.05.06s0,.07.01.08c.23.07.39.14.5.21.11.08.16.18.17.3,0,.12-.02.29-.09.51l-1.07,3.68c-.16.56-.18,1.08-.05,1.55.13.47.38.88.76,1.22Z"/>
        <path class="cls-2" d="M95.08,22.17c.19.11.37.21.53.31.16.1.31.19.47.27.01,0,.03,0,.06-.05.02-.04.03-.07.01-.07-.27-.15-.42-.37-.45-.67-.03-.3.05-.63.26-1l2.25-4.03,1.77,8.25s.03.03.06.04.06.01.07-.01l2.96-5.31c.2-.37.45-.61.73-.74s.56-.12.84.04c.01,0,.03,0,.06-.05s.03-.07.01-.07c-.15-.08-.32-.17-.51-.26-.19-.09-.37-.19-.56-.29-.19-.11-.37-.21-.53-.31-.16-.1-.31-.19-.46-.28-.01,0-.03,0-.06.05s-.03.07-.01.07c.27.15.42.38.45.68.03.3-.06.64-.26,1l-1.87,3.35-1.28-6.14c-.05-.29-.08-.49-.08-.6,0-.1-.05-.18-.14-.23-.11-.06-.27-.14-.47-.25-.2-.11-.43-.23-.68-.37-.12-.07-.26-.15-.4-.24-.14-.09-.28-.17-.42-.25-.01,0-.03,0-.06.05-.02.04-.03.07-.01.07.17.1.32.24.43.44.11.18.2.46.29.83l-2.44,4.38c-.2.37-.45.61-.75.72-.3.12-.6.09-.9-.08-.02-.01-.04,0-.07.04s-.02.07,0,.08c.17.09.35.19.55.29.2.1.4.21.61.33Z"/>
        <path class="cls-2" d="M104.51,27.96s-.04.06-.03.07c.15.14.33.29.53.46.2.17.41.35.62.54.24.21.49.45.75.72.27.27.49.49.68.66.39.35.83.62,1.3.8.47.18.96.27,1.45.26.5,0,.98-.12,1.45-.34.47-.22.91-.55,1.31-.99.46-.51.74-1.08.85-1.71.11-.63.05-1.27-.19-1.91-.24-.64-.67-1.24-1.28-1.79-.18-.16-.41-.35-.67-.57-.27-.21-.51-.42-.72-.61-.22-.2-.42-.38-.6-.56-.18-.18-.35-.34-.5-.47-.02-.02-.04,0-.07.03s-.04.06-.02.08c.18.16.3.3.36.41.06.11.07.23.02.34-.05.11-.15.25-.3.42l-3.68,4.09c-.15.17-.29.28-.4.34-.11.06-.23.06-.34,0-.12-.05-.27-.16-.45-.33-.01-.01-.03,0-.07.04ZM106.84,28.68l3.57-3.97c.22-.24.43-.33.63-.26.21.07.48.25.82.56.38.34.6.76.67,1.25.06.49-.01,1-.23,1.55-.21.54-.54,1.07-.99,1.57-.48.54-.97.91-1.47,1.14-.5.22-.98.3-1.44.23-.46-.07-.88-.27-1.25-.6-.37-.33-.57-.6-.59-.81-.02-.21.07-.42.26-.64Z"/>
        <path class="cls-2" d="M112.92,35.93s-.05-.02-.09,0c-.04.03-.05.05-.03.08.16.22.29.4.42.54.12.14.27.34.45.59.17.25.31.45.42.62.1.17.22.35.36.54.02.03.05.04.09,0,.04-.03.05-.06.02-.09-.26-.36-.33-.71-.23-1.03s.41-.54.92-.65l2.01-.4,1.23,1.72-1.26,2.42c-.2.39-.37.6-.51.63-.14.03-.3-.08-.49-.34-.02-.03-.05-.02-.09,0s-.05.05-.03.08c.14.2.28.38.41.53s.27.34.43.56c.14.19.27.4.41.62.14.22.27.42.41.62.02.03.05.03.09,0,.04-.03.05-.06.02-.09-.07-.1-.11-.23-.11-.38,0-.15.05-.35.15-.59.1-.24.24-.54.43-.91l3.03-5.81s.01-.06-.03-.11c-.04-.05-.07-.07-.1-.06l-6.11,1.19c-.48.1-.86.15-1.14.17s-.51-.01-.67-.09c-.16-.07-.31-.2-.43-.37ZM117.63,36.09l2.02-.4-.97,1.86-1.04-1.46Z"/>
        <path class="cls-2" d="M125.85,44.11c.43.18.74.49.94.93.06.14.09.25.08.34,0,.09-.05.17-.13.23-.08.07-.2.13-.36.21l-5.02,2.24c-.21.09-.38.14-.51.14-.13,0-.24-.06-.34-.17-.09-.11-.2-.3-.31-.55,0-.02-.04-.02-.08,0-.04.02-.06.04-.05.06.09.21.2.44.32.69.12.25.24.52.37.81.14.3.26.58.36.84.11.26.2.49.29.69,0,.02.04.02.08,0,.04-.02.06-.04.05-.06-.12-.26-.18-.46-.2-.6s.01-.26.1-.35c.09-.09.24-.18.45-.28l5-2.23c.17-.07.3-.12.41-.14.11-.02.19,0,.27.06.07.06.14.16.21.3.19.43.22.85.08,1.27-.14.42-.47.81-.99,1.18-.02.02-.02.04,0,.08.02.04.03.05.06.04.09-.04.24-.1.43-.18s.41-.16.64-.25c.23-.09.45-.18.66-.26.21-.08.38-.14.5-.18.03-.01.03-.04.02-.08s-.04-.06-.07-.05c-.13.02-.24-.04-.34-.16-.09-.12-.2-.31-.31-.57-.13-.28-.26-.57-.41-.87-.15-.3-.33-.7-.56-1.21-.37-.83-.68-1.56-.94-2.19-.03-.07-.06-.15-.09-.25-.03-.1-.05-.2-.05-.29s.03-.15.11-.18c.04-.02.05-.04.03-.08s-.04-.05-.08-.04c-.13.06-.3.13-.51.21-.21.08-.42.16-.65.24-.22.08-.43.15-.62.22s-.34.12-.45.15c-.02,0-.03.03-.01.07s.03.05.06.05c.62-.06,1.14,0,1.57.18Z"/>
        <path class="cls-2" d="M124.06,58.89c.05.25.1.47.15.67,0,.02.03.03.08.02.05-.01.07-.03.06-.05-.06-.24-.08-.42-.07-.54.01-.13.07-.22.17-.29.11-.07.27-.13.49-.18l5.31-1.31c.22-.05.4-.08.52-.07s.22.07.3.18c.08.11.14.28.2.51,0,.02.03.03.08.02.05-.01.07-.03.06-.05-.05-.19-.11-.41-.18-.66-.07-.25-.15-.52-.22-.81-.07-.28-.13-.54-.18-.8s-.1-.48-.15-.68c0-.02-.03-.02-.07,0-.05.01-.07.02-.06.04.06.24.08.42.07.55s-.07.23-.17.3c-.1.07-.26.13-.49.19l-5.34,1.32c-.22.05-.4.08-.52.06-.13-.01-.22-.08-.29-.19s-.13-.28-.19-.52c0-.02-.03-.02-.08,0-.05.01-.07.02-.06.04.05.2.11.43.18.68.07.25.14.52.21.79.07.29.13.56.19.81Z"/>
        <path class="cls-2" d="M132.6,66.7c-.18-.48-.45-.92-.79-1.31-.34-.39-.76-.7-1.26-.93-.5-.22-1.06-.32-1.7-.28-.52.03-1.01.14-1.46.34-.45.2-.85.48-1.19.82-.34.35-.6.76-.77,1.23-.18.47-.25.99-.22,1.56.03.56.16,1.09.39,1.58s.53.92.91,1.28.81.65,1.29.84c.49.2,1.01.28,1.56.25.47-.02.93-.13,1.37-.33.44-.19.83-.46,1.17-.8.34-.34.6-.75.79-1.22.19-.47.26-1,.23-1.59-.03-.48-.13-.96-.31-1.45ZM132.16,69.19c-.31.43-.74.77-1.3,1.02-.56.25-1.2.4-1.93.43-.7.04-1.31-.03-1.81-.21s-.89-.43-1.16-.77c-.27-.33-.42-.72-.44-1.17-.02-.39.06-.75.23-1.09s.44-.64.79-.9.76-.47,1.24-.63,1.01-.25,1.58-.28c.96-.05,1.73.1,2.29.46.57.36.87.9.91,1.62.03.58-.11,1.08-.41,1.51Z"/>
        <path class="cls-2" d="M132.48,78.11c-.03.19-.13.38-.27.55-.13.16-.37.34-.69.54l-4.93-.88c-.41-.07-.72-.23-.93-.47-.21-.24-.28-.53-.22-.88,0-.02-.02-.04-.06-.05-.05,0-.07,0-.08.02-.03.19-.07.39-.1.62-.03.22-.07.45-.11.69-.04.22-.08.42-.12.6-.04.18-.08.36-.11.53,0,.02.02.03.07.04.05,0,.07,0,.07-.01.05-.3.22-.52.49-.65s.61-.16,1.03-.08l4.54.81-7.21,4.37s-.02.04-.02.07c0,.04,0,.06.03.06l5.98,1.07c.41.07.73.22.94.45.21.22.29.49.24.8,0,.02.02.03.07.04.05,0,.07,0,.07-.01.03-.17.06-.36.08-.56.02-.21.06-.41.09-.62.04-.22.08-.42.12-.6.04-.18.08-.36.11-.53,0-.02-.02-.03-.07-.04-.05,0-.07,0-.07.01-.05.3-.22.52-.5.65-.28.13-.62.16-1.03.08l-3.77-.67,5.38-3.21c.26-.15.44-.24.54-.27.1-.04.16-.1.18-.2.02-.13.05-.3.08-.53.03-.23.07-.48.12-.76.02-.14.06-.29.09-.45.04-.16.07-.32.1-.48,0-.02-.02-.03-.07-.04-.05,0-.07,0-.07.01Z"/>
        <path class="cls-2" d="M26.86,103.67c.11.09.25.25.41.48.3.42.42.82.36,1.19-.06.37-.33.76-.81,1.17-.02.01-.02.04,0,.07s.05.05.07.03c.08-.06.2-.14.37-.25.17-.11.35-.23.55-.35.2-.13.39-.25.57-.36.18-.12.33-.2.43-.26.03-.02.03-.05,0-.08-.03-.04-.05-.05-.08-.04-.13.04-.25.01-.36-.09-.12-.1-.25-.26-.41-.48-.18-.25-.38-.51-.58-.78-.21-.27-.47-.63-.8-1.08-.54-.75-1-1.41-1.38-1.99-.04-.06-.09-.13-.14-.23s-.08-.18-.1-.27c-.02-.09,0-.15.07-.2.03-.02.03-.05,0-.09-.03-.04-.06-.05-.09-.02-.11.08-.25.17-.43.29-.18.11-.36.23-.55.34s-.37.22-.54.32c-.17.1-.3.17-.39.21-.02.01-.02.04,0,.07.03.04.05.05.06.05.57-.24,1.06-.33,1.44-.26.39.07.73.3,1.02.71.16.22.27.4.33.53.06.13.06.25,0,.35s-.18.22-.35.34l-4.53,3.24c-.19.14-.35.22-.48.24-.13.02-.26-.02-.39-.13-.13-.11-.28-.29-.47-.55-.01-.02-.04-.02-.08.01-.04.03-.05.05-.04.07.13.18.28.38.44.59.16.21.33.44.51.69.19.26.35.5.5.73.15.22.29.42.41.6,0,.01.03,0,.07-.02.04-.03.05-.05.04-.06-.19-.27-.32-.48-.37-.63s-.05-.28.01-.39c.07-.11.2-.24.38-.37l4.51-3.23c.18-.13.33-.21.44-.23.11-.02.22,0,.33.1Z"/>
        <path class="cls-2" d="M37.34,114.32s.04-.06.02-.08c-.14-.13-.31-.28-.52-.44-.2-.17-.4-.34-.6-.52-.23-.21-.44-.4-.62-.58s-.34-.33-.48-.46c-.02-.02-.04,0-.08.03-.03.04-.04.06-.02.08.23.21.38.37.45.51.07.13.09.26.04.38-.05.12-.15.27-.3.44l-1.66,1.83-3.25-2.95,1.66-1.83c.16-.17.29-.28.41-.34.12-.05.25-.05.39.02.14.06.32.2.54.39.01.01.03,0,.07-.04s.04-.06.03-.07c-.15-.13-.32-.28-.52-.44-.2-.16-.41-.35-.65-.56-.2-.18-.39-.36-.57-.54-.18-.18-.34-.33-.49-.47-.02-.02-.04,0-.08.03-.03.04-.04.06-.02.08.21.19.35.35.43.48.08.13.09.25.05.37s-.14.26-.3.44l-3.74,4.12c-.16.17-.29.29-.41.34-.12.06-.24.05-.38-.02-.14-.07-.31-.2-.53-.4-.01-.01-.03,0-.07.04-.03.04-.04.06-.03.07.15.13.32.29.52.45.2.17.39.34.6.52.24.22.45.41.62.58.18.17.34.33.5.47.01.01.03,0,.07-.04.03-.04.04-.06.03-.07-.22-.2-.37-.37-.46-.5s-.11-.26-.06-.38c.05-.12.15-.27.3-.44l1.88-2.07,3.25,2.95-1.88,2.07c-.16.17-.29.29-.41.34-.12.06-.24.05-.38-.02-.13-.07-.31-.2-.54-.41-.02-.02-.04,0-.08.03-.03.04-.04.06-.02.08.14.13.31.28.5.44.19.16.4.35.64.56.2.18.4.37.58.55.19.18.35.34.5.47.02.02.04,0,.08-.03.03-.04.04-.06.02-.08-.21-.19-.35-.35-.44-.48-.08-.13-.1-.25-.06-.38.05-.12.15-.27.3-.44l3.74-4.12c.16-.17.29-.28.4-.34.11-.05.24-.05.38.02.14.07.31.2.52.38.02.02.04,0,.08-.03Z"/>
        <path class="cls-2" d="M40.83,116.62s-.04,0-.07.04-.03.07,0,.08c.23.14.4.26.5.37.1.11.14.23.12.35-.02.12-.09.29-.2.49l-2.84,4.79c-.12.2-.23.34-.33.42-.1.08-.22.1-.37.06-.14-.04-.33-.13-.56-.26-.02-.01-.04,0-.07.04s-.03.07,0,.08l4.41,2.61c.1.06.19.04.25-.06.13-.22.28-.46.46-.71.18-.25.33-.46.47-.63.01-.02,0-.05-.04-.08-.04-.03-.06-.04-.07-.02-.35.37-.72.6-1.11.68-.39.08-.79,0-1.18-.23l-.68-.4c-.19-.11-.32-.21-.4-.31s-.11-.21-.1-.32c.02-.11.07-.26.17-.42l1.4-2.37,1.11.66c.37.22.6.45.69.69.09.24.04.51-.14.81,0,.01,0,.03.05.06.04.02.07.03.07.02.11-.18.2-.35.28-.52.08-.16.17-.33.27-.48.08-.13.15-.25.23-.37s.17-.28.3-.49c0-.01,0-.03-.05-.05-.04-.02-.06-.03-.07-.01-.15.26-.35.39-.58.42-.24.02-.53-.07-.88-.28l-1.14-.67,1.24-2.1c.1-.17.2-.28.29-.35s.21-.09.34-.06c.13.03.3.11.51.23l.53.31c.36.21.59.48.69.81.1.33.07.7-.11,1.1,0,.02.01.05.05.07s.07.02.08,0l.75-1.32c.04-.06.02-.11-.05-.15l-4.22-2.5Z"/>
        <path class="cls-2" d="M57.48,123.93c-.22-.05-.45-.1-.71-.17s-.5-.14-.74-.22-.46-.14-.67-.2c-.02,0-.03.02-.04.06-.01.05-.01.07,0,.08.27.07.47.15.59.23.12.08.2.18.22.31.02.13,0,.3-.06.53l-1.57,5.85c-.2.73-.43,1.32-.71,1.77-.28.45-.66.75-1.15.88-.02,0-.02.03-.01.08,0,.05.03.07.05.06.41-.05.77-.13,1.06-.25.3-.12.55-.28.77-.5.21-.21.4-.49.56-.83s.31-.77.44-1.27l1.48-5.52c.09-.33.2-.54.32-.62.12-.08.36-.08.71.02.02,0,.03-.02.04-.06s.01-.07,0-.08c-.17-.05-.36-.09-.58-.14Z"/>
        <path class="cls-2" d="M69.27,126.66c-.3-.39-.67-.7-1.12-.95s-.97-.4-1.56-.45c-.49-.04-.99,0-1.49.12-.51.12-.98.32-1.43.61s-.81.67-1.1,1.14c-.29.47-.46,1.02-.52,1.67-.04.53,0,1.03.15,1.51.14.48.36.92.67,1.3.3.39.68.7,1.13.94.45.24.96.39,1.54.43.57.05,1.11-.01,1.64-.17.52-.16.99-.41,1.41-.74.42-.33.76-.72,1.02-1.18.26-.46.42-.97.46-1.53.04-.48,0-.95-.14-1.42-.14-.47-.35-.9-.65-1.28ZM68.94,129.61c-.06.73-.23,1.33-.5,1.81-.28.48-.63.83-1.06,1.06-.43.23-.9.32-1.4.28-.46-.04-.88-.17-1.25-.41s-.68-.55-.93-.94c-.25-.39-.43-.84-.54-1.34s-.14-1.04-.09-1.61c.08-.98.37-1.74.88-2.27.51-.53,1.18-.76,2.02-.69.66.05,1.21.27,1.66.63.45.37.78.86.99,1.46.21.6.29,1.27.23,2.02Z"/>
        <path class="cls-2" d="M81.7,124.59c-.19.04-.39.07-.59.1-.23.03-.45.06-.65.07-.2.02-.39.04-.57.06-.02,0-.03.03-.03.08,0,.05.02.07.05.07.35-.05.63.02.84.21.21.19.34.48.39.87l.47,3.38c.11.78,0,1.41-.33,1.9-.33.49-.84.78-1.54.87-.73.1-1.34-.06-1.81-.47-.48-.42-.78-1.1-.91-2.05l-.47-3.38c-.03-.23-.03-.41,0-.53.03-.13.11-.22.24-.29.13-.07.33-.12.6-.16.02,0,.03-.03.03-.08,0-.05-.02-.07-.05-.07-.18.02-.39.06-.63.11s-.5.09-.79.13c-.28.04-.54.07-.78.09s-.46.05-.66.07c-.02,0-.03.03-.03.08,0,.05.02.07.05.07.27-.04.48-.04.62-.02s.25.09.31.2c.06.11.11.28.14.51l.53,3.82c.08.58.27,1.06.58,1.45s.69.66,1.17.83c.48.16,1.01.21,1.6.13.57-.08,1.06-.26,1.45-.55s.69-.66.87-1.12c.18-.46.23-.99.15-1.59l-.46-3.37c-.05-.4-.02-.71.12-.95.13-.23.36-.37.68-.42.02,0,.02-.03.01-.07,0-.05-.02-.07-.03-.07-.17.02-.35.05-.54.09Z"/>
        <path class="cls-2" d="M94.83,127.74c-.43-.12-.97-.38-1.61-.78-.63-.39-1.41-.93-2.35-1.62.12-.14.23-.29.32-.45.15-.28.24-.57.28-.87.04-.3,0-.6-.1-.87-.16-.44-.46-.73-.9-.86-.43-.13-.98-.07-1.62.16-.2.07-.43.17-.69.29-.26.12-.48.22-.69.29-.26.09-.5.18-.73.25-.23.07-.44.14-.63.21-.02,0-.01.03,0,.08.02.04.03.06.05.06.26-.1.47-.15.61-.15.14,0,.26.04.34.13.08.09.17.25.25.47l1.91,5.23c.08.22.12.39.11.52,0,.13-.07.24-.19.33s-.3.18-.56.27c-.02,0-.03.04,0,.08.02.04.04.06.06.05.19-.07.4-.15.63-.24.23-.09.47-.19.73-.28.27-.1.52-.19.75-.26.23-.08.44-.15.63-.22.02,0,.03-.03,0-.08-.02-.05-.04-.06-.06-.06-.26.1-.47.15-.61.16s-.26-.03-.34-.13-.16-.26-.24-.47l-.97-2.67c.09-.02.18-.05.28-.08.1-.03.19-.06.28-.1.17-.06.33-.14.48-.24.71.55,1.35,1.03,1.91,1.43.59.42,1.07.73,1.46.93s.64.28.76.24c.13-.05.33-.12.59-.22.27-.1.61-.22,1.03-.38.02,0,.03-.04,0-.08-.02-.05-.04-.06-.06-.06-.31.11-.68.11-1.11-.01ZM89.43,125.92c-.13.03-.25.07-.35.1l-.82-2.25c-.08-.23-.12-.4-.11-.53,0-.13.06-.23.15-.31.09-.07.23-.14.41-.21.24-.09.47-.12.7-.1s.44.13.64.33c.2.2.38.51.53.94.19.53.22.94.1,1.23-.13.29-.43.52-.92.7-.09.03-.2.07-.33.1Z"/>
        <path class="cls-2" d="M103.01,115.68c.03-.26.18-.48.47-.66.01,0,0-.03-.02-.07-.03-.04-.05-.06-.06-.05-.14.09-.29.19-.45.31-.16.11-.32.22-.49.33-.18.11-.34.21-.5.29-.16.08-.3.17-.45.26-.01,0,0,.03.02.07.03.04.05.06.06.05.28-.18.53-.22.77-.12.23.09.46.32.69.67l2.49,3.92-6.68-2.16c-.28-.1-.47-.17-.56-.22-.09-.05-.18-.05-.27,0-.07.04-.17.11-.3.2-.13.09-.28.19-.44.29-.11.07-.23.14-.36.22-.13.07-.26.15-.39.23-.01,0,0,.03.02.07.03.04.05.06.06.05.17-.11.37-.17.61-.18.15,0,.35.02.57.07l2.93,4.61c.22.35.32.66.29.91-.03.25-.19.48-.49.67-.01,0,0,.03.02.07.03.04.05.06.06.05.15-.1.31-.2.47-.31.16-.11.34-.23.51-.34.18-.12.35-.22.5-.3s.3-.17.44-.26c.01,0,0-.03-.02-.07-.03-.04-.05-.06-.06-.05-.28.18-.53.22-.77.13s-.47-.31-.69-.66l-2.75-4.33,8.34,2.62s.04-.01.07-.04c.03-.02.04-.04.03-.05l-3.37-5.31c-.22-.35-.32-.66-.3-.92Z"/>
        <path class="cls-2" d="M114.82,113.3c-.19-.24-.35-.44-.48-.62-.02-.02-.05-.01-.09.02s-.05.05-.04.07c.26.44.38.85.35,1.25-.03.4-.21.76-.54,1.07l-.57.55c-.16.15-.29.25-.41.3-.12.05-.23.05-.34,0-.11-.05-.23-.14-.36-.28l-1.91-1.99.93-.89c.31-.3.6-.46.85-.48.26-.02.5.1.74.35.01.01.03,0,.07-.03.03-.03.05-.06.04-.07-.14-.15-.28-.29-.42-.41s-.27-.25-.4-.39c-.11-.11-.2-.21-.3-.32s-.22-.24-.4-.42c-.01-.01-.03,0-.06.03-.03.03-.04.05-.03.06.21.21.29.44.25.67-.04.24-.21.49-.5.78l-.95.92-1.69-1.76c-.13-.14-.22-.26-.26-.38-.04-.11-.03-.23.04-.34.06-.12.18-.26.36-.43l.44-.42c.3-.29.62-.44.97-.45.34-.01.69.12,1.03.4.02.01.05,0,.08-.03.03-.03.04-.06.02-.08l-1.07-1.08c-.05-.05-.1-.05-.16,0l-3.54,3.4s0,.04.02.08c.03.03.06.04.08.03.2-.19.36-.32.49-.38s.26-.07.37-.02c.12.05.25.16.41.33l3.86,4.02c.16.17.27.31.31.43.05.12.04.24-.04.37-.07.13-.21.28-.4.47-.02.02,0,.04.02.08.03.03.06.04.08.03l3.7-3.55c.09-.08.09-.17,0-.26-.18-.18-.36-.4-.56-.63Z"/>
        <path class="cls-2" d="M121.96,105.78c-.16.23-.3.39-.41.47-.11.09-.23.11-.35.08-.12-.03-.28-.12-.47-.25l-2.21-1.58-1.05-2.58c-.12-.3-.21-.58-.26-.85-.05-.27-.05-.53-.02-.76.03-.23.1-.42.2-.56,0-.01,0-.03-.04-.06-.04-.03-.06-.04-.07-.02-.1.14-.18.27-.25.38-.06.11-.15.24-.27.41-.2.27-.36.49-.49.65s-.26.33-.4.52c-.01.02,0,.04.04.07.04.03.07.03.08.01.21-.29.42-.4.64-.33.22.08.42.33.61.76l.95,2.34-3.32-.1c-.24,0-.38-.06-.43-.18-.05-.12,0-.3.17-.53,0-.01,0-.03-.05-.06-.04-.03-.06-.04-.07-.02-.08.12-.18.26-.29.42-.11.16-.22.34-.34.51s-.25.36-.38.54c-.07.1-.16.21-.25.32s-.18.22-.25.32c-.01.02,0,.04.04.07.04.03.07.03.08.01.13-.18.31-.31.54-.38s.58-.1,1.05-.09l3.44.1,2.05,1.46c.19.13.32.26.39.37.07.11.08.23.03.37-.05.14-.15.32-.32.55-.01.02,0,.04.04.07.04.03.07.03.08.01.11-.16.24-.34.38-.55.14-.21.29-.43.45-.65.17-.24.33-.45.47-.64s.28-.37.39-.53c.01-.02,0-.04-.04-.07-.04-.03-.07-.03-.08-.01Z"/>
        <polygon class="cls-2" points="70.81 38.69 73.56 35.92 73.52 35.88 73.56 35.83 70.78 33.11 68.06 35.85 68.11 35.9 68.06 35.94 70.81 38.69"/>
        <path class="cls-2" d="M69.68,45.62c-.22,1.38.28,2.46.83,3.75v6.83h.74v-6.85c.48-1.25,1.15-2.6.72-3.95l-1.1-3.51c-.32,1.25-.87,2.35-1.19,3.72Z"/>
        <path class="cls-2" d="M29.61,68.34c-.22.13-.48.19-.79.19-.04,0-.07.03-.07.1s.02.1.07.1c.38,0,.71-.01.97-.03.26-.02.62-.03,1.06-.03s.78.01,1.06.03c.28.02.59.03.93.03.06,0,.08-.03.08-.1s-.03-.1-.08-.1c-.63,0-1.09-.2-1.39-.59-.29-.39-.29-.93.02-1.6l1.2-2.65h3.01l1.75,3.46c.28.55.39.92.31,1.11-.07.19-.34.28-.8.28-.05,0-.07.03-.07.1s.02.1.07.1c.35,0,.66-.01.95-.03.28-.02.61-.03,1-.03.34,0,.69.01,1.06.03.37.02.72.03,1.06.03.06,0,.08-.03.08-.1s-.03-.1-.08-.1c-.18,0-.36-.06-.53-.19-.17-.13-.36-.35-.56-.66-.2-.31-.43-.73-.7-1.26l-4.22-8.31s-.06-.06-.15-.06c-.09,0-.14.03-.15.06l-3.67,8.06c-.28.63-.53,1.12-.75,1.46-.22.34-.44.58-.66.71ZM34.1,60.55l1.35,2.66h-2.55l1.21-2.66Z"/>
        <path class="cls-2" d="M45.72,68.26c-.27,0-.48-.02-.62-.07-.14-.04-.23-.14-.28-.27-.05-.14-.07-.34-.07-.62v-7.74c0-.33.03-.57.08-.74.06-.17.17-.28.35-.35.17-.06.43-.09.77-.09.03,0,.05-.03.05-.1s-.02-.1-.05-.1c-.28,0-.6,0-.96.03-.36.02-.75.03-1.18.03-.41,0-.8,0-1.17-.03-.38-.02-.7-.03-.97-.03-.02,0-.03.03-.03.1s.01.1.03.1c.35,0,.61.03.78.09.17.06.28.17.35.34.06.16.09.41.09.73v7.82c0,.33-.03.57-.09.74-.06.17-.18.28-.35.34-.17.06-.43.08-.78.08-.02,0-.03.03-.03.1s.01.1.03.1h7.97c.17,0,.25-.08.25-.25,0-.44.02-.92.05-1.44s.07-.97.1-1.34c0-.03-.03-.06-.08-.07-.06-.01-.09,0-.1.03-.21.79-.64,1.42-1.28,1.89-.64.47-1.4.71-2.28.71h-.57Z"/>
        <path class="cls-2" d="M51.11,68.74c.29,0,.63,0,1.01-.02.38-.01.78-.02,1.18-.02.6,0,1.12,0,1.56.02.44.01.86.02,1.24.02.02,0,.03-.03.03-.1s-.01-.1-.03-.1c-.51,0-.89-.03-1.15-.1-.26-.07-.43-.19-.52-.36-.09-.17-.14-.43-.14-.77v-3.62h1.2c.66,0,1.17.13,1.52.4.35.26.52.62.52,1.07,0,.03.03.05.1.05s.1-.02.1-.05c0-.32,0-.61-.02-.88-.01-.27-.02-.55-.02-.83,0-.23,0-.44,0-.65,0-.21,0-.5,0-.89,0-.02-.03-.03-.1-.03s-.1.01-.1.03c0,.39-.17.71-.51.95s-.84.35-1.5.35h-1.22v-3.65c0-.3.08-.53.24-.68.16-.15.41-.22.74-.22h.51c.7,0,1.26.15,1.69.46.43.31.73.8.91,1.46.02.03.06.05.12.03.06-.01.08-.03.08-.05l-.03-2.25c0-.1-.06-.15-.17-.15h-7.16s-.05.03-.05.1.02.1.05.1c.35,0,.61.03.78.09.17.06.28.17.34.34.06.16.08.41.08.73v7.82c0,.33-.03.57-.09.74-.06.17-.19.28-.37.34-.19.06-.47.08-.85.08-.03,0-.05.03-.05.1s.02.1.05.1Z"/>
        <path class="cls-2" d="M62.39,58.23c-.41,0-.79,0-1.17-.03-.37-.02-.7-.03-1-.03-.02,0-.03.03-.03.1s.01.1.03.1c.35,0,.61.03.79.09.17.06.29.17.35.34.06.16.09.41.09.73v7.82c0,.33-.03.57-.09.74-.06.17-.18.28-.35.34-.17.06-.44.08-.79.08-.02,0-.03.03-.03.1s.01.1.03.1c.29,0,.62,0,1-.02.37-.01.76-.02,1.17-.02.43,0,.82,0,1.18.02.36.01.69.02.98.02.03,0,.05-.03.05-.1s-.02-.1-.05-.1c-.35,0-.61-.03-.78-.08-.17-.06-.28-.17-.34-.34-.06-.17-.08-.42-.08-.74v-7.79c0-.33.03-.57.08-.74.06-.17.17-.29.35-.35.17-.07.43-.1.77-.1.03,0,.05-.03.05-.1s-.02-.1-.05-.1c-.28,0-.61,0-.97.03-.37.02-.76.03-1.19.03Z"/>
        <path class="cls-2" d="M66.33,61.18c.28-.83.66-1.48,1.14-1.93s1.06-.68,1.75-.68c.21,0,.38.03.49.09.11.06.19.16.23.3.04.14.06.34.06.58v7.82c0,.33-.04.57-.11.74-.07.17-.21.28-.41.34-.2.06-.5.08-.9.08-.03,0-.05.03-.05.1s.02.1.05.1c.33,0,.69,0,1.08-.02.39-.01.82-.02,1.27-.02.47,0,.91,0,1.3.02.39.01.75.02,1.06.02.03,0,.05-.03.05-.1s-.02-.1-.05-.1c-.41,0-.71-.03-.9-.08-.2-.06-.33-.17-.4-.34s-.1-.42-.1-.74v-7.79c0-.26.02-.46.06-.61.04-.15.12-.25.24-.31.12-.06.29-.09.52-.09.66,0,1.23.21,1.7.63.47.42.79,1.08.95,1.97.01.03.04.05.1.05s.08-.02.08-.05c0-.15,0-.37.02-.67.01-.3.03-.62.04-.98.02-.35.03-.69.05-1.01s.04-.57.06-.75c0-.04-.03-.07-.09-.07s-.1.02-.11.07c-.06.18-.19.3-.4.35-.21.05-.52.08-.92.08-.44,0-.9,0-1.37.03-.47.02-1.1.03-1.89.03-1.3,0-2.43-.02-3.4-.05-.1,0-.23,0-.38-.03s-.29-.05-.41-.1c-.12-.05-.18-.13-.18-.25,0-.06-.03-.08-.09-.08s-.09.03-.09.08c0,.2,0,.46-.03.78-.02.32-.04.64-.07.98-.03.34-.05.65-.08.94-.02.29-.05.51-.07.67,0,.03.03.05.08.06.06,0,.09,0,.1-.04Z"/>
        <path class="cls-2" d="M77.1,58.2c-.18-.02-.35-.03-.52-.03-.03,0-.05.03-.05.1s.02.1.05.1c.18,0,.4.12.67.35.26.23.62.7,1.07,1.39l2.47,3.83v3.42c0,.33-.03.57-.09.74-.06.17-.18.28-.35.34-.17.06-.44.08-.79.08-.02,0-.03.03-.03.1s.01.1.03.1c.29,0,.62,0,1-.02.37-.01.76-.02,1.17-.02.43,0,.82,0,1.17.02.35.01.68.02.97.02.03,0,.05-.03.05-.1s-.02-.1-.05-.1c-.35,0-.61-.03-.78-.08-.17-.06-.28-.17-.34-.34s-.08-.42-.08-.74v-3.77l1.76-2.93c.27-.45.56-.84.88-1.18.32-.34.63-.61.95-.8.32-.2.59-.3.81-.3.02,0,.03-.03.03-.1s-.01-.1-.03-.1c-.25,0-.46,0-.63.03-.17.02-.4.03-.68.03-.53,0-.95,0-1.27-.03-.32-.02-.65-.03-1.01-.03-.03,0-.05.03-.05.1s.02.1.05.1c.53,0,.84.2.92.59.08.39-.06.91-.43,1.54l-1.56,2.65-2.31-3.64c-.2-.3-.27-.57-.21-.79.06-.23.26-.34.58-.34.02,0,.03-.03.03-.1s-.01-.1-.03-.1c-.2,0-.46,0-.79.02-.32.01-.66.02-1.02.03-.36,0-.7,0-1.01,0-.17,0-.34,0-.52-.03Z"/>
        <path class="cls-2" d="M94.32,56.69c.08,0,.13-.05.16-.16.03-.11.03-.21,0-.31-.03-.1-.08-.15-.16-.15h-4.24c-.07,0-.12.05-.14.15-.03.1-.03.21,0,.31.03.11.08.16.14.16h4.24Z"/>
        <path class="cls-2" d="M94.28,68.53s-.07.03-.07.1.02.1.07.1c.35,0,.66-.01.95-.03.28-.02.61-.03,1-.03.34,0,.69.01,1.06.03.37.02.72.03,1.06.03.06,0,.08-.03.08-.1s-.03-.1-.08-.1c-.18,0-.36-.06-.53-.19-.17-.13-.36-.35-.56-.66-.2-.31-.43-.73-.7-1.26l-4.22-8.31s-.06-.06-.15-.06c-.09,0-.14.03-.15.06l-3.67,8.06c-.28.63-.53,1.12-.75,1.46-.22.34-.44.58-.66.71-.22.13-.48.19-.79.19-.04,0-.07.03-.07.1s.02.1.07.1c.38,0,.71-.01.97-.03.26-.02.62-.03,1.06-.03s.78.01,1.06.03c.28.02.59.03.93.03.06,0,.08-.03.08-.1s-.03-.1-.08-.1c-.63,0-1.09-.2-1.39-.59-.29-.39-.29-.93.02-1.6l1.2-2.65h3.01l1.75,3.46c.28.55.39.92.31,1.11-.07.19-.34.28-.8.28ZM90.23,63.21l1.21-2.66,1.35,2.66h-2.55Z"/>
        <path class="cls-2" d="M109.07,69.04s.06.01.11,0c.05,0,.08-.03.08-.06v-8.65c0-.6.13-1.07.39-1.43.26-.35.61-.53,1.06-.53.02,0,.03-.03.03-.1s-.01-.1-.03-.1c-.25,0-.52,0-.81.03-.29.02-.59.03-.9.03s-.61,0-.87-.03c-.26-.02-.52-.03-.77-.03-.02,0-.03.03-.03.1s.01.1.03.1c.44,0,.78.18,1.03.53.25.35.37.83.37,1.43v5.45l-5.85-6.74c-.27-.33-.44-.55-.52-.68-.07-.13-.18-.19-.33-.19-.18,0-.43,0-.76.02-.33.01-.69.02-1.1.02-.2,0-.42,0-.66-.02-.24-.01-.47-.02-.69-.02-.02,0-.03.03-.03.1s.01.1.03.1c.28,0,.56.08.84.24.26.15.57.43.93.82v7.14c0,.6-.14,1.07-.43,1.42-.29.35-.68.52-1.17.52-.03,0-.05.03-.05.1s.02.1.05.1c.27,0,.57,0,.89-.02.32-.01.65-.02.99-.02.32,0,.61,0,.87.02.26.01.52.02.77.02.02,0,.03-.03.03-.1s-.01-.1-.03-.1c-.44,0-.78-.17-1.03-.52-.25-.35-.37-.82-.37-1.42v-6.57l7.92,9.02Z"/>
        <path class="cls-2" d="M71.24,98.29v-6.99s0-.65,0-.65l-.03-13.16c2.2-.15,4.39.69,5.85,2.43,3.19-1.16,5.85-.67,7.59,2.41,6.08.79,10.09,3.16,13.57,8.32h-25.69v.65h26.1c3.45,1.74,7.13,3.49,11.11,3.26-1.68-4.33-3.72-1.4-6.37-3.11-2.24-1.44-4.3-2.99-6.4-4.67-2.88-2.31-5.8-4.34-9.01-6.18-5.17-2.87-10.75-4.95-16.75-5v-4.84s-.73,0-.73,0v4.82c-6.37.14-11.87,2.25-17.3,5.33-2.98,1.76-5.72,3.67-8.42,5.83-2.09,1.68-4.16,3.23-6.4,4.68-2.66,1.72-5.14-.77-6.43,3.14,3.99.21,7.65-1.5,11.13-3.26h26.12v-.65h-25.7c3.43-5.08,7.46-7.55,13.56-8.32,1.7-3.01,4.33-3.62,7.6-2.42,1.45-1.72,3.55-2.56,5.85-2.46v12.75s0,1.08,0,1.08h0v.4s0,.28,0,.28h0v6.33s-2.14,2.18-2.14,2.18l-.27,7.11,2.36-2.48.08,2.61c0,.16.67.13.67-.06l.05-2.56,2.37,2.51-.29-7.19-2.12-2.14Z"/>
      </g>
    </g>
  </g>
</svg>