<?xml version="1.0" encoding="UTF-8"?>
<svg id="Layer_2" data-name="Layer 2" xmlns="http://www.w3.org/2000/svg" viewBox="0 0 112.72 91.91">
  <defs>
    <style>
      .cls-1 {
        fill: #708942;
      }

      .cls-2 {
        fill: #231f20;
      }

      .cls-3 {
        fill: #6f8946;
      }
    </style>
  </defs>
  <g id="Layer_1" data-name="Layer 1">
    <g>
      <g>
        <path class="cls-1" d="M42.05,91.81h-3.43s-.02-.02-.02-.05,0-.05.02-.05c.16,0,.28-.01.36-.04.08-.03.13-.08.16-.16.03-.08.04-.19.04-.34v-3.59c0-.15-.01-.26-.04-.34-.03-.08-.08-.13-.16-.16-.08-.03-.2-.04-.36-.04-.01,0-.02-.02-.02-.05s0-.05.02-.05h3.29c.05,0,.08.02.08.07v1.03s0,.02-.02.02c-.03,0-.04,0-.05-.02-.08-.3-.22-.53-.42-.67-.2-.14-.46-.21-.78-.21h-.23c-.1,0-.19.01-.26.04s-.12.07-.15.14c-.03.06-.05.14-.05.23v3.55c0,.1.01.18.04.25.03.07.07.12.12.15.05.03.12.05.2.05h.26c.4,0,.73-.08.97-.25.24-.17.42-.42.53-.77,0-.02.02-.02.05-.01s.04.02.04.03c-.02.15-.04.33-.05.53s-.02.39-.02.57c0,.08-.04.12-.12.12ZM41.62,90.08c0-.21-.08-.38-.24-.5-.16-.12-.4-.18-.71-.18h-1.05v-.22h1.05c.31,0,.54-.05.69-.16.16-.11.24-.25.24-.43,0-.02.01-.02.04-.02s.04,0,.04.02c0,.17,0,.3,0,.4s0,.2,0,.3c0,.13,0,.26.01.38s.01.26.01.41c0,.01-.02.02-.05.02s-.05,0-.05-.02Z"/>
        <path class="cls-1" d="M44.79,87.75c0,.2.05.37.15.51.1.15.23.28.39.4.16.12.33.24.52.36.2.12.38.25.56.39.18.14.33.29.44.47.12.18.17.39.17.64,0,.27-.07.51-.22.72-.15.21-.35.37-.6.48s-.54.17-.86.17c-.16,0-.32-.02-.48-.05-.17-.03-.32-.07-.46-.12-.14-.05-.24-.1-.3-.15-.02-.02-.04-.03-.05-.05-.02-.02-.02-.05-.02-.1l-.02-1.23s0-.04.04-.04c.03,0,.04,0,.05.03.08.16.16.33.25.51.09.18.2.34.31.49.12.15.25.27.39.37.14.1.31.14.5.14.12,0,.23-.02.34-.06.11-.04.2-.12.27-.22.07-.11.1-.26.1-.45,0-.24-.05-.45-.16-.62s-.25-.33-.42-.46c-.17-.13-.35-.26-.53-.38-.18-.12-.35-.24-.52-.37s-.3-.27-.4-.43c-.1-.16-.15-.36-.15-.59,0-.29.08-.53.24-.71.16-.18.37-.32.62-.41.25-.09.5-.13.76-.13.19,0,.37.02.56.05.19.03.33.07.44.12.05.02.08.04.1.07.01.03.02.05.02.08v1.14s-.01.03-.04.03c-.02,0-.04,0-.05-.01-.03-.06-.08-.16-.13-.31s-.13-.29-.22-.45c-.09-.16-.21-.29-.36-.4s-.32-.17-.53-.17c-.13,0-.25.03-.35.08-.11.05-.19.13-.26.23s-.1.23-.1.39Z"/>
        <path class="cls-1" d="M50,87.14c-.32,0-.58.1-.8.31s-.39.5-.52.89c0,.01-.02.02-.05.02-.03,0-.04-.01-.04-.03.01-.07.02-.17.03-.31.01-.13.02-.28.04-.43.01-.16.02-.3.03-.45,0-.14.01-.26.01-.36,0-.03.01-.04.04-.04s.04.01.04.04c0,.05.03.09.08.11.05.02.12.04.19.05.07,0,.13.01.17.01.44.02.96.02,1.56.02.36,0,.65,0,.87-.01s.43-.01.63-.01c.19,0,.33-.01.42-.04.1-.02.16-.08.18-.16,0-.02.02-.03.05-.03s.04.01.04.03c0,.08-.02.2-.03.34,0,.15-.01.3-.02.46s-.01.31-.02.45c0,.14,0,.24,0,.31,0,.02-.01.02-.04.02s-.04,0-.05-.02c-.08-.41-.22-.71-.44-.9-.21-.19-.47-.29-.78-.29-.1,0-.18.01-.24.04-.05.03-.09.08-.11.14-.02.07-.03.16-.03.28v3.57c0,.15.02.26.05.34.03.08.09.13.18.16.09.03.23.04.41.04.02,0,.02.02.02.05s0,.05-.02.05c-.14,0-.31,0-.49,0-.18,0-.38,0-.6,0-.21,0-.4,0-.58,0s-.35,0-.5,0c-.02,0-.02-.02-.02-.05s0-.05.02-.05c.18,0,.32-.01.41-.04.09-.03.16-.08.19-.16.03-.08.05-.19.05-.34v-3.59c0-.11,0-.2-.03-.27s-.05-.11-.1-.14-.13-.04-.22-.04Z"/>
        <path class="cls-1" d="M53.34,91.89c-.14,0-.26-.04-.34-.13-.08-.08-.13-.2-.13-.34,0-.13.04-.24.13-.33s.2-.12.34-.12.26.04.34.12c.08.08.12.19.12.33,0,.14-.04.26-.12.34-.08.09-.19.13-.34.13Z"/>
        <path class="cls-1" d="M57.49,91.81s-.05-.03-.08-.09c-.03-.06-.04-.1-.02-.12.33-.41.61-.77.84-1.08.24-.3.43-.58.57-.82.15-.24.26-.47.33-.69.07-.21.1-.44.1-.66,0-.38-.08-.63-.23-.77s-.34-.2-.57-.2c-.24,0-.44.06-.6.18-.16.12-.26.29-.31.5,0,.01-.02.01-.05,0-.03,0-.04-.02-.04-.03.06-.35.21-.63.46-.84s.57-.31.95-.31.7.11.91.34c.21.22.31.51.31.86,0,.25-.04.48-.14.7-.09.22-.21.42-.35.62s-.3.39-.48.57-.34.36-.51.53c-.17.17-.31.34-.43.51-.02.04,0,.05.04.05.39,0,.71,0,.96-.02.25-.01.44-.04.57-.08.13-.04.23-.09.28-.17.05-.07.07-.17.07-.29,0-.02.02-.02.05-.02s.05,0,.05.02v1.21s0,.04-.02.06c0,.02-.03.03-.05.03h-2.63Z"/>
        <path class="cls-1" d="M63.34,91.91c-.35,0-.64-.1-.89-.3-.25-.2-.44-.49-.57-.87s-.2-.83-.2-1.36.07-.98.2-1.35c.13-.37.32-.66.57-.86.25-.2.55-.3.9-.3s.63.1.88.3c.24.2.43.49.56.87s.19.83.19,1.36-.06.97-.19,1.34c-.13.37-.32.66-.56.86-.25.2-.54.3-.89.3ZM63.43,91.75c.16,0,.28-.08.37-.23.09-.15.16-.39.2-.72.04-.33.06-.76.06-1.29,0-.59-.03-1.06-.08-1.43-.05-.36-.14-.62-.26-.79-.12-.17-.27-.25-.46-.25-.16,0-.29.08-.39.23-.1.15-.17.4-.22.74-.05.34-.07.78-.07,1.33,0,.57.03,1.04.08,1.4.06.36.15.62.28.78.13.16.29.24.48.24Z"/>
        <path class="cls-1" d="M68,91.91c-.35,0-.64-.1-.89-.3-.25-.2-.44-.49-.57-.87s-.2-.83-.2-1.36.07-.98.2-1.35c.13-.37.32-.66.57-.86.25-.2.55-.3.9-.3s.63.1.88.3c.24.2.43.49.56.87s.19.83.19,1.36-.06.97-.19,1.34c-.13.37-.32.66-.56.86-.25.2-.54.3-.89.3ZM68.09,91.75c.16,0,.28-.08.37-.23.09-.15.16-.39.2-.72.04-.33.06-.76.06-1.29,0-.59-.03-1.06-.08-1.43-.05-.36-.14-.62-.26-.79-.12-.17-.27-.25-.46-.25-.16,0-.29.08-.39.23-.1.15-.17.4-.22.74-.05.34-.07.78-.07,1.33,0,.57.03,1.04.08,1.4.06.36.15.62.28.78.13.16.29.24.48.24Z"/>
        <path class="cls-1" d="M72.2,89.62c-.24,0-.46-.06-.64-.17s-.32-.28-.42-.48c-.1-.2-.15-.44-.15-.69,0-.27.07-.51.21-.72.14-.21.32-.37.56-.49.24-.12.5-.17.8-.17.33,0,.6.07.84.22.23.15.41.37.53.65.12.28.19.62.19,1,0,.36-.06.72-.17,1.09s-.29.7-.51,1c-.23.3-.5.55-.83.74-.33.19-.7.3-1.12.33-.02,0-.03-.01-.04-.04,0-.03,0-.04.02-.05.29-.09.55-.23.77-.43.22-.2.41-.43.55-.7s.26-.57.33-.89c.07-.32.11-.66.11-1,0-.26-.02-.5-.06-.71-.04-.21-.09-.4-.16-.56-.07-.16-.16-.28-.26-.36-.1-.08-.22-.13-.34-.13-.2,0-.34.1-.42.3-.08.2-.12.46-.12.79,0,.4.05.7.16.9s.27.3.49.3c.05,0,.11,0,.19-.02.07-.01.14-.04.2-.07.02,0,.04,0,.05.02.02.02.02.04,0,.06-.19.19-.45.29-.77.29Z"/>
      </g>
      <g>
        <path class="cls-3" d="M57.18,33.06c0,.76.06,1.33.19,1.72.13.39.4.65.81.78.41.13,1.03.2,1.85.2.05,0,.07.08.07.23s-.02.23-.07.23c-.59,0-1.24-.01-1.96-.04-.72-.03-1.5-.04-2.34-.04s-1.6.01-2.33.04c-.73.03-1.39.04-1.97.04-.05,0-.07-.08-.07-.23s.04-.23.11-.23c.8,0,1.41-.06,1.83-.2.42-.13.7-.39.85-.78s.21-.96.21-1.72V14.74c0-.75-.07-1.32-.21-1.7-.14-.38-.42-.64-.85-.78-.42-.14-1.05-.21-1.87-.21-.05,0-.07-.08-.07-.23s.02-.23.07-.23c.59,0,1.24.02,1.97.06s1.5.06,2.33.06,1.63-.02,2.36-.06c.73-.04,1.37-.06,1.94-.06.05,0,.07.08.07.23s-.02.23-.07.23c-.82,0-1.43.08-1.83.23-.4.16-.67.43-.81.82s-.21.96-.21,1.72v18.25Z"/>
        <path class="cls-3" d="M23.9,19.95l.39-19.05.98.08-.39,18.97c-.03,1.35.21,2.36.72,3.01.51.65,1.36.98,2.56.98.08,0,.12.08.12.23s-.04.23-.12.23c-.57,0-1.16-.01-1.76-.04-.6-.03-1.28-.04-2.03-.04-.7,0-1.37.01-1.99.04-.62.03-1.21.04-1.76.04-.05,0-.08-.08-.08-.23s.03-.23.08-.23c1.09,0,1.91-.32,2.44-.98.53-.65.81-1.65.84-3.01ZM51.23,23.93c.05,0,.08.08.08.23s-.03.23-.08.23c-.65,0-1.38-.01-2.19-.04-.81-.03-1.67-.04-2.58-.04-.86,0-1.67.01-2.42.04-.75.03-1.43.04-2.03.04-.08,0-.12-.08-.12-.23s.04-.23.12-.23c1.27,0,2.09-.17,2.46-.51.36-.34.51-1.07.43-2.19l-.78-18.39,1.52-2.19-10.11,23.46c-.03.1-.12.16-.29.16s-.28-.05-.33-.16L24.72,3.24c-.91-1.85-2.19-2.77-3.83-2.77-.05,0-.08-.08-.08-.23s.03-.23.08-.23c.47,0,.96.01,1.46.04.51.03.94.04,1.31.04.49,0,.94-.01,1.35-.04.4-.03.71-.04.92-.04.36,0,.65.12.86.37.21.25.52.8.94,1.66l8.86,18-1.44,2.5L44.55.98c.13-.31.29-.55.49-.72.2-.17.42-.25.68-.25.18,0,.41.01.68.04.27.03.59.04.96.04.73,0,1.34-.01,1.83-.04.49-.03,1-.04,1.52-.04.05,0,.08.08.08.23s-.03.23-.08.23c-1.25,0-2.16.2-2.73.61-.57.4-.85,1.14-.82,2.21l.82,17.96c.05.76.16,1.33.31,1.72s.46.65.9.78c.44.13,1.12.2,2.03.2Z"/>
        <path class="cls-3" d="M64.56,21.31V3.24c0-.75-.08-1.32-.23-1.7-.16-.38-.47-.64-.94-.78-.47-.14-1.16-.21-2.07-.21-.08,0-.12-.08-.12-.23s.04-.23.12-.23c.65,0,1.38.02,2.19.06s1.65.06,2.54.06c1.04,0,1.97-.02,2.79-.06s1.55-.06,2.21-.06c.05,0,.08.08.08.23s-.03.23-.08.23c-.96,0-1.69.08-2.17.23-.48.16-.81.43-.98.82-.17.39-.25.96-.25,1.72v18c0,.76.08,1.33.23,1.72s.48.65.98.78c.49.13,1.22.2,2.19.2.05,0,.08.08.08.23s-.03.23-.08.23c-.68,0-1.42-.01-2.23-.04-.81-.03-1.73-.04-2.77-.04-.89,0-1.74.01-2.58.04-.83.03-1.57.04-2.23.04-.05,0-.08-.08-.08-.23s.03-.23.08-.23c.94,0,1.65-.06,2.13-.2.48-.13.8-.39.96-.78s.23-.96.23-1.72ZM66.23,12.16v-1.14h19.01v1.14h-19.01ZM84.37,3.32c0-.75-.08-1.33-.23-1.72-.16-.39-.47-.66-.94-.82-.47-.16-1.2-.23-2.19-.23-.08,0-.12-.08-.12-.23s.04-.23.12-.23c.62,0,1.35.02,2.17.06s1.74.06,2.75.06c.88,0,1.75-.02,2.6-.06.85-.04,1.58-.06,2.21-.06.08,0,.12.08.12.23s-.04.23-.12.23c-.91,0-1.61.07-2.09.21-.48.14-.8.4-.96.78-.16.38-.23.94-.23,1.7v18.07c0,.76.08,1.33.23,1.72s.47.65.96.78c.48.13,1.18.2,2.09.2.08,0,.12.08.12.23s-.04.23-.12.23c-.62,0-1.36-.01-2.21-.04-.85-.03-1.71-.04-2.6-.04-1.01,0-1.93.01-2.75.04-.82.03-1.54.04-2.17.04-.08,0-.12-.08-.12-.23s.04-.23.12-.23c.99,0,1.72-.06,2.19-.2.47-.13.78-.39.94-.78.16-.39.23-.96.23-1.72V3.32Z"/>
        <path class="cls-3" d="M29.45,29.44c2.24,0,3.95.44,5.13,1.31,1.18.87,1.78,2.08,1.78,3.61,0,.96-.23,1.89-.68,2.77-.46.89-1.07,1.67-1.83,2.34-.77.68-1.65,1.21-2.65,1.6-1,.39-2.04.59-3.1.59-.31,0-.64,0-.98-.02-.34-.01-.65-.03-.94-.06v9.21c0,.76.07,1.33.21,1.72.14.39.44.65.9.78.46.13,1.14.2,2.05.2.08,0,.12.08.12.23s-.04.23-.12.23c-.65,0-1.37-.01-2.15-.04-.78-.03-1.64-.04-2.58-.04-.89,0-1.73.01-2.54.04-.81.03-1.54.04-2.19.04-.08,0-.12-.08-.12-.23s.04-.23.12-.23c.88,0,1.55-.06,2.01-.2.46-.13.77-.39.94-.78.17-.39.25-.96.25-1.72v-18.07c0-.75-.08-1.32-.23-1.7-.16-.38-.46-.64-.9-.78-.44-.14-1.12-.21-2.03-.21-.05,0-.08-.08-.08-.23s.03-.23.08-.23c.65,0,1.37.02,2.17.06.79.04,1.63.06,2.52.06.7,0,1.51-.04,2.42-.12.91-.08,1.72-.12,2.42-.12ZM33.12,35.76c0-1.48-.2-2.64-.59-3.46-.39-.82-.92-1.39-1.58-1.72-.66-.33-1.41-.49-2.24-.49-.62,0-1.12.06-1.48.18-.36.12-.63.37-.8.76-.17.39-.25.98-.25,1.76v7.77c.36.03.76.06,1.19.1.43.04.8.06,1.11.06,1.67,0,2.86-.37,3.57-1.11s1.07-2.02,1.07-3.85ZM39.52,53.96c-.42,0-1.1-.52-2.05-1.56-.95-1.04-2.09-2.52-3.42-4.45-1.33-1.93-2.82-4.22-4.49-6.87l2.62-.86c2.19,3.28,4.04,5.89,5.56,7.83,1.52,1.94,2.87,3.33,4.04,4.18,1.17.85,2.29,1.27,3.36,1.27.08,0,.12.08.12.23s-.04.23-.12.23h-5.62Z"/>
        <path class="cls-3" d="M60.15,59.69c.13,0,.2.08.2.23s-.07.23-.2.23c-.76,0-1.53-.03-2.32-.08-.79-.05-1.57-.08-2.32-.08-.83,0-1.56.03-2.17.08-.61.05-1.29.08-2.05.08-.1,0-.16-.08-.16-.23s.05-.23.16-.23c1.27,0,2.06-.2,2.34-.6.29-.4.14-1.2-.43-2.4l-8.39-17.45,1.25-1.87-7.61,17.65c-.68,1.59-.72,2.77-.12,3.53.6.77,1.72,1.15,3.36,1.15.13,0,.2.08.2.23s-.07.23-.2.23c-.78,0-1.5-.03-2.15-.08-.65-.05-1.47-.08-2.46-.08s-1.74.03-2.32.08c-.59.05-1.29.08-2.13.08-.1,0-.16-.08-.16-.23s.05-.23.16-.23c.7,0,1.31-.14,1.83-.41.52-.27,1.02-.77,1.5-1.5.48-.73,1.01-1.77,1.58-3.12l8.32-19.17c.03-.08.12-.12.27-.14.16-.01.25.03.27.14l9.37,19.32c.62,1.28,1.16,2.27,1.62,2.99.46.72.9,1.21,1.35,1.48.44.27.91.41,1.41.41ZM41.06,47.95l.59-.9h8.04l.27.9h-8.9Z"/>
        <path class="cls-3" d="M84.48,40.75l.43-.51c1.61,0,3.03.29,4.24.86,1.21.57,2.15,1.35,2.81,2.34.66.99,1,2.13,1,3.44,0,1.38-.36,2.62-1.07,3.73-.72,1.11-1.69,1.98-2.93,2.62-1.24.64-2.62.96-4.16.96-.78,0-1.7-.04-2.77-.12-1.07-.08-2.04-.12-2.93-.12s-1.73.01-2.54.04c-.81.03-1.54.04-2.19.04-.08,0-.12-.08-.12-.23s.04-.23.12-.23c.86,0,1.52-.06,1.99-.2.47-.13.79-.39.96-.78s.25-.96.25-1.72v-18.07c0-.75-.08-1.32-.23-1.7-.16-.38-.46-.64-.92-.78-.46-.14-1.13-.21-2.01-.21-.05,0-.08-.08-.08-.23s.03-.23.08-.23c.65,0,1.37.02,2.17.06s1.63.06,2.52.06c.7,0,1.48-.04,2.34-.12s1.63-.12,2.3-.12c1.56,0,2.84.21,3.85.64,1,.43,1.75,1.03,2.24,1.8.49.77.74,1.66.74,2.67,0,1.46-.55,2.73-1.64,3.83s-2.58,1.86-4.45,2.3ZM83,30.17c-.57,0-1.03.06-1.39.18-.35.12-.6.36-.74.74-.14.38-.21.97-.21,1.78v7.65l-1.29-.31c.83.05,1.52.08,2.07.1.55.01.86.02.94.02,1.82,0,3.14-.52,3.94-1.56.81-1.04,1.21-2.32,1.21-3.83,0-.94-.16-1.76-.49-2.48-.33-.72-.81-1.27-1.46-1.68-.65-.4-1.51-.6-2.58-.6ZM84.17,53.4c1.9,0,3.29-.49,4.16-1.46.87-.98,1.31-2.35,1.31-4.12,0-1.93-.53-3.51-1.6-4.74-1.07-1.24-2.63-1.85-4.68-1.85-.52-.03-1.12-.03-1.8,0-.68.03-1.37.09-2.07.2l1.17-.43v9.88c0,.6.08,1.09.25,1.46.17.38.51.65,1.02.82.51.17,1.26.25,2.24.25Z"/>
        <path class="cls-3" d="M79.3,59.69c-.49,0-.96-.14-1.41-.41-.44-.27-.89-.77-1.35-1.48-.46-.72-1-1.71-1.62-2.99l-9.37-19.32c-.03-.1-.12-.15-.27-.14-.16.01-.25.06-.27.14l-8.32,19.17c-.19.44-.37.84-.54,1.21.19.27.37.54.56.81.11.17.23.33.34.5,0-.61.18-1.34.54-2.18l6.6-15.29,8.16,16.97c.57,1.2.72,2,.43,2.4-.29.4-1.07.6-2.34.6-.1,0-.16.08-.16.23s.05.23.16.23c.75,0,1.44-.03,2.05-.08.61-.05,1.33-.08,2.17-.08.75,0,1.53.03,2.32.08.79.05,1.57.08,2.32.08.13,0,.2-.08.2-.23s-.07-.23-.2-.23Z"/>
        <polygon class="cls-3" points="59.85 47.95 60.43 47.06 68.48 47.06 68.75 47.95 59.85 47.95"/>
      </g>
      <path class="cls-2" d="M7.32,67.8l.04,2.18s-.03.05-.1.05-.1-.02-.1-.05c0-.62-.16-1.11-.49-1.47-.32-.35-.75-.53-1.28-.53h-1.24c-.65,0-1.07.07-1.27.22-.2.14-.3.45-.3.92v3.96h1.96c.62,0,1.06-.1,1.3-.29.25-.19.37-.51.37-.95,0-.02.04-.04.11-.04s.11.01.11.04c0,.35,0,.62,0,.81,0,.19,0,.4,0,.61,0,.26,0,.52.02.78.01.26.02.54.02.84,0,.02-.04.04-.11.04s-.11-.01-.11-.04c0-.54-.13-.92-.39-1.13-.26-.22-.72-.32-1.38-.32h-1.89v3.94c0,.36.05.63.15.82.1.19.31.31.64.39.32.07.81.11,1.46.11.04,0,.05.04.05.11s-.02.11-.05.11c-.38,0-.8,0-1.25-.02-.45-.01-.94-.02-1.47-.02-.38,0-.76,0-1.11.02-.36.01-.68.02-.97.02-.02,0-.04-.04-.04-.11s.01-.11.04-.11c.46,0,.8-.03,1.03-.09.23-.06.38-.18.46-.36.08-.18.12-.44.12-.79v-8.33c0-.35-.04-.61-.12-.78-.08-.17-.23-.29-.46-.36-.23-.07-.57-.1-1.03-.1-.02,0-.04-.04-.04-.11s.01-.11.04-.11h7.12c.11,0,.16.05.16.16ZM20.85,71.03c.26.68.39,1.38.39,2.1,0,.84-.17,1.62-.5,2.34-.34.72-.79,1.35-1.38,1.89-.58.54-1.25.96-2.01,1.27-.76.31-1.57.46-2.42.46s-1.65-.15-2.35-.46c-.7-.31-1.3-.73-1.8-1.27-.5-.54-.88-1.16-1.15-1.86-.27-.7-.4-1.45-.4-2.24,0-.97.19-1.82.57-2.55.38-.73.88-1.34,1.5-1.83.62-.49,1.31-.85,2.05-1.09.74-.24,1.48-.36,2.21-.36.89,0,1.68.16,2.38.48.7.32,1.3.75,1.79,1.29.49.54.87,1.15,1.12,1.83ZM20.09,73.64c0-1.14-.22-2.14-.66-3.01-.44-.87-1.05-1.55-1.84-2.05-.79-.5-1.72-.75-2.79-.75-1.39,0-2.48.43-3.25,1.3-.78.86-1.17,2.04-1.17,3.52,0,.84.12,1.63.37,2.36.25.74.6,1.38,1.06,1.94.46.56,1.01.99,1.65,1.3.64.31,1.34.47,2.12.47.84,0,1.6-.19,2.28-.58.68-.39,1.23-.96,1.63-1.73.4-.76.6-1.69.6-2.78ZM33.46,67.66c-.28.02-.56.03-.84.03-.34,0-.64,0-.93-.03s-.55-.03-.82-.03c-.04,0-.05.04-.05.11s.02.11.05.11c.53,0,.91.13,1.16.4.25.27.37.69.37,1.27v5.16c0,1.21-.3,2.16-.91,2.86-.61.7-1.46,1.04-2.56,1.04-1.19,0-2.11-.38-2.77-1.13-.66-.76-.99-1.84-.99-3.25v-5.07c0-.35.04-.61.11-.79.07-.18.22-.31.45-.38.23-.07.57-.11,1.02-.11.04,0,.05-.04.05-.11s-.02-.11-.05-.11c-.26,0-.57,0-.93.03-.35.02-.73.03-1.14.03s-.77,0-1.12-.03c-.35-.02-.67-.03-.95-.03-.02,0-.04.04-.04.11s.01.11.04.11c.46,0,.8.03,1.03.1.23.07.38.19.46.36.08.17.12.43.12.78v5.74c0,.86.18,1.62.54,2.26.36.64.87,1.14,1.53,1.49s1.43.53,2.32.53c.84,0,1.57-.17,2.2-.52.63-.35,1.12-.85,1.47-1.51.35-.66.52-1.46.52-2.41v-5.14c0-.58.12-1,.35-1.27.23-.27.59-.4,1.07-.4.02,0,.04-.04.04-.11s-.01-.11-.04-.11c-.23,0-.48,0-.76.03ZM47.22,67.63c-.23,0-.48,0-.76.03-.28.02-.55.03-.83.03-.3,0-.57,0-.82-.03-.25-.02-.49-.03-.73-.03-.02,0-.04.04-.04.11s.01.11.04.11c.5,0,.85.13,1.04.38.19.25.29.68.29,1.29v7.87l-7.1-8.82c-.28-.35-.44-.59-.5-.73-.06-.14-.17-.21-.32-.21-.07,0-.18,0-.33.02-.15.01-.31.02-.48.02s-.36,0-.58-.02c-.22-.01-.43-.02-.63-.02-.04,0-.05.04-.05.11s.02.11.05.11c.29,0,.59.09.91.26.12.07.25.16.39.28v8.62c0,.61-.09,1.04-.28,1.29-.19.25-.54.37-1.07.37-.02,0-.04.04-.04.11s.01.11.04.11c.24,0,.49,0,.76-.02.26-.01.54-.02.83-.02s.57,0,.82.02c.25.01.48.02.71.02.04,0,.05-.04.05-.11s-.02-.11-.05-.11c-.5,0-.86-.12-1.06-.37-.2-.25-.31-.67-.31-1.29v-8.24c.1.11.2.22.31.35l8.13,10s.07.01.13,0c.06,0,.09-.02.09-.05v-9.55c0-.61.1-1.04.31-1.29.21-.25.57-.38,1.09-.38.04,0,.05-.04.05-.11s-.02-.11-.05-.11ZM58.7,75.5c-.32.73-.77,1.34-1.34,1.85-.57.51-1.23.9-1.97,1.18-.74.28-1.53.41-2.36.41-.34,0-.75-.02-1.24-.05-.49-.04-.95-.05-1.37-.05-.38,0-.76,0-1.12.02s-.68.02-.97.02c-.02,0-.04-.04-.04-.11s.01-.11.04-.11c.46,0,.8-.03,1.03-.09.23-.06.39-.18.47-.36.08-.18.12-.44.12-.79v-8.33c0-.35-.04-.61-.12-.78-.08-.17-.23-.29-.46-.36-.23-.07-.57-.1-1.02-.1-.02,0-.04-.04-.04-.11s.01-.11.04-.11c.29,0,.61,0,.96.03.35.02.72.03,1.11.03s.79-.01,1.23-.04c.44-.03.81-.05,1.12-.05,1.28,0,2.4.24,3.36.72.96.48,1.7,1.13,2.24,1.96.53.83.8,1.76.8,2.79,0,.9-.16,1.71-.49,2.44ZM58.01,73.46c0-1.06-.21-2.01-.62-2.85-.41-.85-1-1.52-1.75-2.02-.76-.5-1.65-.76-2.7-.76-.73,0-1.25.08-1.56.23-.31.15-.47.51-.47,1.07v8.09c0,.52.12.89.37,1.13.25.24.77.36,1.57.36,1.01,0,1.9-.2,2.67-.6.77-.4,1.38-.99,1.83-1.78.44-.78.67-1.74.67-2.87ZM71.18,78.77c0,.07-.02.11-.07.11-.34,0-.68-.01-1.03-.04-.35-.02-.69-.04-1.02-.04-.37,0-.69.01-.96.04-.27.02-.57.04-.89.04-.05,0-.07-.04-.07-.11s.02-.11.07-.11c.67,0,1.09-.09,1.27-.27s.15-.52-.08-1.03l-2.06-4.43h-3.59l-1.55,3.73c-.3.73-.32,1.25-.07,1.55.25.3.78.45,1.6.45.06,0,.09.04.09.11s-.03.11-.09.11c-.36,0-.69-.01-.99-.04-.3-.02-.68-.04-1.13-.04-.42,0-.76.01-1.02.04-.26.02-.57.04-.93.04-.05,0-.07-.04-.07-.11s.02-.11.07-.11c.32,0,.61-.06.85-.18.24-.12.46-.34.67-.65.21-.31.43-.76.67-1.33l3.76-9.05s.06-.05.12-.05.09.02.1.05l4.17,8.96c.28.6.52,1.06.74,1.39.22.33.43.55.65.67.22.12.46.18.72.18.05,0,.07.04.07.11ZM66.1,72.44l-1.66-3.57-1.48,3.57h3.14ZM79.65,67.11c-.06,0-.1.02-.11.07-.06.19-.2.31-.42.37-.22.05-.53.08-.93.08-.47,0-.95,0-1.45.03-.5.02-1.17.03-2.02.03-1.38,0-2.58-.02-3.61-.05-.11,0-.24,0-.39-.03-.15-.02-.28-.05-.4-.11-.11-.05-.17-.14-.17-.26,0-.06-.04-.09-.11-.09s-.11.03-.11.09c0,.19,0,.44-.03.73-.02.29-.04.6-.06.92-.02.32-.05.61-.08.89-.03.28-.06.49-.08.63,0,.02.04.04.11.04s.11-.01.11-.04c.13-.92.37-1.56.71-1.92.34-.36.89-.54,1.65-.54.56,0,.99.01,1.28.04.29.03.48.13.58.29.1.16.14.43.14.82v8.33c0,.35-.05.61-.13.79-.09.18-.27.3-.53.36s-.65.09-1.17.09c-.02,0-.04.04-.04.11s.01.11.04.11c.32,0,.68,0,1.07-.02.39-.01.8-.02,1.23-.02.46,0,.88,0,1.27.02.39.01.74.02,1.05.02.02,0,.04-.04.04-.11s-.01-.11-.04-.11c-.53,0-.92-.03-1.18-.09-.26-.06-.43-.18-.51-.36-.08-.18-.13-.44-.13-.79v-8.29c0-.38.05-.66.13-.82.09-.16.28-.26.56-.31.28-.04.7-.06,1.27-.06.83,0,1.4.18,1.71.54.31.36.47,1,.47,1.92,0,.02.04.04.11.04s.11-.01.11-.04c0-.14,0-.36.02-.64s.02-.59.04-.92c.01-.33.03-.64.05-.94.02-.3.04-.54.05-.72,0-.05-.03-.07-.09-.07ZM83.95,68.34c.08-.18.23-.31.46-.38.23-.07.57-.11,1.03-.11.02,0,.04-.04.04-.11s-.01-.11-.04-.11c-.28,0-.59,0-.94.03-.35.02-.74.03-1.16.03-.4,0-.77,0-1.12-.03-.35-.02-.67-.03-.96-.03-.04,0-.05.04-.05.11s.02.11.05.11c.46,0,.8.03,1.03.1.23.07.39.19.47.36.08.17.12.43.12.78v8.33c0,.35-.04.61-.12.79-.08.18-.23.3-.47.36-.23.06-.58.09-1.03.09-.04,0-.05.04-.05.11s.02.11.05.11c.29,0,.61,0,.96-.02.35-.01.73-.02,1.12-.02.42,0,.8,0,1.15.02.35.01.67.02.95.02.02,0,.04-.04.04-.11s-.01-.11-.04-.11c-.46,0-.8-.03-1.03-.09-.23-.06-.39-.18-.46-.36-.07-.18-.11-.44-.11-.79v-8.29c0-.35.04-.61.12-.79ZM98.83,71.03c.26.68.39,1.38.39,2.1,0,.84-.17,1.62-.5,2.34-.34.72-.79,1.35-1.38,1.89-.58.54-1.25.96-2.01,1.27-.76.31-1.57.46-2.42.46s-1.65-.15-2.35-.46c-.7-.31-1.3-.73-1.8-1.27-.5-.54-.88-1.16-1.15-1.86-.27-.7-.4-1.45-.4-2.24,0-.97.19-1.82.57-2.55.38-.73.88-1.34,1.5-1.83.62-.49,1.31-.85,2.05-1.09.74-.24,1.48-.36,2.21-.36.89,0,1.68.16,2.38.48.7.32,1.3.75,1.79,1.29.49.54.87,1.15,1.12,1.83ZM98.06,73.64c0-1.14-.22-2.14-.66-3.01-.44-.87-1.05-1.55-1.84-2.05-.79-.5-1.72-.75-2.79-.75-1.39,0-2.48.43-3.25,1.3-.78.86-1.17,2.04-1.17,3.52,0,.84.12,1.63.37,2.36.25.74.6,1.38,1.06,1.94.46.56,1.01.99,1.65,1.3.64.31,1.34.47,2.12.47.84,0,1.6-.19,2.28-.58.68-.39,1.23-.96,1.63-1.73.4-.76.6-1.69.6-2.78ZM112.66,67.63c-.23,0-.48,0-.76.03s-.55.03-.83.03c-.3,0-.57,0-.82-.03-.25-.02-.49-.03-.73-.03-.02,0-.04.04-.04.11s.01.11.04.11c.5,0,.85.13,1.04.38.19.25.29.68.29,1.29v7.87l-7.1-8.82c-.28-.35-.44-.59-.5-.73-.06-.14-.17-.21-.32-.21-.07,0-.18,0-.33.02-.15.01-.31.02-.48.02s-.36,0-.58-.02c-.22-.01-.43-.02-.63-.02-.04,0-.05.04-.05.11s.02.11.05.11c.29,0,.59.09.91.26.12.07.25.16.39.28v8.62c0,.61-.09,1.04-.28,1.29-.19.25-.54.37-1.07.37-.02,0-.04.04-.04.11s.01.11.04.11c.24,0,.49,0,.76-.02.26-.01.54-.02.83-.02s.57,0,.82.02c.25.01.48.02.71.02.04,0,.05-.04.05-.11s-.02-.11-.05-.11c-.5,0-.86-.12-1.06-.37-.2-.25-.31-.67-.31-1.29v-8.24c.1.11.2.22.31.35l8.13,10s.07.01.13,0c.06,0,.09-.02.09-.05v-9.55c0-.61.1-1.04.31-1.29.21-.25.57-.38,1.09-.38.04,0,.05-.04.05-.11s-.02-.11-.05-.11Z"/>
    </g>
  </g>
</svg>