<?xml version="1.0" encoding="UTF-8"?>
<svg id="Layer_3" data-name="Layer 3" xmlns="http://www.w3.org/2000/svg" viewBox="0 0 91.91 92.93">
  <defs>
    <style>
      .cls-1 {
        fill: #a3302f;
      }

      .cls-2 {
        fill: #231f20;
      }
    </style>
  </defs>
  <g id="Layer_1" data-name="Layer 1">
    <g>
      <g>
        <path class="cls-2" d="M13.73,92.35c.06,0,.09.04.09.11s-.03.11-.09.11c-.38,0-.77-.01-1.18-.04s-.8-.04-1.18-.04c-.43,0-.8.01-1.12.04s-.67.04-1.06.04c-.05,0-.08-.04-.08-.11s.03-.11.08-.11c.52,0,.82-.1.9-.31.08-.21-.04-.62-.35-1.24l-3.84-7.59.93-1.63-3.77,8.31c-.34.76-.35,1.36-.02,1.8.33.44.85.66,1.55.66.06,0,.09.04.09.11s-.03.11-.09.11c-.38,0-.73-.01-1.04-.04s-.71-.04-1.19-.04-.89.01-1.18.04-.66.04-1.09.04c-.05,0-.08-.04-.08-.11s.03-.11.08-.11c.34,0,.63-.07.88-.22.25-.14.49-.41.74-.79s.53-.93.84-1.64l4.11-9.03s.07-.06.17-.07c.1,0,.16.02.17.07l4.74,9.32c.3.59.56,1.06.79,1.41.22.35.43.59.62.74.2.15.39.22.6.22ZM4.28,86.92l.28-.53h3.9l.13.53h-4.32Z"/>
        <path class="cls-2" d="M17.93,82.29v8.67c0,.32.03.55.08.7.05.15.15.25.31.3.16.05.39.08.69.08h.64c.99,0,1.84-.26,2.56-.79s1.2-1.24,1.44-2.12c.01-.04.05-.05.11-.04s.09.04.09.08c-.04.42-.08.92-.11,1.51s-.06,1.13-.06,1.62c0,.19-.09.28-.28.28h-8.94s-.04-.04-.04-.11.01-.11.04-.11c.39,0,.68-.03.87-.09.19-.06.32-.19.39-.38.07-.19.1-.47.1-.83v-8.77c0-.37-.04-.64-.1-.82s-.2-.31-.39-.38-.48-.1-.87-.1c-.03,0-.04-.04-.04-.11s.01-.11.04-.11c.3,0,.67,0,1.09.03.42.02.86.03,1.32.03.48,0,.92,0,1.33-.03.4-.02.76-.03,1.08-.03.04,0,.06.04.06.11s-.02.11-.06.11c-.38,0-.67.04-.86.1-.2.07-.33.2-.39.39-.06.19-.09.47-.09.83Z"/>
        <path class="cls-2" d="M25.05,92.58s-.06-.04-.06-.11.02-.11.06-.11c.43,0,.75-.03.96-.09.21-.06.35-.19.42-.38.07-.19.1-.47.1-.83v-8.77c0-.37-.03-.64-.09-.82-.06-.18-.19-.31-.38-.38s-.48-.1-.87-.1c-.04,0-.06-.04-.06-.11s.02-.11.06-.11h8.03c.13,0,.19.06.19.17l.04,2.52s-.03.04-.09.06-.11,0-.13-.04c-.2-.75-.54-1.29-1.02-1.64-.48-.35-1.11-.52-1.89-.52h-.57c-.38,0-.66.08-.83.25s-.27.42-.27.76v8.67c0,.38.05.67.15.86.1.2.3.33.59.41.29.08.72.11,1.29.11.03,0,.04.04.04.11s-.01.11-.04.11c-.43,0-.89,0-1.39-.02s-1.08-.02-1.75-.02c-.45,0-.9,0-1.33.02-.43.01-.81.02-1.14.02ZM32.27,88.56c0-.5-.2-.91-.59-1.2-.39-.3-.96-.44-1.71-.44h-2.35v-.53h2.37c.74,0,1.31-.13,1.69-.4.38-.26.57-.62.57-1.06,0-.02.04-.04.11-.04s.11.01.11.04c0,.43,0,.76,0,1,0,.23,0,.48,0,.73,0,.32,0,.62.02.93.01.3.02.63.02.99,0,.04-.04.06-.11.06s-.11-.02-.11-.06Z"/>
        <path class="cls-2" d="M38.79,91.04c0,.37.03.64.09.83.06.19.19.32.38.38.19.06.48.09.87.09.04,0,.06.04.06.11s-.02.11-.06.11c-.33,0-.69,0-1.1-.02s-.85-.02-1.33-.02c-.45,0-.89,0-1.31.02-.42.01-.79.02-1.12.02-.03,0-.04-.04-.04-.11s.01-.11.04-.11c.39,0,.68-.03.88-.09.2-.06.33-.19.4-.38.07-.19.1-.47.1-.83v-8.77c0-.37-.04-.64-.1-.82s-.2-.31-.4-.38c-.2-.07-.49-.1-.88-.1-.03,0-.04-.04-.04-.11s.01-.11.04-.11c.33,0,.7,0,1.12.03.42.02.85.03,1.31.03.48,0,.92,0,1.34-.03.41-.02.77-.03,1.09-.03.04,0,.06.04.06.11s-.02.11-.06.11c-.38,0-.67.04-.86.11-.2.08-.33.21-.39.4-.06.19-.09.47-.09.83v8.73Z"/>
        <path class="cls-2" d="M45.36,81.18c-.77,0-1.42.25-1.96.77-.54.51-.96,1.23-1.28,2.17-.01.04-.05.05-.11.05-.06,0-.09-.03-.09-.07.03-.18.05-.43.08-.75s.05-.67.08-1.05.06-.75.08-1.1c.02-.35.03-.64.03-.87,0-.06.03-.09.1-.09s.1.03.1.09c0,.13.07.22.2.27s.28.09.45.11c.17.02.31.03.43.03,1.08.04,2.35.06,3.81.06.88,0,1.59,0,2.12-.03.53-.02,1.04-.03,1.53-.03.46,0,.8-.03,1.03-.09.23-.06.38-.19.45-.39.01-.05.05-.08.12-.08s.1.03.1.08c-.03.2-.05.48-.07.84-.02.36-.04.74-.06,1.14-.02.4-.04.76-.05,1.1-.01.33-.02.58-.02.75,0,.04-.03.06-.09.06s-.1-.02-.11-.06c-.19-1-.55-1.73-1.07-2.21-.52-.47-1.16-.71-1.9-.71-.25,0-.45.03-.58.1-.13.07-.22.19-.26.35-.04.16-.07.39-.07.68v8.73c0,.37.04.64.11.83.08.19.22.32.45.38.22.06.56.09,1.01.09.04,0,.06.04.06.11s-.02.11-.06.11c-.35,0-.75,0-1.19-.02-.44-.01-.93-.02-1.46-.02s-.98,0-1.42.02-.85.02-1.21.02c-.04,0-.06-.04-.06-.11s.02-.11.06-.11c.44,0,.78-.03,1-.09.23-.06.38-.19.46-.38.08-.19.12-.47.12-.83v-8.77c0-.28-.02-.5-.07-.65-.04-.16-.13-.27-.26-.34-.13-.07-.31-.1-.55-.1Z"/>
        <path class="cls-2" d="M58.44,87.39l-2.88-4.47c-.51-.78-.91-1.3-1.2-1.56s-.55-.39-.75-.39c-.04,0-.06-.04-.06-.11s.02-.11.06-.11c.19,0,.38,0,.59.03.2.02.4.03.59.03.35,0,.73,0,1.14,0,.4,0,.79-.02,1.15-.03.36-.01.65-.02.88-.02.03,0,.04.04.04.11s-.01.11-.04.11c-.37,0-.58.13-.65.38-.07.25,0,.55.24.89l2.73,4.3-1.82.85ZM58.33,86.71l2.1-.17v4.51c0,.37.03.64.09.83.06.19.19.32.38.38.19.06.48.09.87.09.04,0,.06.04.06.11s-.02.11-.06.11c-.33,0-.69,0-1.09-.02-.4-.01-.84-.02-1.32-.02s-.89,0-1.31.02c-.42.01-.79.02-1.12.02-.03,0-.04-.04-.04-.11s.01-.11.04-.11c.39,0,.68-.03.88-.09.2-.06.33-.19.4-.38.07-.19.1-.47.1-.83v-4.34ZM59.54,87.31l2.33-3.96c.42-.71.58-1.28.48-1.72-.09-.44-.44-.66-1.03-.66-.04,0-.06-.04-.06-.11s.02-.11.06-.11c.4,0,.78,0,1.14.03.35.02.83.03,1.42.03.32,0,.57,0,.77-.03.2-.02.43-.03.71-.03.02,0,.04.04.04.11s-.01.11-.04.11c-.25,0-.56.11-.91.33s-.71.52-1.06.9-.68.82-.99,1.33l-2.46,4.11-.4-.32Z"/>
        <path class="cls-2" d="M78.01,92.35c.06,0,.09.04.09.11s-.03.11-.09.11c-.38,0-.77-.01-1.18-.04-.41-.03-.8-.04-1.18-.04-.43,0-.8.01-1.12.04-.32.03-.67.04-1.06.04-.05,0-.08-.04-.08-.11s.03-.11.08-.11c.52,0,.82-.1.9-.31.08-.21-.04-.62-.35-1.24l-3.84-7.59.93-1.63-3.77,8.31c-.34.76-.35,1.36-.02,1.8.33.44.85.66,1.55.66.06,0,.09.04.09.11s-.03.11-.09.11c-.38,0-.73-.01-1.04-.04-.32-.03-.71-.04-1.19-.04s-.89.01-1.18.04c-.3.03-.66.04-1.09.04-.05,0-.08-.04-.08-.11s.03-.11.08-.11c.34,0,.63-.07.88-.22.25-.14.49-.41.74-.79s.53-.93.84-1.64l4.11-9.03s.07-.06.17-.07c.1,0,.16.02.17.07l4.73,9.32c.3.59.57,1.06.79,1.41.22.35.43.59.62.74.2.15.39.22.6.22ZM68.56,86.92l.28-.53h3.9l.13.53h-4.32ZM68.75,79.07c-.08,0-.13-.06-.16-.18s-.03-.24,0-.35.08-.17.16-.17h4.75c.09,0,.15.06.18.17.03.11.03.23,0,.35-.03.12-.09.18-.18.18h-4.75Z"/>
        <path class="cls-2" d="M90.24,92.86s-.03.06-.08.07c-.06,0-.1,0-.12,0l-9.34-10.62c-.45-.52-.84-.87-1.15-1.05-.32-.18-.63-.28-.95-.28-.03,0-.04-.04-.04-.11s.01-.11.04-.11c.25,0,.51,0,.78.02.26.01.51.02.74.02.46,0,.87,0,1.23-.02s.65-.02.85-.02c.16,0,.29.07.37.22.08.14.27.4.58.77l6.95,8.01.15,3.12ZM80.58,90.17v-9l.57.04v8.96c0,.67.14,1.2.42,1.59.28.39.66.59,1.15.59.03,0,.04.04.04.11s-.01.11-.04.11c-.28,0-.56,0-.86-.02s-.62-.02-.98-.02c-.38,0-.75,0-1.11.02-.36.01-.69.02-.99.02-.04,0-.06-.04-.06-.11s.02-.11.06-.11c.56,0,.99-.2,1.32-.59.32-.39.48-.92.48-1.59ZM90.24,83.17v9.7l-.55-.57v-9.13c0-.67-.14-1.2-.42-1.6-.28-.4-.66-.6-1.16-.6-.03,0-.04-.04-.04-.11s.01-.11.04-.11c.28,0,.57,0,.86.03.3.02.62.03.97.03s.68,0,1-.03c.33-.02.63-.03.91-.03.03,0,.04.04.04.11s-.01.11-.04.11c-.5,0-.9.2-1.19.6-.29.4-.44.93-.44,1.6Z"/>
      </g>
      <g>
        <polygon class="cls-1" points="43.54 68.36 46.12 70.95 48.71 68.34 46.09 65.79 43.54 68.36"/>
        <rect class="cls-1" x="13.57" y="68.21" width="25.59" height=".31"/>
        <rect class="cls-1" x="53.09" y="68.21" width="25.59" height=".31"/>
      </g>
      <g>
        <path class="cls-1" d="M47.28,30.88c0,.71.06,1.24.18,1.6.12.36.37.61.76.73.38.12.96.18,1.73.18.04,0,.07.07.07.22s-.02.22-.07.22c-.55,0-1.16-.01-1.83-.04-.67-.02-1.4-.04-2.19-.04s-1.49.01-2.17.04c-.68.02-1.29.04-1.84.04-.04,0-.07-.07-.07-.22s.03-.22.1-.22c.75,0,1.32-.06,1.71-.18.4-.12.66-.36.79-.73s.2-.9.2-1.6V13.76c0-.7-.07-1.23-.2-1.59-.13-.35-.39-.6-.79-.73-.39-.13-.98-.2-1.74-.2-.04,0-.07-.07-.07-.22s.02-.22.07-.22c.55,0,1.16.02,1.84.05s1.4.05,2.17.05,1.52-.02,2.2-.05c.68-.04,1.28-.05,1.81-.05.04,0,.07.07.07.22s-.02.22-.07.22c-.77,0-1.34.07-1.71.22-.37.15-.63.4-.76.77s-.2.9-.2,1.6v17.04Z"/>
        <path class="cls-1" d="M16.2,18.63l.36-17.79.91.07-.36,17.72c-.02,1.26.2,2.2.67,2.81.47.61,1.27.91,2.39.91.07,0,.11.07.11.22s-.04.22-.11.22c-.53,0-1.08-.01-1.64-.04-.56-.02-1.19-.04-1.9-.04-.66,0-1.28.01-1.86.04-.58.02-1.13.04-1.64.04-.05,0-.07-.07-.07-.22s.02-.22.07-.22c1.02,0,1.78-.3,2.28-.91.5-.61.76-1.54.78-2.81ZM41.72,22.35s.07.07.07.22-.02.22-.07.22c-.61,0-1.29-.01-2.04-.04-.75-.02-1.56-.04-2.41-.04-.8,0-1.56.01-2.26.04-.71.02-1.34.04-1.9.04-.07,0-.11-.07-.11-.22s.04-.22.11-.22c1.19,0,1.96-.16,2.3-.47.34-.32.47-1,.4-2.04l-.73-17.17,1.42-2.04-9.44,21.91c-.02.1-.12.15-.27.15s-.26-.05-.31-.15L16.96,3.03c-.85-1.73-2.04-2.59-3.57-2.59-.05,0-.07-.07-.07-.22s.02-.22.07-.22c.44,0,.89.01,1.37.04.47.02.88.04,1.22.04.46,0,.88-.01,1.26-.04.38-.02.66-.04.86-.04.34,0,.61.12.8.35.19.23.49.75.88,1.55l8.28,16.81-1.35,2.33L35.48.91c.12-.29.27-.52.46-.67.18-.16.39-.24.64-.24.17,0,.38.01.64.04.26.02.55.04.89.04.68,0,1.25-.01,1.71-.04.46-.02.94-.04,1.42-.04.05,0,.07.07.07.22s-.02.22-.07.22c-1.17,0-2.02.19-2.55.57-.53.38-.79,1.06-.77,2.06l.77,16.77c.05.71.15,1.24.29,1.6s.43.61.84.73c.41.12,1.04.18,1.9.18Z"/>
        <path class="cls-1" d="M54.18,19.91V3.02c0-.7-.07-1.23-.22-1.59-.15-.35-.44-.6-.88-.73-.44-.13-1.08-.2-1.93-.2-.07,0-.11-.07-.11-.22s.04-.22.11-.22c.61,0,1.29.02,2.04.05s1.54.05,2.37.05c.97,0,1.84-.02,2.61-.05s1.45-.05,2.06-.05c.05,0,.07.07.07.22s-.02.22-.07.22c-.9,0-1.57.07-2.02.22-.45.15-.75.4-.91.77-.16.36-.24.9-.24,1.6v16.81c0,.71.07,1.24.22,1.6s.45.61.91.73c.46.12,1.14.18,2.04.18.05,0,.07.07.07.22s-.02.22-.07.22c-.63,0-1.33-.01-2.08-.04-.75-.02-1.62-.04-2.59-.04-.83,0-1.63.01-2.41.04-.78.02-1.47.04-2.08.04-.05,0-.07-.07-.07-.22s.02-.22.07-.22c.88,0,1.54-.06,1.99-.18.45-.12.75-.36.89-.73s.22-.9.22-1.6ZM55.73,11.36v-1.07h17.75v1.07h-17.75ZM72.68,3.1c0-.7-.07-1.24-.22-1.6-.15-.36-.44-.62-.88-.77-.44-.15-1.12-.22-2.04-.22-.07,0-.11-.07-.11-.22s.04-.22.11-.22c.58,0,1.26.02,2.02.05s1.62.05,2.57.05c.83,0,1.63-.02,2.42-.05.79-.04,1.48-.05,2.06-.05.07,0,.11.07.11.22s-.04.22-.11.22c-.85,0-1.5.07-1.95.2-.45.13-.75.38-.89.73-.15.35-.22.88-.22,1.59v16.88c0,.71.07,1.24.22,1.6s.44.61.89.73c.45.12,1.1.18,1.95.18.07,0,.11.07.11.22s-.04.22-.11.22c-.58,0-1.27-.01-2.06-.04-.79-.02-1.6-.04-2.42-.04-.95,0-1.8.01-2.57.04-.77.02-1.44.04-2.02.04-.07,0-.11-.07-.11-.22s.04-.22.11-.22c.92,0,1.6-.06,2.04-.18.44-.12.73-.36.88-.73.15-.36.22-.9.22-1.6V3.1Z"/>
        <path class="cls-1" d="M21.38,27.5c2.09,0,3.69.41,4.79,1.22,1.11.81,1.66,1.94,1.66,3.37,0,.9-.21,1.76-.64,2.59-.43.83-1,1.56-1.71,2.19-.72.63-1.54,1.13-2.48,1.49-.94.36-1.9.55-2.9.55-.29,0-.6,0-.91-.02-.32-.01-.61-.03-.88-.05v8.61c0,.71.07,1.24.2,1.6.13.36.41.61.84.73.43.12,1.06.18,1.91.18.07,0,.11.07.11.22s-.04.22-.11.22c-.61,0-1.28-.01-2.01-.04-.73-.02-1.53-.04-2.41-.04-.83,0-1.62.01-2.37.04-.75.02-1.43.04-2.04.04-.07,0-.11-.07-.11-.22s.04-.22.11-.22c.83,0,1.45-.06,1.88-.18.43-.12.72-.36.88-.73.16-.36.24-.9.24-1.6v-16.88c0-.7-.07-1.23-.22-1.59-.15-.35-.43-.6-.84-.73-.41-.13-1.05-.2-1.9-.2-.05,0-.07-.07-.07-.22s.02-.22.07-.22c.61,0,1.28.02,2.02.05.74.04,1.53.05,2.35.05.66,0,1.41-.04,2.26-.11.85-.07,1.6-.11,2.26-.11ZM24.81,33.4c0-1.39-.18-2.46-.55-3.23-.36-.77-.86-1.3-1.48-1.6-.62-.3-1.32-.46-2.1-.46-.58,0-1.05.05-1.39.16-.34.11-.59.35-.75.71-.16.36-.24.91-.24,1.64v7.26c.34.02.71.05,1.11.09.4.04.75.05,1.04.05,1.56,0,2.67-.35,3.34-1.04s1-1.89,1-3.59ZM30.79,50.4c-.39,0-1.03-.49-1.91-1.46-.89-.97-1.95-2.36-3.19-4.16-1.24-1.8-2.64-3.94-4.19-6.42l2.44-.8c2.04,3.06,3.77,5.5,5.2,7.31,1.42,1.81,2.68,3.11,3.77,3.9,1.09.79,2.14,1.18,3.14,1.18.07,0,.11.07.11.22s-.04.22-.11.22h-5.25Z"/>
        <path class="cls-1" d="M50.05,55.75c.12,0,.18.07.18.22s-.06.22-.18.22c-.71,0-1.43-.02-2.17-.07-.74-.05-1.46-.07-2.17-.07-.78,0-1.45.02-2.02.07-.57.05-1.21.07-1.91.07-.1,0-.15-.07-.15-.22s.05-.22.15-.22c1.19,0,1.92-.19,2.19-.57.27-.38.13-1.12-.4-2.24l-7.84-16.3,1.17-1.75-7.11,16.48c-.63,1.48-.67,2.58-.11,3.3.56.72,1.6,1.08,3.14,1.08.12,0,.18.07.18.22s-.06.22-.18.22c-.73,0-1.4-.02-2.01-.07-.61-.05-1.37-.07-2.3-.07s-1.62.02-2.17.07c-.55.05-1.21.07-1.99.07-.1,0-.15-.07-.15-.22s.05-.22.15-.22c.66,0,1.23-.13,1.71-.38.49-.26.95-.72,1.4-1.4.45-.68.94-1.65,1.48-2.92l7.77-17.9c.02-.07.11-.12.25-.13.15-.01.23.03.26.13l8.75,18.05c.58,1.19,1.09,2.12,1.51,2.79.43.67.84,1.13,1.26,1.39.41.26.85.38,1.31.38ZM32.22,44.79l.55-.84h7.51l.26.84h-8.31Z"/>
        <path class="cls-1" d="M72.78,38.06l.4-.47c1.51,0,2.83.27,3.96.8,1.13.53,2.01,1.26,2.63,2.19.62.92.93,1.99.93,3.21,0,1.29-.33,2.45-1,3.48-.67,1.03-1.58,1.85-2.73,2.44-1.15.6-2.45.89-3.88.89-.73,0-1.59-.04-2.59-.11-1-.07-1.91-.11-2.74-.11s-1.62.01-2.37.04c-.75.02-1.43.04-2.04.04-.07,0-.11-.07-.11-.22s.04-.22.11-.22c.8,0,1.42-.06,1.86-.18.44-.12.73-.36.89-.73s.24-.9.24-1.6v-16.88c0-.7-.07-1.23-.22-1.59-.15-.35-.43-.6-.86-.73-.43-.13-1.05-.2-1.88-.2-.05,0-.07-.07-.07-.22s.02-.22.07-.22c.61,0,1.28.02,2.02.05s1.53.05,2.35.05c.66,0,1.39-.04,2.19-.11s1.52-.11,2.15-.11c1.46,0,2.66.2,3.59.6.94.4,1.63.96,2.1,1.68.46.72.69,1.55.69,2.5,0,1.36-.51,2.55-1.53,3.57s-2.41,1.74-4.16,2.15ZM71.39,28.18c-.53,0-.97.05-1.29.16-.33.11-.56.34-.69.69-.13.35-.2.91-.2,1.66v7.15l-1.2-.29c.78.05,1.42.08,1.93.09.51.01.8.02.88.02,1.7,0,2.93-.49,3.68-1.46.75-.97,1.13-2.16,1.13-3.57,0-.88-.15-1.65-.46-2.32-.3-.67-.76-1.19-1.37-1.57-.61-.38-1.41-.57-2.41-.57ZM72.48,49.87c1.77,0,3.07-.46,3.88-1.37.81-.91,1.22-2.19,1.22-3.85,0-1.8-.5-3.28-1.49-4.43-1-1.15-2.46-1.73-4.38-1.73-.49-.02-1.05-.02-1.68,0-.63.02-1.28.09-1.93.18l1.09-.4v9.22c0,.56.08,1.02.24,1.37.16.35.47.61.95.77.47.16,1.17.24,2.1.24Z"/>
        <path class="cls-1" d="M67.94,55.75c-.46,0-.9-.13-1.31-.38-.41-.26-.83-.72-1.26-1.39-.43-.67-.93-1.6-1.51-2.79l-8.75-18.05c-.02-.1-.11-.14-.26-.13-.15.01-.23.05-.25.13l-7.77,17.9c-.17.41-.34.78-.51,1.13.17.25.35.5.52.76.11.16.21.31.32.47,0-.57.17-1.25.5-2.03l6.16-14.28,7.62,15.85c.53,1.12.67,1.87.4,2.24-.27.38-1,.57-2.19.57-.1,0-.15.07-.15.22s.05.22.15.22c.7,0,1.34-.02,1.91-.07.57-.05,1.25-.07,2.02-.07.7,0,1.43.02,2.17.07.74.05,1.46.07,2.17.07.12,0,.18-.07.18-.22s-.06-.22-.18-.22Z"/>
        <polygon class="cls-1" points="49.77 44.79 50.32 43.95 57.83 43.95 58.08 44.79 49.77 44.79"/>
      </g>
    </g>
  </g>
</svg>