<?xml version="1.0" encoding="UTF-8"?>
<svg id="Layer_3" data-name="Layer 3" xmlns="http://www.w3.org/2000/svg" viewBox="0 0 73.18 60.16">
  <defs>
    <style>
      .cls-1 {
        fill: #231f20;
      }
    </style>
  </defs>
  <g id="Layer_1" data-name="Layer 1">
    <g>
      <path class="cls-1" d="M37.41,33.06c0,.76.06,1.33.19,1.72.13.39.4.65.81.78.41.13,1.03.2,1.85.2.05,0,.07.08.07.23s-.02.23-.07.23c-.59,0-1.24-.01-1.96-.04-.72-.03-1.5-.04-2.34-.04s-1.6.01-2.33.04c-.73.03-1.39.04-1.97.04-.05,0-.07-.08-.07-.23s.04-.23.11-.23c.8,0,1.41-.06,1.83-.2.42-.13.7-.39.85-.78s.21-.96.21-1.72V14.74c0-.75-.07-1.32-.21-1.7-.14-.38-.42-.64-.85-.78-.42-.14-1.05-.21-1.87-.21-.05,0-.07-.08-.07-.23s.02-.23.07-.23c.59,0,1.24.02,1.97.06s1.5.06,2.33.06,1.63-.02,2.36-.06c.73-.04,1.37-.06,1.94-.06.05,0,.07.08.07.23s-.02.23-.07.23c-.82,0-1.43.08-1.83.23-.4.16-.67.43-.81.82s-.21.96-.21,1.72v18.25Z"/>
      <path class="cls-1" d="M4.13,19.95L4.52.9l.98.08-.39,18.97c-.03,1.35.21,2.36.72,3.01.51.65,1.36.98,2.56.98.08,0,.12.08.12.23s-.04.23-.12.23c-.57,0-1.16-.01-1.76-.04-.6-.03-1.28-.04-2.03-.04-.7,0-1.37.01-1.99.04-.62.03-1.21.04-1.76.04-.05,0-.08-.08-.08-.23s.03-.23.08-.23c1.09,0,1.91-.32,2.44-.98.53-.65.81-1.65.84-3.01ZM31.46,23.93c.05,0,.08.08.08.23s-.03.23-.08.23c-.65,0-1.38-.01-2.19-.04-.81-.03-1.67-.04-2.58-.04-.86,0-1.67.01-2.42.04-.75.03-1.43.04-2.03.04-.08,0-.12-.08-.12-.23s.04-.23.12-.23c1.27,0,2.09-.17,2.46-.51.36-.34.51-1.07.43-2.19l-.78-18.39,1.52-2.19-10.11,23.46c-.03.1-.12.16-.29.16s-.28-.05-.33-.16L4.95,3.24C4.04,1.39,2.77.47,1.13.47c-.05,0-.08-.08-.08-.23s.03-.23.08-.23c.47,0,.96.01,1.46.04.51.03.94.04,1.31.04.49,0,.94-.01,1.35-.04.4-.03.71-.04.92-.04.36,0,.65.12.86.37.21.25.52.8.94,1.66l8.86,18-1.44,2.5L24.78.98c.13-.31.29-.55.49-.72.2-.17.42-.25.68-.25.18,0,.41.01.68.04.27.03.59.04.96.04.73,0,1.34-.01,1.83-.04.49-.03,1-.04,1.52-.04.05,0,.08.08.08.23s-.03.23-.08.23c-1.25,0-2.16.2-2.73.61-.57.4-.85,1.14-.82,2.21l.82,17.96c.05.76.16,1.33.31,1.72s.46.65.9.78c.44.13,1.12.2,2.03.2Z"/>
      <path class="cls-1" d="M44.8,21.31V3.24c0-.75-.08-1.32-.23-1.7-.16-.38-.47-.64-.94-.78-.47-.14-1.16-.21-2.07-.21-.08,0-.12-.08-.12-.23s.04-.23.12-.23c.65,0,1.38.02,2.19.06s1.65.06,2.54.06c1.04,0,1.97-.02,2.79-.06s1.55-.06,2.21-.06c.05,0,.08.08.08.23s-.03.23-.08.23c-.96,0-1.69.08-2.17.23-.48.16-.81.43-.98.82-.17.39-.25.96-.25,1.72v18c0,.76.08,1.33.23,1.72s.48.65.98.78c.49.13,1.22.2,2.19.2.05,0,.08.08.08.23s-.03.23-.08.23c-.68,0-1.42-.01-2.23-.04-.81-.03-1.73-.04-2.77-.04-.89,0-1.74.01-2.58.04-.83.03-1.57.04-2.23.04-.05,0-.08-.08-.08-.23s.03-.23.08-.23c.94,0,1.65-.06,2.13-.2.48-.13.8-.39.96-.78s.23-.96.23-1.72ZM46.47,12.16v-1.14h19.01v1.14h-19.01ZM64.61,3.32c0-.75-.08-1.33-.23-1.72-.16-.39-.47-.66-.94-.82-.47-.16-1.2-.23-2.19-.23-.08,0-.12-.08-.12-.23s.04-.23.12-.23c.62,0,1.35.02,2.17.06s1.74.06,2.75.06c.88,0,1.75-.02,2.6-.06.85-.04,1.58-.06,2.21-.06.08,0,.12.08.12.23s-.04.23-.12.23c-.91,0-1.61.07-2.09.21-.48.14-.8.4-.96.78-.16.38-.23.94-.23,1.7v18.07c0,.76.08,1.33.23,1.72s.47.65.96.78c.48.13,1.18.2,2.09.2.08,0,.12.08.12.23s-.04.23-.12.23c-.62,0-1.36-.01-2.21-.04-.85-.03-1.71-.04-2.6-.04-1.01,0-1.93.01-2.75.04-.82.03-1.54.04-2.17.04-.08,0-.12-.08-.12-.23s.04-.23.12-.23c.99,0,1.72-.06,2.19-.2.47-.13.78-.39.94-.78.16-.39.23-.96.23-1.72V3.32Z"/>
      <path class="cls-1" d="M9.68,29.44c2.24,0,3.95.44,5.13,1.31,1.18.87,1.78,2.08,1.78,3.61,0,.96-.23,1.89-.68,2.77-.46.89-1.07,1.67-1.83,2.34-.77.68-1.65,1.21-2.65,1.6-1,.39-2.04.59-3.1.59-.31,0-.64,0-.98-.02-.34-.01-.65-.03-.94-.06v9.21c0,.76.07,1.33.21,1.72.14.39.44.65.9.78.46.13,1.14.2,2.05.2.08,0,.12.08.12.23s-.04.23-.12.23c-.65,0-1.37-.01-2.15-.04-.78-.03-1.64-.04-2.58-.04-.89,0-1.73.01-2.54.04-.81.03-1.54.04-2.19.04-.08,0-.12-.08-.12-.23s.04-.23.12-.23c.88,0,1.55-.06,2.01-.2.46-.13.77-.39.94-.78.17-.39.25-.96.25-1.72v-18.07c0-.75-.08-1.32-.23-1.7-.16-.38-.46-.64-.9-.78-.44-.14-1.12-.21-2.03-.21-.05,0-.08-.08-.08-.23s.03-.23.08-.23c.65,0,1.37.02,2.17.06.79.04,1.63.06,2.52.06.7,0,1.51-.04,2.42-.12.91-.08,1.72-.12,2.42-.12ZM13.35,35.76c0-1.48-.2-2.64-.59-3.46-.39-.82-.92-1.39-1.58-1.72-.66-.33-1.41-.49-2.24-.49-.62,0-1.12.06-1.48.18-.36.12-.63.37-.8.76-.17.39-.25.98-.25,1.76v7.77c.36.03.76.06,1.19.1.43.04.8.06,1.11.06,1.67,0,2.86-.37,3.57-1.11s1.07-2.02,1.07-3.85ZM19.75,53.96c-.42,0-1.1-.52-2.05-1.56-.95-1.04-2.09-2.52-3.42-4.45-1.33-1.93-2.82-4.22-4.49-6.87l2.62-.86c2.19,3.28,4.04,5.89,5.56,7.83,1.52,1.94,2.87,3.33,4.04,4.18,1.17.85,2.29,1.27,3.36,1.27.08,0,.12.08.12.23s-.04.23-.12.23h-5.62Z"/>
      <path class="cls-1" d="M40.38,59.69c.13,0,.2.08.2.23s-.07.23-.2.23c-.76,0-1.53-.03-2.32-.08-.79-.05-1.57-.08-2.32-.08-.83,0-1.56.03-2.17.08-.61.05-1.29.08-2.05.08-.1,0-.16-.08-.16-.23s.05-.23.16-.23c1.27,0,2.06-.2,2.34-.6.29-.4.14-1.2-.43-2.4l-8.39-17.45,1.25-1.87-7.61,17.65c-.68,1.59-.72,2.77-.12,3.53.6.77,1.72,1.15,3.36,1.15.13,0,.2.08.2.23s-.07.23-.2.23c-.78,0-1.5-.03-2.15-.08-.65-.05-1.47-.08-2.46-.08s-1.74.03-2.32.08c-.59.05-1.29.08-2.13.08-.1,0-.16-.08-.16-.23s.05-.23.16-.23c.7,0,1.31-.14,1.83-.41.52-.27,1.02-.77,1.5-1.5.48-.73,1.01-1.77,1.58-3.12l8.32-19.17c.03-.08.12-.12.27-.14.16-.01.25.03.27.14l9.37,19.32c.62,1.28,1.16,2.27,1.62,2.99.46.72.9,1.21,1.35,1.48.44.27.91.41,1.41.41ZM21.29,47.95l.59-.9h8.04l.27.9h-8.9Z"/>
      <path class="cls-1" d="M64.71,40.75l.43-.51c1.61,0,3.03.29,4.24.86,1.21.57,2.15,1.35,2.81,2.34.66.99,1,2.13,1,3.44,0,1.38-.36,2.62-1.07,3.73-.72,1.11-1.69,1.98-2.93,2.62-1.24.64-2.62.96-4.16.96-.78,0-1.7-.04-2.77-.12-1.07-.08-2.04-.12-2.93-.12s-1.73.01-2.54.04c-.81.03-1.54.04-2.19.04-.08,0-.12-.08-.12-.23s.04-.23.12-.23c.86,0,1.52-.06,1.99-.2.47-.13.79-.39.96-.78s.25-.96.25-1.72v-18.07c0-.75-.08-1.32-.23-1.7-.16-.38-.46-.64-.92-.78-.46-.14-1.13-.21-2.01-.21-.05,0-.08-.08-.08-.23s.03-.23.08-.23c.65,0,1.37.02,2.17.06s1.63.06,2.52.06c.7,0,1.48-.04,2.34-.12s1.63-.12,2.3-.12c1.56,0,2.84.21,3.85.64,1,.43,1.75,1.03,2.24,1.8.49.77.74,1.66.74,2.67,0,1.46-.55,2.73-1.64,3.83s-2.58,1.86-4.45,2.3ZM63.23,30.17c-.57,0-1.03.06-1.39.18-.35.12-.6.36-.74.74-.14.38-.21.97-.21,1.78v7.65l-1.29-.31c.83.05,1.52.08,2.07.1.55.01.86.02.94.02,1.82,0,3.14-.52,3.94-1.56.81-1.04,1.21-2.32,1.21-3.83,0-.94-.16-1.76-.49-2.48-.33-.72-.81-1.27-1.46-1.68-.65-.4-1.51-.6-2.58-.6ZM64.4,53.4c1.9,0,3.29-.49,4.16-1.46.87-.98,1.31-2.35,1.31-4.12,0-1.93-.53-3.51-1.6-4.74-1.07-1.24-2.63-1.85-4.68-1.85-.52-.03-1.12-.03-1.8,0-.68.03-1.37.09-2.07.2l1.17-.43v9.88c0,.6.08,1.09.25,1.46.17.38.51.65,1.02.82.51.17,1.26.25,2.24.25Z"/>
      <path class="cls-1" d="M59.53,59.69c-.49,0-.96-.14-1.41-.41-.44-.27-.89-.77-1.35-1.48-.46-.72-1-1.71-1.62-2.99l-9.37-19.32c-.03-.1-.12-.15-.27-.14-.16.01-.25.06-.27.14l-8.32,19.17c-.19.44-.37.84-.54,1.21.19.27.37.54.56.81.11.17.23.33.34.5,0-.61.18-1.34.54-2.18l6.6-15.29,8.16,16.97c.57,1.2.72,2,.43,2.4-.29.4-1.07.6-2.34.6-.1,0-.16.08-.16.23s.05.23.16.23c.75,0,1.44-.03,2.05-.08.61-.05,1.33-.08,2.17-.08.75,0,1.53.03,2.32.08.79.05,1.57.08,2.32.08.13,0,.2-.08.2-.23s-.07-.23-.2-.23Z"/>
      <polygon class="cls-1" points="40.08 47.95 40.67 47.06 48.71 47.06 48.98 47.95 40.08 47.95"/>
    </g>
  </g>
</svg>
