<?xml version="1.0" encoding="UTF-8"?>
<svg id="Layer_3" data-name="Layer 3" xmlns="http://www.w3.org/2000/svg" viewBox="0 0 273.89 34.39">
  <defs>
    <style>
      .cls-1 {
        fill: #fff;
      }
    </style>
  </defs>
  <g id="Layer_1" data-name="Layer 1">
    <g>
      <path class="cls-1" d="M20.63,16.73s.05.05.05.16-.02.16-.05.16c-.44,0-.93,0-1.47-.03-.54-.02-1.12-.03-1.73-.03-.58,0-1.12,0-1.63.03-.51.02-.96.03-1.36.03-.05,0-.08-.05-.08-.16s.03-.16.08-.16c.86,0,1.41-.11,1.65-.34.24-.23.34-.72.29-1.47l-.49-11.54-5.81,13.48c-.02.07-.08.1-.2.1s-.19-.03-.22-.1L3.13,3.48l-.22,10.57c-.02.91.14,1.58.49,2.02.34.44.91.66,1.72.66.05,0,.08.05.08.16s-.03.16-.08.16c-.39,0-.78,0-1.18-.03-.4-.02-.86-.03-1.36-.03-.47,0-.92,0-1.34.03-.42.02-.81.03-1.18.03-.04,0-.05-.05-.05-.16s.02-.16.05-.16c.74,0,1.28-.22,1.64-.66.36-.44.55-1.11.56-2.02l.24-11.77C1.92,1.4,1.17.95.24.95c-.04,0-.05-.05-.05-.16s.02-.16.05-.16c.31,0,.64,0,.98.03.34.02.63.03.88.03.33,0,.63,0,.91-.03.27-.02.48-.03.62-.03.24,0,.44.08.58.25.14.17.35.54.63,1.12l5.83,11.85L16.14,1.3c.09-.21.2-.37.33-.49.13-.11.28-.17.46-.17.12,0,.28,0,.46.03.18.02.4.03.64.03.49,0,.9,0,1.23-.03.33-.02.67-.03,1.02-.03.03,0,.05.05.05.16s-.02.16-.05.16c-.84,0-1.45.14-1.84.41-.39.27-.57.77-.55,1.48l.55,12.07c.03.51.1.89.21,1.16s.31.44.6.52c.3.09.75.13,1.36.13ZM26.7,1.66c.1-.26.31-.45.6-.55.3-.1.75-.16,1.36-.16.03,0,.05-.05.05-.16s-.02-.16-.05-.16c-.42,0-.9.01-1.44.04-.54.03-1.13.04-1.76.04s-1.19-.01-1.73-.04c-.54-.03-1.03-.04-1.47-.04-.04,0-.05.05-.05.16s.02.16.05.16c.61,0,1.08.05,1.39.14s.52.27.63.52c.11.25.16.63.16,1.14v12.15c0,.51-.05.89-.16,1.16-.1.26-.31.44-.63.52-.31.09-.77.13-1.36.13-.05,0-.08.05-.08.16s.02.16.05.16c.44,0,.93,0,1.47-.03.54-.02,1.12-.03,1.73-.03s1.21,0,1.75.03c.53.02,1.02.03,1.46.03.03,0,.05-.05.05-.16s-.02-.16-.05-.16c-.61,0-1.07-.04-1.38-.13-.31-.09-.51-.26-.6-.52-.1-.26-.14-.65-.14-1.16V2.82c0-.51.05-.89.16-1.16ZM46.71,1.62c.11-.25.32-.43.64-.52.32-.1.79-.14,1.4-.14.05,0,.08-.05.08-.16s-.03-.16-.08-.16c-.42,0-.91.01-1.48.04-.57.03-1.15.04-1.75.04-.68,0-1.3-.01-1.85-.04-.55-.03-1.04-.04-1.46-.04-.05,0-.08.05-.08.16s.03.16.08.16c.66,0,1.15.05,1.47.16.31.1.52.29.63.55s.16.65.16,1.16v5.38h-9.58V2.82c0-.51.06-.89.17-1.16.11-.26.33-.45.66-.55.32-.1.81-.16,1.46-.16.03,0,.05-.05.05-.16s-.02-.16-.05-.16c-.44,0-.93.01-1.48.04-.55.03-1.18.04-1.88.04-.6,0-1.16-.01-1.71-.04-.54-.03-1.03-.04-1.47-.04-.05,0-.08.05-.08.16s.03.16.08.16c.61,0,1.08.05,1.39.14s.52.27.63.52c.1.25.16.63.16,1.14v12.15c0,.51-.05.89-.16,1.16s-.32.44-.64.52c-.32.09-.8.13-1.43.13-.04,0-.05.05-.05.16s.02.16.05.16c.44,0,.94,0,1.5-.03.56-.02,1.14-.03,1.73-.03.7,0,1.32,0,1.86.03.54.02,1.04.03,1.5.03.03,0,.05-.05.05-.16s-.02-.16-.05-.16c-.65,0-1.14-.04-1.47-.13-.33-.09-.55-.26-.66-.52-.11-.26-.16-.65-.16-1.16v-6.12h9.58v6.12c0,.51-.05.89-.16,1.16s-.31.44-.63.52c-.32.09-.81.13-1.47.13-.05,0-.08.05-.08.16s.03.16.08.16c.42,0,.91,0,1.46-.03.55-.02,1.17-.03,1.85-.03.59,0,1.18,0,1.75.03.57.02,1.06.03,1.48.03.05,0,.08-.05.08-.16s-.03-.16-.08-.16c-.61,0-1.08-.04-1.4-.13-.32-.09-.54-.26-.64-.52-.1-.26-.16-.65-.16-1.16V2.77c0-.51.05-.89.16-1.14ZM103.77,12.24c0,.93-.24,1.76-.72,2.51-.48.74-1.14,1.33-1.97,1.76-.83.43-1.76.64-2.8.64-.52,0-1.15-.03-1.86-.08-.72-.05-1.37-.08-1.97-.08s-1.16,0-1.71.03c-.36.01-.69.02-1,.02-.02.01-.04.03-.07.03-.51,0-1.03-.02-1.56-.05-.53-.03-1.05-.05-1.56-.05-.56,0-1.05.02-1.46.05-.41.04-.87.05-1.38.05-.07,0-.1-.05-.1-.16s.03-.16.1-.16c.86,0,1.38-.14,1.57-.41.19-.27.1-.81-.29-1.61l-2.93-6.09h-4.85l-1.9,4.4.23.48c.42.86.78,1.53,1.09,2.01.31.48.61.81.91,1,.3.18.61.28.95.28.09,0,.13.05.13.16s-.04.16-.13.16c-.51,0-1.03-.02-1.56-.05-.53-.03-1.05-.05-1.56-.05-.56,0-1.05.02-1.46.05-.41.04-.87.05-1.38.05-.07,0-.1-.05-.1-.16s.03-.16.1-.16c.86,0,1.38-.14,1.57-.41.19-.27.1-.81-.29-1.61l-2.93-6.09h-4.85l-2.14,4.96c-.46,1.07-.48,1.86-.08,2.38.08.1.19.19.29.27.54.28,1.06.43,1.56.43.03,0,.05.02.06.05.11,0,.22.02.34.02.09,0,.13.05.13.16s-.04.16-.13.16c-.52,0-1.01-.02-1.44-.05-.12,0-.25-.02-.39-.02h-2.35c-.28,0-.74-.35-1.38-1.05-.64-.7-1.4-1.7-2.3-2.99-.85-1.23-1.8-2.69-2.85-4.36-.38.08-.77.13-1.17.13-.21,0-.43,0-.66-.01-.23,0-.44-.02-.63-.04v6.2c0,.51.05.89.14,1.16s.3.44.6.52c.31.09.77.13,1.38.13.05,0,.08.05.08.16s-.03.16-.08.16c-.44,0-.92,0-1.44-.03-.53-.02-1.1-.03-1.73-.03-.59,0-1.16,0-1.71.03-.54.02-1.03.03-1.47.03-.05,0-.08-.05-.08-.16s.03-.16.08-.16c.59,0,1.05-.04,1.35-.13.31-.09.52-.26.63-.52.11-.26.17-.65.17-1.16V2.77c0-.51-.05-.89-.16-1.14-.1-.25-.31-.43-.6-.52-.3-.1-.75-.14-1.36-.14-.04,0-.05-.05-.05-.16s.02-.16.05-.16c.44,0,.92.01,1.46.04.53.03,1.1.04,1.69.04.47,0,1.01-.03,1.63-.08.61-.05,1.15-.08,1.63-.08,1.5,0,2.66.29,3.45.88.8.59,1.19,1.4,1.19,2.43,0,.65-.15,1.27-.46,1.86-.31.6-.72,1.12-1.23,1.57-.3.26-.64.49-.99.69,1.41,2.11,2.62,3.81,3.61,5.08.65.82,1.24,1.48,1.79,2.01.25-.44.52-.99.8-1.66l5.59-12.89c.02-.05.08-.08.18-.09.1,0,.17.02.18.09l5.7,11.75L82.06.48c.02-.05.08-.08.18-.09.1,0,.17.02.18.09l6.3,12.99c.42.86.78,1.53,1.09,2.01.31.48.61.81.91,1,.23.14.47.21.72.24.49,0,.89-.05,1.17-.12.31-.09.53-.26.64-.52.11-.26.17-.65.17-1.16V2.77c0-.51-.05-.89-.16-1.14-.1-.25-.31-.43-.62-.52-.31-.1-.76-.14-1.35-.14-.04,0-.05-.05-.05-.16s.02-.16.05-.16c.44,0,.92.01,1.46.04.53.03,1.1.04,1.69.04.47,0,1-.03,1.57-.08.58-.05,1.09-.08,1.55-.08,1.05,0,1.91.14,2.59.43.67.29,1.18.69,1.51,1.21.33.52.5,1.12.5,1.8,0,.98-.37,1.84-1.1,2.57-.53.53-1.2.94-1.99,1.24.79.07,1.51.25,2.14.55.81.39,1.44.91,1.89,1.57.45.67.67,1.44.67,2.31ZM56.46,8.15c1.12,0,1.92-.25,2.4-.75.48-.5.72-1.36.72-2.59,0-1-.13-1.77-.39-2.32s-.62-.94-1.06-1.16c-.45-.22-.95-.33-1.51-.33-.42,0-.75.04-1,.12-.25.08-.42.25-.54.51-.11.26-.17.66-.17,1.18v5.22c.24.02.51.04.8.07.29.03.54.04.75.04ZM72.59,8.09l-2.27-4.72-2.03,4.72h4.3ZM83.77,8.04l-2.27-4.72-2.03,4.72h4.3ZM95.5,2.82v4.98c.19,0,.37.02.52.02.37,0,.58.01.63.01,1.22,0,2.11-.35,2.65-1.05.54-.7.81-1.56.81-2.57,0-.63-.11-1.19-.33-1.67-.22-.48-.55-.86-.98-1.13-.44-.27-1.02-.41-1.73-.41-.39,0-.7.04-.93.12-.24.08-.4.25-.5.5-.1.25-.14.65-.14,1.19ZM101.53,12.87c0-1.29-.36-2.36-1.08-3.19-.72-.83-1.77-1.25-3.15-1.25-.35-.02-.75-.02-1.21,0-.2,0-.4.04-.6.06v6.43c0,.4.06.73.17.98.11.25.34.44.68.55.34.11.84.17,1.51.17,1.28,0,2.21-.33,2.8-.98.59-.66.88-1.58.88-2.77Z"/>
      <path class="cls-1" d="M121.12.99l.05,3.15c0,.05-.05.08-.14.08s-.14-.03-.14-.08c0-.9-.23-1.61-.7-2.12-.47-.51-1.09-.77-1.85-.77h-1.8c-.94,0-1.55.1-1.84.31-.29.21-.43.65-.43,1.33v5.73h2.84c.9,0,1.53-.14,1.89-.42.36-.28.53-.74.53-1.38,0-.03.05-.05.16-.05s.16.02.16.05c0,.5,0,.9-.01,1.17,0,.28-.01.57-.01.89,0,.38,0,.76.03,1.13.02.37.03.78.03,1.21,0,.03-.05.05-.16.05s-.16-.02-.16-.05c0-.78-.19-1.33-.56-1.64-.37-.31-1.04-.47-1.99-.47h-2.74v5.71c0,.52.07.92.22,1.19.15.27.46.46.93.56.47.1,1.17.16,2.11.16.05,0,.08.05.08.16s-.03.16-.08.16c-.56,0-1.16,0-1.81-.03-.65-.02-1.36-.03-2.12-.03-.56,0-1.09,0-1.62.03-.52.02-.99.03-1.41.03-.03,0-.05-.05-.05-.16s.02-.16.05-.16c.66,0,1.16-.04,1.49-.13.33-.09.55-.26.66-.52.11-.26.17-.64.17-1.15V2.87c0-.5-.06-.88-.17-1.13-.11-.25-.33-.43-.66-.52-.33-.1-.83-.14-1.49-.14-.03,0-.05-.05-.05-.16s.02-.16.05-.16h10.32c.16,0,.23.08.23.23ZM140.73,5.68c.37.99.56,2.01.56,3.05,0,1.22-.24,2.35-.73,3.39-.49,1.04-1.15,1.96-1.99,2.74-.84.78-1.82,1.39-2.92,1.84-1.1.44-2.27.67-3.51.67s-2.39-.22-3.4-.67c-1.02-.44-1.89-1.05-2.61-1.84-.72-.78-1.28-1.68-1.67-2.7-.39-1.02-.59-2.1-.59-3.24,0-1.41.27-2.64.82-3.7.55-1.06,1.27-1.94,2.18-2.65.9-.7,1.89-1.23,2.97-1.58,1.08-.35,2.15-.52,3.21-.52,1.29,0,2.44.23,3.45.69,1.02.46,1.88,1.08,2.59,1.86.71.78,1.26,1.67,1.63,2.66ZM139.62,9.46c0-1.65-.32-3.11-.95-4.37-.64-1.26-1.52-2.25-2.67-2.97-1.15-.72-2.49-1.08-4.04-1.08-2.02,0-3.59.63-4.72,1.88-1.13,1.25-1.69,2.95-1.69,5.11,0,1.22.18,2.36.53,3.43.36,1.07.87,2.01,1.54,2.81.67.81,1.46,1.44,2.38,1.89.92.45,1.95.68,3.08.68,1.22,0,2.32-.28,3.31-.85.99-.56,1.78-1.4,2.36-2.5.58-1.1.87-2.45.87-4.03ZM159,.8c-.41.03-.81.04-1.21.04-.49,0-.93-.01-1.34-.04s-.8-.04-1.19-.04c-.05,0-.08.05-.08.16s.03.16.08.16c.76,0,1.32.2,1.68.59.36.39.53,1,.53,1.84v7.48c0,1.75-.44,3.14-1.32,4.14-.88,1.01-2.12,1.51-3.71,1.51-1.72,0-3.06-.55-4.01-1.64-.96-1.09-1.43-2.67-1.43-4.72V2.92c0-.5.05-.89.16-1.15.1-.26.32-.44.65-.55.33-.1.82-.16,1.49-.16.05,0,.08-.05.08-.16s-.03-.16-.08-.16c-.38,0-.83.01-1.34.04-.51.03-1.06.04-1.66.04s-1.11-.01-1.62-.04c-.5-.03-.96-.04-1.38-.04-.03,0-.05.05-.05.16s.02.16.05.16c.66,0,1.16.05,1.49.14.33.1.55.27.66.52.11.25.17.63.17,1.13v8.31c0,1.25.26,2.34.78,3.27.52.93,1.26,1.65,2.22,2.16s2.08.77,3.36.77c1.22,0,2.28-.25,3.19-.76.91-.5,1.62-1.23,2.12-2.19.5-.95.76-2.12.76-3.49V3.49c0-.83.17-1.45.51-1.84.34-.39.86-.59,1.55-.59.03,0,.05-.05.05-.16s-.02-.16-.05-.16c-.33,0-.7.01-1.11.04ZM178.96.76c-.33,0-.7.01-1.1.04-.4.03-.8.04-1.2.04-.44,0-.83-.01-1.19-.04-.36-.03-.71-.04-1.06-.04-.03,0-.05.05-.05.16s.02.16.05.16c.73,0,1.23.18,1.51.55.28.36.42.99.42,1.88v11.41l-10.3-12.79c-.4-.5-.64-.86-.73-1.05-.09-.2-.24-.3-.47-.3-.1,0-.26,0-.48.03-.22.02-.45.03-.69.03s-.52,0-.83-.03c-.31-.02-.62-.03-.91-.03-.05,0-.08.05-.08.16s.03.16.08.16c.42,0,.86.13,1.32.38.18.1.36.24.56.4v12.49c0,.89-.13,1.51-.4,1.86-.27.36-.79.53-1.55.53-.03,0-.05.05-.05.16s.02.16.05.16c.35,0,.71,0,1.1-.03.38-.02.78-.03,1.2-.03s.83,0,1.19.03c.36.02.7.03,1.03.03.05,0,.08-.05.08-.16s-.03-.16-.08-.16c-.73,0-1.24-.18-1.54-.53-.3-.36-.44-.98-.44-1.86V2.39c.14.15.29.32.44.5l11.78,14.49s.1.02.18.01c.09,0,.13-.03.13-.07V3.49c0-.89.15-1.51.46-1.88.3-.36.83-.55,1.58-.55.05,0,.08-.05.08-.16s-.03-.16-.08-.16ZM195.59,12.16c-.47,1.05-1.12,1.95-1.94,2.68-.82.74-1.78,1.31-2.85,1.71-1.08.4-2.21.6-3.41.6-.49,0-1.09-.03-1.8-.08-.71-.05-1.37-.08-1.98-.08-.56,0-1.09,0-1.62.03s-.99.03-1.41.03c-.04,0-.05-.05-.05-.16s.02-.16.05-.16c.66,0,1.16-.04,1.5-.13.34-.09.56-.26.68-.52.11-.26.17-.64.17-1.15V2.87c0-.5-.06-.88-.17-1.13-.11-.25-.34-.43-.67-.52-.33-.1-.82-.14-1.49-.14-.03,0-.05-.05-.05-.16s.02-.16.05-.16c.42,0,.88.01,1.39.04.51.03,1.05.04,1.6.04s1.15-.02,1.79-.06c.63-.04,1.18-.07,1.63-.07,1.86,0,3.48.35,4.87,1.04,1.39.7,2.47,1.64,3.24,2.84.77,1.2,1.16,2.55,1.16,4.04,0,1.3-.23,2.48-.7,3.53ZM194.6,9.2c0-1.53-.3-2.91-.9-4.13-.6-1.23-1.45-2.2-2.54-2.93-1.09-.73-2.4-1.09-3.91-1.09-1.06,0-1.82.11-2.27.33-.45.22-.68.73-.68,1.55v11.73c0,.75.18,1.29.53,1.64.36.35,1.12.52,2.28.52,1.46,0,2.75-.29,3.87-.87,1.12-.58,2-1.44,2.65-2.58.64-1.14.96-2.52.96-4.16ZM213.68,16.89c0,.1-.03.16-.1.16-.49,0-.99-.02-1.5-.05-.51-.03-1-.05-1.47-.05-.54,0-1,.02-1.39.05-.39.03-.82.05-1.29.05-.07,0-.1-.05-.1-.16s.03-.16.1-.16c.97,0,1.59-.13,1.84-.39s.21-.76-.12-1.49l-2.98-6.42h-5.2l-2.25,5.4c-.43,1.06-.47,1.81-.1,2.24.36.44,1.14.65,2.32.65.09,0,.13.05.13.16s-.04.16-.13.16c-.52,0-1-.02-1.43-.05-.44-.03-.98-.05-1.64-.05-.61,0-1.1.02-1.47.05-.37.03-.82.05-1.34.05-.07,0-.1-.05-.1-.16s.03-.16.1-.16c.47,0,.88-.09,1.23-.26.35-.17.67-.49.98-.94.3-.45.63-1.09.98-1.93l5.45-13.11c.03-.05.09-.08.17-.08s.13.03.14.08l6.05,12.98c.4.87.76,1.54,1.07,2.02.31.48.63.8.94.98.31.17.66.26,1.04.26.07,0,.1.05.1.16ZM206.31,7.72l-2.41-5.17-2.15,5.17h4.56ZM225.95,0c-.09,0-.14.03-.16.1-.09.28-.29.46-.61.53-.32.08-.77.12-1.34.12-.68,0-1.38.01-2.1.04-.72.03-1.7.04-2.93.04-2,0-3.75-.03-5.24-.08-.16,0-.34-.01-.56-.04-.22-.03-.41-.08-.57-.16-.17-.08-.25-.2-.25-.38,0-.09-.05-.13-.16-.13s-.16.04-.16.13c0,.28-.01.63-.04,1.06-.03.43-.06.87-.09,1.33-.04.46-.07.89-.12,1.29-.04.4-.08.7-.12.91,0,.04.05.05.16.05s.16-.02.16-.05c.19-1.34.53-2.27,1.03-2.79.5-.52,1.29-.78,2.39-.78.82,0,1.43.02,1.85.06.42.04.69.18.83.42.14.23.21.63.21,1.19v12.07c0,.5-.07.89-.2,1.15-.13.26-.39.44-.77.52s-.95.13-1.69.13c-.04,0-.05.05-.05.16s.02.16.05.16c.47,0,.99,0,1.55-.03.56-.02,1.16-.03,1.79-.03.66,0,1.27,0,1.84.03.56.02,1.07.03,1.52.03.03,0,.05-.05.05-.16s-.02-.16-.05-.16c-.77,0-1.33-.04-1.71-.13-.37-.09-.62-.26-.74-.52-.12-.26-.18-.64-.18-1.15V2.92c0-.56.07-.95.2-1.19.13-.23.4-.38.81-.44.41-.06,1.02-.09,1.84-.09,1.2,0,2.02.26,2.48.78.45.52.68,1.45.68,2.79,0,.04.05.05.16.05s.16-.02.16-.05c0-.21,0-.52.03-.93s.03-.85.05-1.33c.02-.48.04-.93.08-1.37.03-.43.06-.78.08-1.04,0-.07-.04-.1-.13-.1ZM232.2,1.77c.11-.26.33-.44.66-.55.33-.1.83-.16,1.49-.16.03,0,.05-.05.05-.16s-.02-.16-.05-.16c-.4,0-.86.01-1.37.04-.51.03-1.07.04-1.68.04-.57,0-1.12-.01-1.63-.04-.51-.03-.98-.04-1.39-.04-.05,0-.08.05-.08.16s.03.16.08.16c.66,0,1.16.05,1.5.14.34.1.56.27.68.52.11.25.17.63.17,1.13v12.07c0,.5-.06.89-.17,1.15-.11.26-.34.44-.68.52-.34.09-.84.13-1.5.13-.05,0-.08.05-.08.16s.03.16.08.16c.42,0,.88,0,1.39-.03.51-.02,1.06-.03,1.63-.03.61,0,1.16,0,1.67.03.5.02.96.03,1.38.03.03,0,.05-.05.05-.16s-.02-.16-.05-.16c-.66,0-1.16-.04-1.5-.13-.34-.09-.56-.26-.67-.52-.1-.26-.16-.64-.16-1.15V2.92c0-.5.06-.89.17-1.15ZM253.75,5.68c.37.99.56,2.01.56,3.05,0,1.22-.24,2.35-.73,3.39-.49,1.04-1.15,1.96-1.99,2.74-.84.78-1.82,1.39-2.92,1.84-1.1.44-2.27.67-3.51.67s-2.39-.22-3.4-.67c-1.02-.44-1.89-1.05-2.61-1.84-.72-.78-1.28-1.68-1.67-2.7-.39-1.02-.59-2.1-.59-3.24,0-1.41.27-2.64.82-3.7.55-1.06,1.27-1.94,2.18-2.65.9-.7,1.89-1.23,2.97-1.58,1.08-.35,2.15-.52,3.21-.52,1.29,0,2.44.23,3.45.69,1.02.46,1.88,1.08,2.59,1.86.71.78,1.26,1.67,1.63,2.66ZM252.64,9.46c0-1.65-.32-3.11-.95-4.37-.64-1.26-1.52-2.25-2.67-2.97-1.15-.72-2.49-1.08-4.04-1.08-2.02,0-3.59.63-4.72,1.88-1.13,1.25-1.69,2.95-1.69,5.11,0,1.22.18,2.36.53,3.43.36,1.07.87,2.01,1.54,2.81.67.81,1.46,1.44,2.38,1.89.92.45,1.95.68,3.08.68,1.22,0,2.32-.28,3.31-.85.99-.56,1.78-1.4,2.36-2.5.58-1.1.87-2.45.87-4.03ZM273.81.76c-.33,0-.7.01-1.1.04s-.8.04-1.2.04c-.44,0-.83-.01-1.19-.04-.36-.03-.71-.04-1.06-.04-.03,0-.05.05-.05.16s.02.16.05.16c.73,0,1.23.18,1.51.55.28.36.42.99.42,1.88v11.41l-10.3-12.79c-.4-.5-.64-.86-.73-1.05-.09-.2-.24-.3-.47-.3-.1,0-.26,0-.48.03-.22.02-.45.03-.69.03s-.52,0-.83-.03c-.31-.02-.62-.03-.91-.03-.05,0-.08.05-.08.16s.03.16.08.16c.42,0,.86.13,1.32.38.18.1.36.24.56.4v12.49c0,.89-.13,1.51-.4,1.86-.27.36-.79.53-1.55.53-.03,0-.05.05-.05.16s.02.16.05.16c.35,0,.71,0,1.1-.03.38-.02.78-.03,1.2-.03s.83,0,1.19.03c.36.02.7.03,1.03.03.05,0,.08-.05.08-.16s-.03-.16-.08-.16c-.73,0-1.24-.18-1.54-.53-.3-.36-.44-.98-.44-1.86V2.39c.14.15.29.32.44.5l11.78,14.49s.1.02.18.01c.09,0,.13-.03.13-.07V3.49c0-.89.15-1.51.46-1.88.3-.36.83-.55,1.58-.55.05,0,.08-.05.08-.16s-.03-.16-.08-.16Z"/>
      <g>
        <path class="cls-1" d="M106.53,34.24h-4.85s-.03-.02-.03-.07.01-.07.03-.07c.23,0,.39-.02.5-.05.11-.04.18-.11.22-.22.04-.11.05-.27.05-.48v-5.08c0-.21-.02-.37-.05-.48-.04-.11-.11-.18-.22-.22-.11-.04-.28-.06-.5-.06-.02,0-.03-.02-.03-.07s.01-.07.03-.07h4.65c.07,0,.11.03.11.1l.02,1.46s-.02.03-.05.03c-.04,0-.06,0-.08-.02-.12-.43-.31-.75-.59-.95-.28-.2-.64-.3-1.1-.3h-.33c-.15,0-.27.02-.36.06-.1.04-.17.1-.21.19-.04.09-.07.2-.07.33v5.02c0,.14.02.26.05.35.04.09.09.16.17.21.07.04.17.07.29.07h.36c.57,0,1.03-.12,1.37-.35s.6-.6.76-1.09c0-.02.03-.03.07-.02.04.01.06.02.06.04-.03.21-.05.46-.08.75-.02.29-.03.56-.03.81,0,.11-.05.16-.17.16ZM105.92,31.8c0-.3-.11-.54-.34-.71s-.56-.26-1-.26h-1.48v-.31h1.49c.43,0,.76-.08.98-.22.22-.15.33-.35.33-.61,0-.02.02-.03.06-.03s.06.01.06.03c0,.24,0,.43,0,.57s0,.28,0,.42c0,.18,0,.36.02.54.01.17.02.37.02.58,0,.01-.02.02-.07.02s-.07,0-.07-.02Z"/>
        <path class="cls-1" d="M110.41,28.49c0,.28.07.52.21.73s.33.4.56.56c.23.17.47.34.73.5.28.18.54.36.8.55.25.19.46.42.62.67.17.25.25.55.25.9,0,.39-.1.73-.31,1.02-.21.29-.49.52-.84.69-.36.17-.76.25-1.21.25-.22,0-.45-.02-.69-.07-.24-.04-.45-.1-.65-.16-.19-.07-.33-.14-.42-.21-.03-.02-.05-.04-.08-.07-.02-.03-.03-.07-.03-.14l-.03-1.74s0-.06.05-.06c.04,0,.06,0,.07.04.11.23.23.47.36.72.13.25.28.49.44.7.17.21.35.39.55.52.2.14.44.2.7.2.17,0,.33-.03.48-.09s.28-.16.38-.32c.1-.15.15-.37.15-.64,0-.34-.08-.64-.23-.88s-.35-.46-.59-.65c-.24-.19-.49-.36-.76-.53-.26-.17-.5-.34-.73-.52-.23-.18-.42-.38-.57-.61-.15-.23-.22-.51-.22-.83,0-.41.12-.74.35-1s.52-.45.88-.58c.35-.12.71-.19,1.08-.19.26,0,.53.02.79.07.26.05.47.1.62.17.07.03.12.06.14.1.02.04.03.08.03.12v1.61s-.02.04-.05.05c-.03.01-.06,0-.07-.02-.04-.09-.11-.23-.19-.43-.08-.2-.19-.41-.32-.63s-.3-.41-.5-.56c-.21-.16-.45-.24-.75-.24-.18,0-.35.04-.5.11-.15.07-.27.18-.36.32-.09.14-.14.33-.14.55Z"/>
        <path class="cls-1" d="M117.79,27.64c-.45,0-.83.15-1.14.44s-.56.71-.74,1.26c0,.02-.03.03-.07.03-.04,0-.05-.02-.05-.04.01-.1.03-.25.04-.43s.03-.39.05-.61c.02-.22.03-.43.04-.64.01-.2.02-.37.02-.5,0-.04.02-.05.06-.05s.06.02.06.05c0,.07.04.13.12.16.08.03.17.05.26.07.1.01.18.02.25.02.63.02,1.36.03,2.21.03.51,0,.92,0,1.23-.02.31-.01.6-.02.89-.02.26,0,.46-.02.6-.05.14-.03.22-.11.26-.22,0-.03.03-.04.07-.04s.06.01.06.04c-.01.12-.03.28-.04.49-.01.21-.02.43-.03.66-.01.23-.02.44-.03.64,0,.19-.01.34-.01.43,0,.02-.02.03-.05.03s-.06-.01-.07-.03c-.11-.58-.32-1-.62-1.28-.3-.27-.67-.41-1.1-.41-.15,0-.26.02-.33.06s-.13.11-.15.2c-.03.1-.04.23-.04.4v5.06c0,.21.02.37.07.48.04.11.13.18.26.22.13.04.32.05.59.05.02,0,.03.02.03.07s-.01.07-.03.07c-.21,0-.44,0-.69-.01-.26,0-.54-.01-.84-.01s-.57,0-.82.01c-.26,0-.49.01-.7.01-.02,0-.03-.02-.03-.07s.01-.07.03-.07c.26,0,.45-.02.58-.05.13-.04.22-.11.27-.22.05-.11.07-.27.07-.48v-5.08c0-.16-.01-.29-.04-.38s-.08-.16-.15-.2-.18-.06-.32-.06Z"/>
        <path class="cls-1" d="M123.94,34.36c-.2,0-.37-.06-.49-.18-.12-.12-.18-.28-.18-.49,0-.19.06-.34.18-.46.12-.12.28-.18.49-.18s.37.06.48.18c.11.12.16.27.16.46,0,.21-.05.37-.16.49-.11.12-.27.18-.48.18Z"/>
        <path class="cls-1" d="M130.25,34.24s-.07-.04-.12-.13-.06-.15-.03-.18c.46-.58.86-1.09,1.19-1.52.33-.43.6-.82.81-1.16.21-.34.36-.67.46-.97.1-.3.15-.62.15-.94,0-.53-.11-.9-.33-1.09-.22-.19-.49-.29-.8-.29-.34,0-.63.09-.85.26-.22.17-.37.41-.43.71,0,.01-.03.02-.07.01-.04,0-.06-.02-.05-.04.08-.5.3-.89.66-1.19.36-.3.81-.44,1.35-.44s.99.16,1.28.48c.29.32.44.73.44,1.22,0,.35-.06.68-.19.99s-.29.6-.5.88c-.21.28-.43.55-.67.81s-.48.51-.72.75c-.23.25-.44.48-.61.72-.03.05-.01.08.05.08.56,0,1.01,0,1.36-.03.35-.02.62-.06.81-.11.19-.05.32-.13.39-.24.07-.1.1-.24.1-.41,0-.02.02-.03.07-.03s.07.01.07.03v1.71s0,.06-.02.08-.04.04-.08.04h-3.72Z"/>
        <path class="cls-1" d="M138.53,34.39c-.49,0-.91-.14-1.26-.43-.35-.29-.62-.69-.81-1.23s-.28-1.17-.28-1.92.09-1.38.28-1.91.46-.94.81-1.22c.35-.28.78-.42,1.28-.42s.9.14,1.24.43.61.69.79,1.23.27,1.18.27,1.93-.09,1.37-.27,1.9-.45.94-.79,1.22c-.35.28-.77.42-1.26.42ZM138.66,34.15c.22,0,.4-.11.53-.32.13-.22.23-.56.29-1.03.06-.47.09-1.08.09-1.83,0-.83-.04-1.51-.12-2.02-.08-.51-.2-.88-.36-1.12-.17-.23-.38-.35-.65-.35-.23,0-.41.11-.55.33-.14.22-.25.57-.31,1.04s-.1,1.1-.1,1.88.04,1.47.12,1.97c.08.5.21.87.39,1.1.18.23.41.35.69.35Z"/>
        <path class="cls-1" d="M145.12,34.39c-.49,0-.91-.14-1.26-.43-.35-.29-.62-.69-.81-1.23s-.28-1.17-.28-1.92.09-1.38.28-1.91.46-.94.81-1.22c.35-.28.78-.42,1.28-.42s.9.14,1.24.43.61.69.79,1.23.27,1.18.27,1.93-.09,1.37-.27,1.9-.45.94-.79,1.22c-.35.28-.77.42-1.26.42ZM145.26,34.15c.22,0,.4-.11.53-.32.13-.22.23-.56.29-1.03.06-.47.09-1.08.09-1.83,0-.83-.04-1.51-.12-2.02-.08-.51-.2-.88-.36-1.12-.17-.23-.38-.35-.65-.35-.23,0-.41.11-.55.33-.14.22-.25.57-.31,1.04s-.1,1.1-.1,1.88.04,1.47.12,1.97c.08.5.21.87.39,1.1.18.23.41.35.69.35Z"/>
        <path class="cls-1" d="M151.08,31.14c-.34,0-.65-.08-.91-.25-.26-.16-.46-.39-.6-.68s-.21-.62-.21-.98c0-.39.1-.73.29-1.03.19-.3.46-.53.79-.69.33-.17.71-.25,1.14-.25.46,0,.86.11,1.18.32s.58.52.76.92.26.87.26,1.42c0,.51-.08,1.03-.25,1.54-.17.52-.41.99-.72,1.42-.32.43-.71.78-1.17,1.05s-.99.42-1.58.46c-.03,0-.05-.02-.06-.05,0-.04,0-.06.02-.07.42-.12.78-.33,1.1-.6.31-.28.58-.61.78-.99.21-.38.36-.8.47-1.26.1-.46.15-.93.15-1.41,0-.37-.03-.7-.08-1-.06-.3-.13-.57-.23-.79-.1-.22-.22-.39-.37-.52-.15-.12-.31-.18-.48-.18-.29,0-.48.14-.59.42-.11.28-.17.66-.17,1.12,0,.56.07.99.22,1.27s.38.43.69.43c.07,0,.16,0,.26-.03s.2-.05.29-.1c.03-.01.05,0,.08.03.02.03.03.06.01.08-.27.27-.63.41-1.09.41Z"/>
      </g>
    </g>
  </g>
</svg>